SplineFontDB: 3.0
FontName: Shobhika-Bold
FullName: Shobhika Bold
FamilyName: Shobhika Bold
Weight: Bold
Copyright: Copyright (c) 2016, IIT Bombay. All rights reserved.
Version: 1.000
ItalicAngle: 0
UnderlinePosition: -100
UnderlineWidth: 50
Ascent: 800
Descent: 200
InvalidEm: 0
sfntRevision: 0x00010ccc
LayerCount: 2
Layer: 0 0 "Back" 1
Layer: 1 0 "Fore" 0
XUID: [1021 300 -283966455 23952]
StyleMap: 0x0000
FSType: 0
OS2Version: 3
OS2_WeightWidthSlopeOnly: 0
OS2_UseTypoMetrics: 0
CreationTime: 1551197710
ModificationTime: 1558798043
PfmFamily: 17
TTFWeight: 700
TTFWidth: 5
LineGap: 0
VLineGap: 0
Panose: 2 11 0 0 0 0 0 0 0 0
OS2TypoAscent: 1130
OS2TypoAOffset: 0
OS2TypoDescent: -600
OS2TypoDOffset: 0
OS2TypoLinegap: 0
OS2WinAscent: 1130
OS2WinAOffset: 0
OS2WinDescent: 600
OS2WinDOffset: 0
HheadAscent: 1130
HheadAOffset: 0
HheadDescent: -600
HheadDOffset: 0
OS2SubXSize: 650
OS2SubYSize: 600
OS2SubXOff: 0
OS2SubYOff: 75
OS2SupXSize: 650
OS2SupYSize: 600
OS2SupXOff: 0
OS2SupYOff: 350
OS2StrikeYSize: 50
OS2StrikeYPos: 300
OS2CapHeight: 700
OS2XHeight: 500
OS2Vendor: 'IITB'
OS2CodePages: 20000097.00000000
OS2UnicodeRanges: a000802f.5000204b.00000000.00000000
Lookup: 4 0 0 "'ccmp' Glyph Composition/Decomposition lookup 0" { "'ccmp' Glyph Composition/Decomposition lookup 0 subtable"  } ['ccmp' ('DFLT' <'dflt' > 'dev2' <'HIN ' 'dflt' > 'deva' <'HIN ' 'dflt' > 'latn' <'dflt' > ) ]
Lookup: 4 0 0 "'nukt' Nukta Forms lookup 1" { "'nukt' Nukta Forms lookup 1 subtable"  } ['nukt' ('DFLT' <'dflt' > 'dev2' <'HIN ' 'dflt' > 'deva' <'HIN ' 'dflt' > 'latn' <'dflt' > ) ]
Lookup: 4 0 0 "'akhn' Akhand lookup 2" { "'akhn' Akhand lookup 2 subtable"  } ['akhn' ('DFLT' <'dflt' > 'dev2' <'HIN ' 'dflt' > 'deva' <'HIN ' 'dflt' > 'latn' <'dflt' > ) ]
Lookup: 4 0 0 "'rphf' Reph Form lookup 3" { "'rphf' Reph Form lookup 3 subtable"  } ['rphf' ('DFLT' <'dflt' > 'dev2' <'HIN ' 'dflt' > 'deva' <'HIN ' 'dflt' > 'latn' <'dflt' > ) ]

StartChar: .notdef
Encoding: 65536 -1 0
Width: 709
Flags: MW
HStem: 0 21G<31 31 31 681> 680 20G<31 681 681 681>
LayerCount: 2
Fore
SplineSet
31 0 m 1
 31 700 l 1
 681 700 l 1
 681 0 l 1
 31 0 l 1
601 570 m 1
 551 620 l 1
 356 403 l 1
 161 620 l 1
 111 570 l 1
 308 350 l 1
 111 130 l 1
 161 80 l 1
 356 297 l 1
 551 80 l 1
 601 130 l 1
 403 350 l 1
 601 570 l 1
EndSplineSet
Validated: 1
EndChar

StartChar: exclam
Encoding: 33 33 3
Width: 344
GlyphClass: 2
Flags: MW
HStem: -8 159<169.5 220.5>
VStem: 110 171<47 95> 122 144<412 690 412 690>
LayerCount: 2
Fore
SplineSet
216 218 m 1xa0
 172 218 l 1
 122 412 l 1
 122 690 l 1
 148 706 239 705 266 690 c 1
 266 412 l 1
 216 218 l 1xa0
110 71 m 0xc0
 110 119 144 151 195 151 c 0
 246 151 281 119 281 71 c 0
 281 23 246 -8 195 -8 c 0
 144 -8 110 23 110 71 c 0xc0
EndSplineSet
Validated: 33
EndChar

StartChar: quotedbl
Encoding: 34 34 4
Width: 416
GlyphClass: 2
Flags: MW
HStem: 486 214<111 144 114.5 144 114.5 149 114.5 267 270.5 300 114.5 305>
LayerCount: 2
Fore
SplineSet
267 486 m 1
 221 670 l 1
 228 687 255 700 286 700 c 0
 314 700 344 690 351 670 c 1
 305 486 l 1
 267 486 l 1
111 486 m 1
 65 670 l 1
 72 687 99 700 130 700 c 0
 158 700 188 690 195 670 c 1
 149 486 l 1
 111 486 l 1
EndSplineSet
Validated: 1
EndChar

StartChar: numbersign
Encoding: 35 35 5
Width: 565
GlyphClass: 2
Flags: MW
HStem: 58 226<81 134 57 152 81 81 276 329 57 346 276 276> 220 64<57 119 38 134 205 314 57 190 399 453> 416 64<107 165 88 181 252 360 107 236 446 503> 416 226<88 290 88 290 236 290 220 360 236 236 430 430 430 485 220 503>
LayerCount: 2
Fore
SplineSet
276 58 m 1xa0
 314 220 l 1
 190 220 l 1x60
 152 58 l 1
 81 58 l 1xa0
 119 220 l 1
 38 220 l 1x60
 57 284 l 1
 134 284 l 1
 165 416 l 1
 88 416 l 1
 107 480 l 1
 181 480 l 1xa0
 220 642 l 1
 290 642 l 1x90
 252 480 l 1
 376 480 l 1xa0
 415 642 l 1
 485 642 l 1x90
 446 480 l 1
 525 480 l 1
 503 416 l 1
 430 416 l 1
 399 284 l 1
 475 284 l 1
 453 220 l 1
 384 220 l 1x60
 346 58 l 1
 276 58 l 1xa0
236 416 m 1xa0
 205 284 l 1
 329 284 l 1
 360 416 l 1
 236 416 l 1xa0
EndSplineSet
Validated: 1
EndChar

StartChar: dollar
Encoding: 36 36 6
Width: 565
GlyphClass: 2
Flags: MW
HStem: -70 21G<246 246 246 316> -12 21G<206.5 246> 740 20G<246 316 316 316>
VStem: 51 124<518 574 518 581.5> 246 70<-70 -12 -12 -12 -70 306 711 760> 390 130<137.5 194.5>
LayerCount: 2
Fore
SplineSet
246 -70 m 1
 246 -12 l 1
 167 -12 80 14 54 37 c 1
 57 89 70 146 81 175 c 1
 123 175 l 1
 174 78 l 1
 187 67 207 56 246 53 c 1
 246 306 l 2
 243 307 240 307 237 310 c 2
 214 320 l 2
 132 354 51 415 51 527 c 0
 51 636 133 702 246 710 c 1
 246 760 l 1
 316 760 l 1
 316 711 l 1
 380 708 429 696 476 676 c 1
 476 636 460 584 449 564 c 1
 408 564 l 1
 357 641 l 1
 346 644 335 646 316 646 c 1
 316 406 l 1
 354 390 l 2
 435 352 520 302 520 185 c 0
 520 80 449 8 316 -9 c 1
 316 -70 l 1
 246 -70 l 1
390 166 m 0
 390 223 354 254 306 279 c 1
 306 58 l 1
 359 73 390 109 390 166 c 0
175 546 m 0
 175 490 209 459 256 434 c 1
 256 644 l 1
 205 637 175 602 175 546 c 0
EndSplineSet
Validated: 1
EndChar

StartChar: percent
Encoding: 37 37 7
Width: 848
GlyphClass: 2
Flags: MW
HStem: -13 21G<154 154> -11 51<590 637.5 590 671.5> 278 51<589.5 637.5> 372 51<210 257.5 210 291.5> 661 51<209.5 257.5> 695 20G<691 691>
VStem: 42 120<502.5 586 502.5 593.5> 306 120<498 586> 422 120<119.5 203 119.5 210.5> 686 120<115 203>
LayerCount: 2
Fore
SplineSet
107 30 m 1xb740
 691 715 l 1
 739 673 l 1
 154 -13 l 1
 107 30 l 1xb740
42 542 m 0
 42 645 120 712 234 712 c 0x7b40
 349 712 426 657 426 542 c 0
 426 438 349 372 234 372 c 0
 120 372 42 427 42 542 c 0
162 542 m 0
 162 463 186 423 234 423 c 0
 281 423 306 454 306 542 c 0
 306 630 281 661 234 661 c 0
 185 661 162 630 162 542 c 0
422 159 m 0x7ac0
 422 262 500 329 614 329 c 0
 729 329 806 274 806 159 c 0
 806 55 729 -11 614 -11 c 0
 500 -11 422 44 422 159 c 0x7ac0
542 159 m 0
 542 80 566 40 614 40 c 0
 661 40 686 71 686 159 c 0
 686 247 661 278 614 278 c 0
 565 278 542 247 542 159 c 0
EndSplineSet
Validated: 1
EndChar

StartChar: ampersand
Encoding: 38 38 8
Width: 896
GlyphClass: 2
Flags: MW
HStem: -12 75<368.5 409> 0 21G<676 850 676 676> 480 20G<592 820 820 820> 657 55<366 409.5>
VStem: 105 150<182.5 257.5> 207 117<562 601.5 562 608> 453 85
LayerCount: 2
Fore
SplineSet
529 116 m 1xba
 443 188 348 312 310 377 c 1
 271 329 255 291 255 232 c 0
 255 133 323 63 414 63 c 0
 454 63 500 79 529 116 c 1xba
324 582 m 0x76
 324 542 360 483 389 448 c 1
 434 483 456 534 453 590 c 0
 450 627 431 657 388 657 c 0
 344 657 324 621 324 582 c 0x76
850 0 m 1
 676 0 l 1x7a
 649 16 611 36 576 71 c 1
 535 28 457 -12 361 -12 c 0
 182 -12 105 96 105 196 c 0xba
 105 319 211 401 268 434 c 1
 235 470 207 525 207 574 c 0
 207 642 264 712 376 712 c 0
 472 712 538 668 538 588 c 0
 538 512 481 448 418 403 c 1
 464 340 527 272 607 201 c 1
 628 231 666 349 645 437 c 1
 624 441 609 449 592 461 c 1
 592 500 l 1
 820 500 l 1
 820 461 l 1
 802 450 780 442 754 437 c 1
 741 323 697 205 657 162 c 1
 704 121 752 90 799 63 c 1xb6
 850 39 l 1
 850 0 l 1
EndSplineSet
Validated: 33
EndChar

StartChar: quotesingle
Encoding: 39 39 9
Width: 240
GlyphClass: 2
Flags: MW
HStem: 486 21G<111 111 111 149> 680 20G<114.5 144>
LayerCount: 2
Fore
SplineSet
111 486 m 1
 65 670 l 1
 72 687 99 700 130 700 c 0
 158 700 188 690 195 670 c 1
 149 486 l 1
 111 486 l 1
EndSplineSet
Validated: 1
EndChar

StartChar: parenleft
Encoding: 40 40 10
Width: 375
GlyphClass: 2
Flags: MW
HStem: -210 21G<327 327> 682 20G<330 330>
VStem: 50 140<146 344 146 359>
LayerCount: 2
Fore
SplineSet
360 -177 m 1
 327 -210 l 1
 198 -132 50 -12 50 243 c 0
 50 475 186 609 330 702 c 1
 360 671 l 1
 254 557 190 445 190 243 c 0
 190 49 260 -80 360 -177 c 1
EndSplineSet
Validated: 1
EndChar

StartChar: parenright
Encoding: 41 41 11
Width: 375
GlyphClass: 2
Flags: MW
HStem: -210 21G<48 48> 682 20G<45 45>
VStem: 184 141<156 354.5>
LayerCount: 2
Fore
SplineSet
48 -210 m 1
 15 -177 l 1
 114 -81 184 59 184 253 c 0
 184 456 122 562 15 671 c 1
 45 702 l 1
 196 614 325 476 325 253 c 0
 325 25 211 -119 48 -210 c 1
EndSplineSet
Validated: 1
EndChar

StartChar: asterisk
Encoding: 42 42 12
Width: 463
GlyphClass: 2
Flags: W
LayerCount: 2
Fore
SplineSet
193 569 m 1
 58 597 l 1
 41 619 82 694 115 697 c 1
 206 591 l 1
 206 581 202 574 193 569 c 1
206 535 m 1
 118 429 l 1
 90 429 44 506 57 530 c 1
 192 556 l 1
 201 551 206 544 206 535 c 1
247 524 m 1
 291 395 l 1
 280 373 191 371 177 393 c 1
 220 524 l 1
 229 529 238 529 247 524 c 1
274 554 m 1
 405 530 l 1
 421 501 382 430 350 430 c 1
 262 533 l 1
 262 542 266 549 274 554 c 1
261 590 m 1
 352 696 l 1
 385 699 415 631 407 598 c 1
 273 568 l 1
 265 574 261 581 261 590 c 1
220 600 m 1
 177 731 l 1
 188 755 276 757 289 731 c 1
 246 600 l 1
 237 595 229 595 220 600 c 1
EndSplineSet
Validated: 33
EndChar

StartChar: plus
Encoding: 43 43 13
Width: 565
GlyphClass: 2
Flags: MW
HStem: 102 21G<242 322 242 242> 304 80<57 242 57 242 322 507> 560 20G<242 322 322 322>
VStem: 242 80<102 304 102 304 384 580>
LayerCount: 2
Fore
SplineSet
57 304 m 1
 57 384 l 1
 242 384 l 1
 242 580 l 1
 322 580 l 1
 322 384 l 1
 507 384 l 1
 507 304 l 1
 322 304 l 1
 322 102 l 1
 242 102 l 1
 242 304 l 1
 57 304 l 1
EndSplineSet
Validated: 1
EndChar

StartChar: comma
Encoding: 44 44 14
Width: 306
GlyphClass: 2
Flags: MW
HStem: -175 21G<76 76> 133 20G
LayerCount: 2
Fore
SplineSet
76 -175 m 1
 53 -131 l 1
 105 -115 142 -63 139 -21 c 1
 120 3 93 17 64 26 c 1
 51 81 88 145 128 153 c 1
 184 150 240 110 240 24 c 0
 240 -59 171 -154 76 -175 c 1
EndSplineSet
Validated: 33
EndChar

StartChar: hyphen
Encoding: 45 45 15
Width: 414
GlyphClass: 2
Flags: MW
HStem: 237 90<66 348 66 348>
LayerCount: 2
Fore
SplineSet
66 237 m 1
 66 327 l 1
 348 327 l 1
 348 237 l 1
 66 237 l 1
EndSplineSet
Validated: 1
EndChar

StartChar: period
Encoding: 46 46 16
Width: 296
GlyphClass: 2
Flags: MW
HStem: -8 159<121.5 172.5>
VStem: 63 170<47 95>
LayerCount: 2
Fore
SplineSet
63 71 m 0
 63 119 96 151 147 151 c 0
 198 151 233 119 233 71 c 0
 233 23 198 -8 147 -8 c 0
 96 -8 63 23 63 71 c 0
EndSplineSet
Validated: 1
EndChar

StartChar: slash
Encoding: 47 47 17
Width: 344
GlyphClass: 2
Flags: MW
HStem: -133 21G<13 13> 696 20G<318 318>
LayerCount: 2
Fore
SplineSet
-46 -107 m 1
 318 716 l 1
 378 691 l 1
 13 -133 l 1
 -46 -107 l 1
EndSplineSet
Validated: 1
EndChar

StartChar: zero
Encoding: 48 48 18
Width: 565
GlyphClass: 2
Flags: MW
HStem: -12 55<235 321.5 235 354> 657 55<239.5 329.5>
VStem: 23 150<254 460 254 469.5> 392 150<240 446>
LayerCount: 2
Fore
SplineSet
23 350 m 0
 23 589 133 712 282 712 c 0
 442 712 542 591 542 350 c 0
 542 111 432 -12 276 -12 c 0
 113 -12 23 122 23 350 c 0
173 350 m 0
 173 158 195 43 275 43 c 0
 368 43 392 130 392 350 c 0
 392 542 377 657 282 657 c 0
 197 657 173 570 173 350 c 0
EndSplineSet
Validated: 1
EndChar

StartChar: one
Encoding: 49 49 19
Width: 565
GlyphClass: 2
Flags: MW
HStem: 0 21G<120 466 120 120> 692 20G<332 366 366 366>
VStem: 222 144<77 536 536 536>
LayerCount: 2
Fore
SplineSet
466 43 m 1
 466 0 l 1
 120 0 l 1
 120 43 l 1
 153 58 187 69 222 77 c 1
 222 536 l 1
 226 595 l 1
 189 583 149 580 106 581 c 1
 101 618 l 1
 172 637 261 669 332 712 c 1
 366 712 l 1
 366 77 l 1
 399 69 433 58 466 43 c 1
EndSplineSet
Validated: 33
EndChar

StartChar: two
Encoding: 50 50 20
Width: 565
GlyphClass: 2
Flags: MW
HStem: 0 118<226 398 226 501> 642 70<227.5 275>
VStem: 352 135<448.5 554.5>
LayerCount: 2
Fore
SplineSet
178 633 m 1
 141 478 l 1
 107 478 l 1
 91 517 63 591 52 638 c 1
 99 678 170 712 274 712 c 0
 421 712 487 631 487 530 c 0
 487 367 318 239 217 151 c 1
 165 116 l 1
 165 112 l 1
 226 118 l 1
 398 118 l 1
 447 230 l 1
 481 230 l 1
 489 166 501 49 501 0 c 1
 43 0 l 1
 43 64 l 1
 146 155 352 349 352 518 c 0
 352 591 311 642 239 642 c 0
 216 642 201 640 178 633 c 1
EndSplineSet
Validated: 1
EndChar

StartChar: three
Encoding: 51 51 21
Width: 565
GlyphClass: 2
Flags: MW
HStem: -12 65<243 287.5 243 326.5> 324 77<190 320> 593 107<169 320 169 169>
VStem: 380 140<153.5 239.5>
LayerCount: 2
Fore
SplineSet
257 53 m 0
 318 53 380 113 380 194 c 0
 380 285 313 324 248 324 c 2
 190 324 l 1
 190 364 l 1
 340 560 l 1
 374 595 l 1
 374 599 l 1
 320 593 l 1
 169 593 l 1
 130 491 l 1
 96 491 l 1
 82 549 66 652 66 700 c 1
 502 700 l 1
 502 651 l 1
 329 440 l 1
 286 396 l 1
 286 394 l 1
 320 401 l 1
 446 396 520 314 520 203 c 0
 520 69 397 -12 256 -12 c 0
 174 -12 95 14 55 48 c 1
 92 152 l 1
 121 152 l 1
 137 133 180 85 201 61 c 1
 214 58 229 53 257 53 c 0
EndSplineSet
Validated: 1
EndChar

StartChar: four
Encoding: 52 52 22
Width: 565
GlyphClass: 2
Flags: MW
HStem: 0 245<204 296 437 513 204 204> 180 65<151 296 151 296 437 560> 692 20G<383 437 437 437>
VStem: 296 141<67 180 67 180 245 458 458 458>
LayerCount: 2
Fore
SplineSet
513 43 m 1x70
 513 0 l 1
 204 0 l 1xb0
 204 43 l 1
 237 54 267 62 296 67 c 1
 296 180 l 1
 0 180 l 1
 0 225 l 1
 383 712 l 1
 437 712 l 1
 437 245 l 1
 560 245 l 1
 560 180 l 1
 437 180 l 1
 437 67 l 1
 463 62 488 54 513 43 c 1x70
296 245 m 1
 296 458 l 1
 306 528 l 1
 303 528 l 1
 265 458 l 1
 120 271 l 1
 80 238 l 1
 151 245 l 1
 296 245 l 1
EndSplineSet
Validated: 1
EndChar

StartChar: five
Encoding: 53 53 23
Width: 565
GlyphClass: 2
Flags: MW
HStem: -12 65<212.5 262 212.5 300> 336 106<194 240> 585 115<195 408 147 469 195 195> 735 20G<455 489 489 489>
VStem: 363 135<154.5 244>
LayerCount: 2
Fore
SplineSet
408 700 m 1
 455 755 l 1
 489 755 l 1
 489 714 480 618 469 585 c 1
 195 585 l 1
 177 442 l 1
 260 442 l 2
 404 442 498 363 498 228 c 0
 498 77 377 -12 223 -12 c 0
 146 -12 79 17 40 48 c 1
 82 147 l 1
 111 147 l 1
 129 129 162 85 181 61 c 1
 194 56 203 53 222 53 c 0
 302 53 363 112 363 197 c 0
 363 291 286 336 194 336 c 2
 107 335 l 1
 147 700 l 1
 408 700 l 1
EndSplineSet
Validated: 1
EndChar

StartChar: six
Encoding: 54 54 24
Width: 565
GlyphClass: 2
Flags: MW
HStem: -12 61<257.5 329 257.5 358.5> 351 70<302.5 320> 698 20G<449 449>
VStem: 38 150<180 236.5 180 375> 386 150<161.5 252.5>
LayerCount: 2
Fore
SplineSet
536 215 m 0
 536 76 425 -12 292 -12 c 0
 127 -12 38 98 38 250 c 0
 38 500 226 670 449 718 c 1
 464 675 l 1
 321 630 212 518 196 349 c 1
 217 383 263 421 342 421 c 0
 451 421 536 351 536 215 c 0
386 203 m 0
 386 302 353 351 287 351 c 0
 242 351 209 324 194 293 c 1
 190 274 188 248 188 225 c 0
 188 135 219 49 296 49 c 0
 362 49 386 120 386 203 c 0
EndSplineSet
Validated: 1
EndChar

StartChar: seven
Encoding: 55 55 25
Width: 565
GlyphClass: 2
Flags: MW
HStem: 0 21G<156 298 156 156> 583 117<156 156 156 371>
LayerCount: 2
Fore
SplineSet
156 583 m 1
 117 481 l 1
 83 481 l 1
 70 537 53 652 53 700 c 1
 521 700 l 1
 521 653 l 1
 377 430 330 273 298 0 c 1
 156 0 l 1
 204 193 280 363 384 540 c 1
 421 588 l 1
 371 583 l 1
 156 583 l 1
EndSplineSet
Validated: 1
EndChar

StartChar: eight
Encoding: 56 56 26
Width: 565
GlyphClass: 2
Flags: MW
HStem: -12 61<246 320 246 360> 651 61<256 311.5>
VStem: 35 140<150 203.5> 64 136<522 581.5 522 584.5> 371 130<510 574.5> 387 142<123 191>
LayerCount: 2
Fore
SplineSet
35 157 m 0xe4
 35 250 101 314 198 345 c 1
 118 390 64 452 64 533 c 0
 64 636 149 712 288 712 c 0
 417 712 501 646 501 550 c 0xd8
 501 470 441 408 360 383 c 1
 474 322 529 263 529 175 c 0
 529 71 441 -12 279 -12 c 0
 129 -12 35 61 35 157 c 0xe4
387 146 m 0
 387 236 316 270 236 318 c 1
 189 282 175 229 175 182 c 0
 175 118 205 49 287 49 c 0
 353 49 387 95 387 146 c 0
200 554 m 0xd8
 200 490 249 442 320 406 c 1
 357 441 371 481 371 536 c 0
 371 613 337 651 286 651 c 0
 226 651 200 609 200 554 c 0xd8
EndSplineSet
Validated: 1
EndChar

StartChar: nine
Encoding: 57 57 27
Width: 565
GlyphClass: 2
Flags: MW
HStem: -12 21G<144 144> 274 70<257 278.5> 651 61<248.5 319>
VStem: 38 150<449.5 542.5 449.5 549.5> 383 148<444 508>
LayerCount: 2
Fore
SplineSet
38 482 m 0
 38 617 138 712 284 712 c 0
 440 712 531 605 531 441 c 0
 531 195 374 12 144 -12 c 1
 121 31 l 1
 274 71 355 179 376 331 c 1
 351 298 311 274 246 274 c 0
 132 274 38 345 38 482 c 0
188 488 m 0
 188 411 223 344 291 344 c 0
 331 344 363 360 379 387 c 1
 382 404 383 432 383 456 c 0
 383 560 356 651 282 651 c 0
 215 651 188 597 188 488 c 0
EndSplineSet
Validated: 1
EndChar

StartChar: colon
Encoding: 58 58 28
Width: 343
GlyphClass: 2
Flags: MW
HStem: -8 159<168.5 219.5> 350 159<168.5 219.5>
VStem: 110 170<47 95 405 453>
LayerCount: 2
Fore
SplineSet
110 429 m 0
 110 477 143 509 194 509 c 0
 245 509 280 477 280 429 c 0
 280 381 245 350 194 350 c 0
 143 350 110 381 110 429 c 0
110 71 m 0
 110 119 143 151 194 151 c 0
 245 151 280 119 280 71 c 0
 280 23 245 -8 194 -8 c 0
 143 -8 110 23 110 71 c 0
EndSplineSet
Validated: 1
EndChar

StartChar: semicolon
Encoding: 59 59 29
Width: 348
GlyphClass: 2
Flags: MW
HStem: -175 21G<125 125> 153 197 350 159<170.5 221.5>
VStem: 112 170<405 453>
LayerCount: 2
Fore
SplineSet
112 429 m 0xb0
 112 477 145 509 196 509 c 0
 247 509 282 477 282 429 c 0
 282 381 247 350 196 350 c 0
 145 350 112 381 112 429 c 0xb0
125 -175 m 1
 102 -131 l 1
 154 -115 191 -63 188 -21 c 1
 169 3 142 17 113 26 c 1
 100 81 137 145 177 153 c 1xd0
 233 150 289 110 289 24 c 0
 289 -59 220 -154 125 -175 c 1
EndSplineSet
Validated: 33
EndChar

StartChar: less
Encoding: 60 60 30
Width: 565
GlyphClass: 2
Flags: MW
HStem: 103 21G<449 449> 570 20G<450 450>
LayerCount: 2
Fore
SplineSet
449 103 m 1
 65 324 l 1
 65 355 l 1
 450 590 l 1
 486 525 l 1
 273 397 l 1
 191 363 l 1
 272 332 l 1
 505 195 l 1
 449 103 l 1
EndSplineSet
Validated: 1
EndChar

StartChar: equal
Encoding: 61 61 31
Width: 565
GlyphClass: 2
Flags: MW
HStem: 219 80<57 507 57 507> 389 80<57 507 57 507>
LayerCount: 2
Fore
SplineSet
57 389 m 1
 57 469 l 1
 507 469 l 1
 507 389 l 1
 57 389 l 1
57 219 m 1
 57 299 l 1
 507 299 l 1
 507 219 l 1
 57 219 l 1
EndSplineSet
Validated: 1
EndChar

StartChar: greater
Encoding: 62 62 32
Width: 565
GlyphClass: 2
Flags: MW
HStem: 103 21G<128 128> 570 20G<129 129>
LayerCount: 2
Fore
SplineSet
129 590 m 1
 513 369 l 1
 513 338 l 1
 128 103 l 1
 92 168 l 1
 305 296 l 1
 387 330 l 1
 306 361 l 1
 73 497 l 1
 129 590 l 1
EndSplineSet
Validated: 1
EndChar

StartChar: question
Encoding: 63 63 33
Width: 486
GlyphClass: 2
Flags: MW
HStem: -8 159<200.5 251.5> 481 20G<101 135 101 101> 647 65<216 261>
VStem: 142 170<47 95> 316 144<478 572>
LayerCount: 2
Fore
SplineSet
168 633 m 1
 135 501 l 1
 101 501 l 1
 85 536 61 608 56 661 c 1
 107 692 166 712 266 712 c 0
 385 712 460 642 460 549 c 0
 460 367 232 370 232 203 c 1
 199 203 l 1
 143 386 316 410 316 546 c 0
 316 598 293 647 229 647 c 0
 201 647 179 641 168 633 c 1
142 71 m 0
 142 119 175 151 226 151 c 0
 277 151 312 119 312 71 c 0
 312 23 277 -8 226 -8 c 0
 175 -8 142 23 142 71 c 0
EndSplineSet
Validated: 33
EndChar

StartChar: at
Encoding: 64 64 34
Width: 1064
GlyphClass: 2
Flags: MW
HStem: -180 65<434 559> 13 67<723.5 767.5> 13 80<450.5 454.5> 431 61<529.5 564.5 465 586.5> 647 65<434 653>
VStem: 81 75<124 358.5 124 381.5> 280 137<143.5 220 143.5 247.5> 912 75<243 428>
LayerCount: 2
Fore
SplineSet
647 465 m 1xdf
 679 480 727 486 772 485 c 1
 723 207 l 2
 707 122 705 80 742 80 c 0
 803 80 912 160 912 326 c 0
 912 530 756 647 550 647 c 0
 318 647 156 475 156 242 c 0
 156 6 322 -115 546 -115 c 0
 585 -115 639 -106 679 -87 c 1
 695 -144 l 1
 648 -171 593 -180 525 -180 c 0
 288 -180 81 -41 81 236 c 0
 81 527 295 712 555 712 c 0
 808 712 987 568 987 326 c 0
 987 139 838 13 697 13 c 0
 618 13 576 50 592 165 c 1
 588 165 l 1
 564 92 492 13 417 13 c 0
 326 13 280 78 280 169 c 0
 280 326 389 492 541 492 c 0
 588 492 615 484 647 465 c 1xdf
599 251 m 1
 627 415 l 1
 612 426 598 431 575 431 c 0
 484 431 417 274 417 166 c 0
 417 121 431 93 470 93 c 0xbf
 516 93 564 175 599 251 c 1
EndSplineSet
Validated: 33
EndChar

StartChar: A
Encoding: 65 65 35
Width: 729
GlyphClass: 2
Flags: MW
HStem: 0 21G<0 247 0 0 416 416 416 729> 226 65<243 420 243 441 219 420> 692 20G<329 403 403 403>
LayerCount: 2
Fore
SplineSet
247 38 m 1
 247 0 l 1
 0 0 l 1
 0 38 l 1
 21 51 47 62 71 67 c 1
 329 712 l 1
 403 712 l 1
 654 67 l 1
 681 62 709 51 729 38 c 1
 729 0 l 1
 416 0 l 1
 416 38 l 1
 441 50 472 62 499 67 c 1
 441 226 l 1
 219 226 l 1
 160 67 l 1
 191 63 220 53 247 38 c 1
312 480 m 1
 243 291 l 1
 420 291 l 1
 355 482 l 1
 336 568 l 1
 334 568 l 1
 312 480 l 1
EndSplineSet
Validated: 1
EndChar

StartChar: B
Encoding: 66 66 36
Width: 649
GlyphClass: 2
Flags: MW
HStem: -6 65<301.5 364 301.5 397.5> 0 21G<20 139 20 20> 323 65<246 278 278 289.5 246 299 246 278> 641 65<301.5 347.5> 680 20G<20 181 181 206.5>
VStem: 102 144<67 323 388 633 633 633> 431 150<497 561> 457 124 457 155<154.5 246.5>
LayerCount: 2
Fore
SplineSet
139 0 m 2x76
 20 0 l 1
 20 38 l 1
 45 53 75 64 102 67 c 1
 102 633 l 1
 75 638 44 649 20 662 c 1
 20 700 l 1
 181 700 l 2x6e
 232 700 272 706 331 706 c 0
 459 706 581 676 581 540 c 0xb5
 581 454 515 393 430 377 c 1
 430 373 l 1
 515 362 612 316 612 199 c 0
 612 54 472 -6 323 -6 c 0xb480
 268 -6 183 0 139 0 c 2x76
322 59 m 0xb5
 406 59 457 113 457 196 c 0
 457 297 390 323 299 323 c 2
 246 323 l 1
 246 66 l 1
 265 62 281 59 322 59 c 0xb5
246 388 m 1
 278 388 l 2
 301 388 324 390 344 393 c 1
 396 414 431 462 431 519 c 0xb6
 431 603 382 641 313 641 c 0
 284 641 263 640 246 637 c 1
 246 388 l 1
EndSplineSet
Validated: 1
EndChar

StartChar: C
Encoding: 67 67 37
Width: 652
GlyphClass: 2
Flags: MW
HStem: -12 65<351.5 435.5 351.5 440.5> 647 65<352 420>
VStem: 39 166<254.5 456 254.5 478>
LayerCount: 2
Fore
SplineSet
491 70 m 1
 540 210 l 1
 581 210 l 1
 592 168 599 82 599 28 c 1
 552 -1 477 -12 404 -12 c 0
 183 -12 39 95 39 351 c 0
 39 605 202 712 389 712 c 0
 477 712 551 698 596 677 c 1
 596 634 584 534 573 485 c 1
 531 485 l 1
 476 636 l 1
 464 643 434 647 406 647 c 0
 298 647 205 562 205 350 c 0
 205 159 286 53 417 53 c 0
 454 53 482 59 491 70 c 1
EndSplineSet
Validated: 1
EndChar

StartChar: D
Encoding: 68 68 38
Width: 736
GlyphClass: 2
Flags: MW
HStem: -9 65<309.5 393 309.5 438> 0 21G<20 130 20 20> 643 65<302 390.5> 680 20G<20 136 136 158.5>
VStem: 102 144<67 633 633 633> 531 165<275.5 431>
LayerCount: 2
Fore
SplineSet
130 0 m 2x6c
 20 0 l 1
 20 38 l 1
 43 51 71 62 102 67 c 1
 102 633 l 1
 71 640 41 650 20 662 c 1
 20 700 l 1
 136 700 l 2x5c
 181 700 278 708 326 708 c 0
 557 708 696 585 696 359 c 0
 696 138 570 -9 306 -9 c 0xac
 271 -9 181 0 130 0 c 2x6c
313 643 m 0xac
 289 643 263 642 246 639 c 1
 246 60 l 1
 257 57 303 56 316 56 c 0
 470 56 531 193 531 358 c 0
 531 504 468 643 313 643 c 0xac
EndSplineSet
Validated: 1
EndChar

StartChar: E
Encoding: 69 69 39
Width: 604
GlyphClass: 2
Flags: MW
HStem: 0 65<252 447 252 561> 325 65<252 374 252 374> 635 65<252 439 252 252>
VStem: 102 150<67 325 390 633 633 633>
LayerCount: 2
Fore
SplineSet
20 700 m 1
 546 700 l 1
 543 640 537 573 526 517 c 1
 485 517 l 1
 439 635 l 1
 252 635 l 1
 252 390 l 1
 374 390 l 1
 418 467 l 1
 450 467 l 1
 457 402 457 315 450 246 c 1
 418 246 l 1
 374 325 l 1
 252 325 l 1
 252 65 l 1
 447 65 l 1
 500 192 l 1
 541 192 l 1
 552 141 561 60 561 0 c 1
 20 0 l 1
 20 38 l 1
 43 50 71 62 102 67 c 1
 102 633 l 1
 75 638 43 649 20 662 c 1
 20 700 l 1
EndSplineSet
Validated: 33
EndChar

StartChar: F
Encoding: 70 70 40
Width: 575
GlyphClass: 2
Flags: MW
HStem: 0 21G<20 329 20 20> 307 65<242 379 242 379> 635 65<242 436 242 242>
VStem: 92 150<67 307 67 372 372 633 633 633>
LayerCount: 2
Fore
SplineSet
242 307 m 1
 242 67 l 1
 273 63 302 53 329 38 c 1
 329 0 l 1
 20 0 l 1
 20 38 l 1
 41 50 65 60 92 67 c 1
 92 633 l 1
 61 640 39 651 20 662 c 1
 20 700 l 1
 543 700 l 1
 543 647 534 570 523 517 c 1
 482 517 l 1
 436 635 l 1
 242 635 l 1
 242 372 l 1
 379 372 l 1
 424 449 l 1
 454 449 l 1
 459 414 461 375 461 336 c 0
 460 296 458 257 454 228 c 1
 424 228 l 1
 379 307 l 1
 242 307 l 1
EndSplineSet
Validated: 1
EndChar

StartChar: G
Encoding: 71 71 41
Width: 709
GlyphClass: 2
Flags: MW
HStem: -12 65<354.5 437.5 354.5 438.5> 647 65<359 428.5>
VStem: 39 166<262.5 458 262.5 480> 517 119<80 268 44 268>
LayerCount: 2
Fore
SplineSet
636 268 m 1
 636 44 l 1
 583 17 472 -12 405 -12 c 0
 177 -12 39 109 39 350 c 0
 39 610 217 712 396 712 c 0
 484 712 567 700 612 677 c 1
 612 637 604 543 588 485 c 1
 547 485 l 1
 491 637 l 1
 476 644 443 647 414 647 c 0
 304 647 205 566 205 350 c 0
 205 175 292 53 417 53 c 0
 458 53 506 69 517 80 c 1
 517 268 l 1
 482 271 452 282 425 297 c 1
 425 335 l 1
 698 335 l 1
 698 297 l 1
 686 285 667 275 636 268 c 1
EndSplineSet
Validated: 1
EndChar

StartChar: H
Encoding: 72 72 42
Width: 769
GlyphClass: 2
Flags: MW
HStem: 0 21G<20 323 20 20 446 446 446 749> 326 65<252 517 252 517> 680 20G<20 323 323 323 446 749 749 749>
VStem: 102 150<67 326 391 633> 517 150<67 326 326 326 391 633 67 633>
LayerCount: 2
Fore
SplineSet
323 38 m 1
 323 0 l 1
 20 0 l 1
 20 38 l 1
 43 50 75 62 102 67 c 1
 102 633 l 1
 70 638 39 650 20 662 c 1
 20 700 l 1
 323 700 l 1
 323 662 l 1
 303 649 277 637 252 633 c 1
 252 391 l 1
 517 391 l 1
 517 633 l 1
 488 638 465 650 446 662 c 1
 446 700 l 1
 749 700 l 1
 749 662 l 1
 726 647 695 638 667 633 c 1
 667 67 l 1
 698 62 728 50 749 38 c 1
 749 0 l 1
 446 0 l 1
 446 38 l 1
 466 50 490 62 517 67 c 1
 517 326 l 1
 252 326 l 1
 252 67 l 1
 279 62 300 53 323 38 c 1
EndSplineSet
Validated: 1
EndChar

StartChar: I
Encoding: 73 73 43
Width: 372
GlyphClass: 2
Flags: MW
HStem: 0 21G<30 342 30 30> 680 20G<30 342 342 342>
VStem: 111 150<67 633 67 633>
LayerCount: 2
Fore
SplineSet
342 38 m 1
 342 0 l 1
 30 0 l 1
 30 38 l 1
 57 53 84 62 111 67 c 1
 111 633 l 1
 84 637 53 649 30 662 c 1
 30 700 l 1
 342 700 l 1
 342 662 l 1
 318 647 288 637 261 633 c 1
 261 67 l 1
 288 62 318 53 342 38 c 1
EndSplineSet
Validated: 1
EndChar

StartChar: J
Encoding: 74 74 44
Width: 365
GlyphClass: 2
Flags: MW
HStem: -160 21G<51 51> 680 20G<27 335 335 335>
VStem: 109 150<115 121 121 633>
LayerCount: 2
Fore
SplineSet
27 662 m 1
 27 700 l 1
 335 700 l 1
 335 662 l 1
 314 649 286 637 259 633 c 1
 259 121 l 2
 259 -98 109 -147 51 -160 c 1
 32 -134 l 1
 72 -102 109 -41 109 115 c 2
 109 633 l 1
 80 640 50 647 27 662 c 1
EndSplineSet
Validated: 1
EndChar

StartChar: K
Encoding: 75 75 45
Width: 710
GlyphClass: 2
Flags: MW
HStem: 0 21G<20 323 20 20 536 710 536 536> 680 20G<20 323 323 323 399 667 667 667>
VStem: 102 150<67 328 67 379 379 633>
LayerCount: 2
Fore
SplineSet
399 662 m 1
 399 700 l 1
 667 700 l 1
 667 662 l 1
 644 647 612 637 588 633 c 1
 398 392 l 1
 459 306 568 170 662 63 c 1
 710 34 l 1
 710 0 l 1
 536 0 l 1
 496 28 l 1
 432 109 353 227 295 328 c 1
 252 328 l 1
 252 67 l 1
 281 62 306 50 323 38 c 1
 323 0 l 1
 20 0 l 1
 20 38 l 1
 47 51 75 62 102 67 c 1
 102 633 l 1
 71 637 41 649 20 662 c 1
 20 700 l 1
 323 700 l 1
 323 662 l 1
 306 651 280 640 252 633 c 1
 252 379 l 1
 311 393 l 1
 472 633 l 1
 445 638 418 651 399 662 c 1
EndSplineSet
Validated: 1
EndChar

StartChar: L
Encoding: 76 76 46
Width: 583
GlyphClass: 2
Flags: MW
HStem: 0 65<252 445 252 569> 680 20G<20 348 348 348>
VStem: 102 150<67 633 65 633>
LayerCount: 2
Fore
SplineSet
20 662 m 1
 20 700 l 1
 348 700 l 1
 348 662 l 1
 320 647 284 637 252 633 c 1
 252 65 l 1
 445 65 l 1
 512 244 l 1
 553 244 l 1
 563 184 572 67 569 0 c 1
 20 0 l 1
 20 38 l 1
 51 54 78 63 102 67 c 1
 102 633 l 1
 69 638 42 648 20 662 c 1
EndSplineSet
Validated: 33
EndChar

StartChar: M
Encoding: 77 77 47
Width: 930
GlyphClass: 2
Flags: MW
HStem: 0 21G<20 264 20 20 415 461 415 415 610 909 610 610> 680 20G<22 293 293 293 662 910 910 910>
VStem: 104 75<72 481 71 633> 690 144<67 485 485 485>
LayerCount: 2
Fore
SplineSet
909 38 m 1
 909 0 l 1
 610 0 l 1
 610 38 l 1
 637 51 661 60 690 67 c 1
 690 485 l 1
 695 602 l 1
 687 602 l 1
 654 495 l 1
 461 0 l 1
 415 0 l 1
 223 491 l 1
 187 608 l 1
 178 608 l 1
 179 481 l 1
 179 71 l 1
 204 66 237 53 264 38 c 1
 264 0 l 1
 20 0 l 1
 20 38 l 1
 41 49 76 67 104 72 c 1
 104 633 l 1
 77 638 45 647 22 662 c 1
 22 700 l 1
 293 700 l 1
 446 293 l 1
 475 197 l 1
 476 197 l 1
 506 295 l 1
 662 700 l 1
 910 700 l 1
 910 662 l 1
 887 649 861 638 834 633 c 1
 834 66 l 1
 862 61 889 49 909 38 c 1
EndSplineSet
Validated: 1
EndChar

StartChar: N
Encoding: 78 78 48
Width: 758
GlyphClass: 2
Flags: MW
HStem: -12 21G<568 653 568 568> 0 21G<20 267 20 20> 680 20G<28 244 244 244 490 738 738 738>
VStem: 104 77<78 495 78 624> 576 77<284 618 -12 618>
LayerCount: 2
Fore
SplineSet
490 662 m 1x78
 490 700 l 1
 738 700 l 1
 738 662 l 1
 713 642 680 626 653 618 c 1
 653 -12 l 1
 568 -12 l 1xb8
 215 498 l 1
 175 575 l 1
 172 575 l 1
 181 495 l 1
 181 78 l 1
 208 71 244 54 267 38 c 1
 267 0 l 1
 20 0 l 1
 20 38 l 1
 44 54 73 69 104 78 c 1
 104 624 l 1
 77 635 49 648 28 663 c 1
 28 700 l 1
 244 700 l 1
 531 284 l 1
 577 198 l 1
 581 198 l 1
 576 284 l 1
 576 618 l 1
 544 629 513 645 490 662 c 1x78
EndSplineSet
Validated: 1
EndChar

StartChar: O
Encoding: 79 79 49
Width: 754
GlyphClass: 2
Flags: MW
HStem: -12 65<323.5 443.5 323.5 486.5> 647 65<307 433>
VStem: 39 170<264.5 435.5 264.5 454.5> 544 170<264.5 435.5>
LayerCount: 2
Fore
SplineSet
39 350 m 0
 39 559 158 712 377 712 c 0
 596 712 714 559 714 350 c 0
 714 141 596 -12 377 -12 c 0
 158 -12 39 141 39 350 c 0
209 350 m 0
 209 179 261 53 386 53 c 0
 501 53 544 179 544 350 c 0
 544 521 497 647 369 647 c 0
 245 647 209 521 209 350 c 0
EndSplineSet
Validated: 1
EndChar

StartChar: P
Encoding: 80 80 50
Width: 640
GlyphClass: 2
Flags: MW
HStem: 0 21G<20 353 20 20> 264 65<325.5 343.5 300.5 404.5> 643 65<303.5 348.5> 680 20G<20 146 146 172.5>
VStem: 102 150<67 267 67 333 333 633 633 633> 448 165<431 540.5>
LayerCount: 2
Fore
SplineSet
252 267 m 1xec
 252 67 l 1
 288 62 325 51 353 38 c 1
 353 0 l 1
 20 0 l 1
 20 38 l 1
 45 53 75 62 102 67 c 1
 102 633 l 1
 71 638 43 649 20 662 c 1
 20 700 l 1
 146 700 l 2xdc
 199 700 275 708 332 708 c 0
 473 708 613 657 613 492 c 0
 613 335 477 264 332 264 c 0
 319 264 266 264 252 267 c 1xec
306 643 m 0xec
 279 643 267 641 252 637 c 1
 252 333 l 1
 264 329 293 329 308 329 c 0
 379 329 448 375 448 487 c 0
 448 594 391 643 306 643 c 0xec
EndSplineSet
Validated: 1
EndChar

StartChar: Q
Encoding: 81 81 51
Width: 754
GlyphClass: 2
Flags: MW
HStem: -210 21G<531.5 629> -12 65<323.5 443.5 323.5 486.5> 647 65<307 433>
VStem: 39 170<264.5 435.5 264.5 454.5> 544 170<264.5 435.5>
LayerCount: 2
Fore
SplineSet
764 -87 m 1
 774 -112 l 1
 726 -163 665 -210 593 -210 c 0
 470 -210 349 -107 177 -86 c 1
 202 -42 l 1
 395 -6 561 -155 764 -87 c 1
39 350 m 0
 39 559 158 712 377 712 c 0
 596 712 714 559 714 350 c 0
 714 141 596 -12 377 -12 c 0
 158 -12 39 141 39 350 c 0
209 350 m 0
 209 179 261 53 386 53 c 0
 501 53 544 179 544 350 c 0
 544 521 497 647 369 647 c 0
 245 647 209 521 209 350 c 0
EndSplineSet
Validated: 33
EndChar

StartChar: R
Encoding: 82 82 52
Width: 697
GlyphClass: 2
Flags: MW
HStem: 0 21G<20 328 20 20 520 520 520 687> 303 55<252 311 252 311 311 333> 643 65<302 339.5> 680 20G<20 126 126 152.5>
VStem: 102 150<67 303 67 358 358 633 633 633> 434 156<460 552.5>
LayerCount: 2
Fore
SplineSet
252 303 m 1xec
 252 67 l 1
 283 60 305 49 328 38 c 1
 328 0 l 1
 20 0 l 1
 20 38 l 1
 49 54 75 62 102 67 c 1
 102 633 l 1
 69 640 41 650 20 662 c 1
 20 700 l 1
 126 700 l 2xdc
 179 700 266 708 338 708 c 0
 486 708 590 641 590 508 c 0
 590 412 540 352 459 321 c 1
 512 237 572 147 639 66 c 1
 687 34 l 1
 687 0 l 1
 520 0 l 1
 477 33 l 1
 416 106 369 210 333 303 c 1
 252 303 l 1xec
302 643 m 0xec
 281 643 265 641 252 637 c 1
 252 358 l 1
 311 358 l 2
 379 358 434 407 434 503 c 0
 434 602 377 643 302 643 c 0xec
EndSplineSet
Validated: 1
EndChar

StartChar: S
Encoding: 83 83 53
Width: 558
GlyphClass: 2
Flags: MW
HStem: -12 65<219 277.5 219 340.5> 647 65<266 310.5>
VStem: 49 145<485 586.5> 369 150<130.5 234.5>
LayerCount: 2
Fore
SplineSet
116 230 m 1
 157 83 l 1
 172 68 197 53 241 53 c 0
 314 53 369 93 369 161 c 0
 369 308 49 293 49 521 c 0
 49 652 151 712 284 712 c 0
 365 712 436 701 492 677 c 1
 489 622 476 534 465 494 c 1
 424 494 l 1
 378 631 l 1
 362 639 327 647 294 647 c 0
 238 647 194 617 194 561 c 0
 194 409 519 416 519 197 c 0
 519 64 428 -12 253 -12 c 0
 169 -12 71 12 42 35 c 1
 45 95 62 183 75 230 c 1
 116 230 l 1
EndSplineSet
Validated: 1
EndChar

StartChar: T
Encoding: 84 84 54
Width: 667
GlyphClass: 2
Flags: MW
HStem: 0 21G<161 505 161 161> 464 236<37 78 37 37 588 588 588 630> 635 65<142 258 142 142 408 408 408 524>
VStem: 258 150<67 635 67 635>
LayerCount: 2
Fore
SplineSet
505 38 m 1xb0
 505 0 l 1
 161 0 l 1
 161 38 l 1
 188 49 223 62 258 67 c 1
 258 635 l 1
 142 635 l 1xb0
 78 464 l 1
 37 464 l 1
 26 518 15 638 15 700 c 1
 652 700 l 1
 652 636 641 520 630 464 c 1
 588 464 l 1xd0
 524 635 l 1
 408 635 l 1
 408 67 l 1
 443 60 478 51 505 38 c 1xb0
EndSplineSet
Validated: 1
EndChar

StartChar: U
Encoding: 85 85 55
Width: 715
GlyphClass: 2
Flags: MW
HStem: -9 83<349.5 443 349.5 451> 680 20G<7 315 315 315 462 710 710 710>
VStem: 89 150<243 248 248 633> 550 77<253 628>
LayerCount: 2
Fore
SplineSet
7 662 m 1
 7 700 l 1
 315 700 l 1
 315 662 l 1
 293 648 268 638 239 633 c 1
 239 248 l 2
 239 118 300 74 399 74 c 0
 487 74 550 121 550 253 c 2
 550 628 l 1
 519 635 483 647 462 662 c 1
 462 700 l 1
 710 700 l 1
 710 662 l 1
 686 645 655 635 627 628 c 1
 627 252 l 2
 627 81 533 -9 369 -9 c 0
 190 -9 89 67 89 243 c 2
 89 633 l 1
 62 637 31 647 7 662 c 1
EndSplineSet
Validated: 1
EndChar

StartChar: V
Encoding: 86 86 56
Width: 734
GlyphClass: 2
Flags: MW
HStem: -12 21G<333 333> 680 20G<0 333 333 333 480 734 734 734>
LayerCount: 2
Fore
SplineSet
438 241 m 1
 564 633 l 1
 532 640 503 651 480 662 c 1
 480 700 l 1
 734 700 l 1
 734 662 l 1
 718 651 690 640 662 633 c 1
 432 0 l 1
 333 -12 l 1
 75 633 l 1
 48 640 20 650 0 662 c 1
 0 700 l 1
 333 700 l 1
 333 662 l 1
 310 651 282 640 251 633 c 1
 391 239 l 1
 414 145 l 1
 416 145 l 1
 438 241 l 1
EndSplineSet
Validated: 1
EndChar

StartChar: W
Encoding: 87 87 57
Width: 1033
GlyphClass: 2
Flags: MW
HStem: -12 21G<268 268 679 679> 680 20G<0 324 324 324 525 584 584 584 781 1033 1033 1033>
LayerCount: 2
Fore
SplineSet
785 292 m 1
 865 633 l 1
 838 637 810 647 781 662 c 1
 781 700 l 1
 1033 700 l 1
 1033 662 l 1
 1010 647 984 638 960 633 c 1
 783 0 l 1
 679 -12 l 1
 524 472 l 1
 373 0 l 1
 268 -12 l 1
 73 633 l 1
 45 638 21 649 0 662 c 1
 0 700 l 1
 324 700 l 1
 324 662 l 1
 301 650 272 640 241 633 c 1
 334 280 l 1
 355 150 l 1
 357 150 l 1
 392 285 l 1
 525 700 l 1
 584 700 l 1
 726 290 l 1
 760 160 l 1
 762 160 l 1
 785 292 l 1
EndSplineSet
Validated: 1
EndChar

StartChar: X
Encoding: 88 88 58
Width: 728
GlyphClass: 2
Flags: MW
HStem: 0 21G<12 268 12 12 397 721 397 397> 680 20G<24 341 341 341 435 683 683 683>
LayerCount: 2
Fore
SplineSet
435 662 m 1
 435 700 l 1
 683 700 l 1
 683 662 l 1
 663 651 642 640 615 633 c 1
 437 372 l 1
 644 67 l 1
 675 60 698 50 721 38 c 1
 721 0 l 1
 397 0 l 1
 397 38 l 1
 418 50 441 60 468 67 c 1
 326 287 l 1
 194 66 l 1
 222 62 245 53 268 38 c 1
 268 0 l 1
 12 0 l 1
 12 38 l 1
 34 51 57 61 80 67 c 1
 281 352 l 1
 93 633 l 1
 68 640 45 651 24 662 c 1
 24 700 l 1
 341 700 l 1
 341 662 l 1
 325 653 301 642 269 633 c 1
 391 432 l 1
 511 633 l 1
 484 638 456 651 435 662 c 1
EndSplineSet
Validated: 1
EndChar

StartChar: Y
Encoding: 89 89 59
Width: 698
GlyphClass: 2
Flags: MW
HStem: 0 21G<201 509 201 201> 680 20G<0 328 328 328 453 698 698 698>
VStem: 283 150<67 292 292 292>
LayerCount: 2
Fore
SplineSet
453 662 m 1
 453 700 l 1
 698 700 l 1
 698 662 l 1
 678 650 652 637 627 633 c 1
 433 293 l 1
 433 67 l 1
 460 64 486 51 509 38 c 1
 509 0 l 1
 201 0 l 1
 201 38 l 1
 224 50 252 62 283 67 c 1
 283 292 l 1
 81 633 l 1
 50 638 23 650 0 662 c 1
 0 700 l 1
 328 700 l 1
 328 662 l 1
 309 651 286 640 254 633 c 1
 397 365 l 1
 533 633 l 1
 502 640 473 651 453 662 c 1
EndSplineSet
Validated: 1
EndChar

StartChar: Z
Encoding: 90 90 60
Width: 634
GlyphClass: 2
Flags: MW
HStem: 0 65<201 475 35 35> 635 65<175 423 175 175 53 587>
LayerCount: 2
Fore
SplineSet
475 65 m 1
 537 211 l 1
 579 211 l 1
 590 155 599 64 599 0 c 1
 35 0 l 1
 35 65 l 1
 423 635 l 1
 175 635 l 1
 116 492 l 1
 74 492 l 1
 60 552 53 647 53 700 c 1
 587 700 l 1
 587 635 l 1
 201 65 l 1
 475 65 l 1
EndSplineSet
Validated: 1
EndChar

StartChar: bracketleft
Encoding: 91 91 61
Width: 324
GlyphClass: 2
Flags: MW
HStem: -230 55<202 306 202 306> 645 55<202 306 202 202>
VStem: 72 130<-175 645 -175 700 -175 700> 72 234<-230 -175 645 700>
LayerCount: 2
Fore
SplineSet
72 -230 m 1xd0
 72 700 l 1
 306 700 l 1
 306 645 l 1xd0
 202 645 l 1
 202 -175 l 1xe0
 306 -175 l 1
 306 -230 l 1
 72 -230 l 1xd0
EndSplineSet
Validated: 1
EndChar

StartChar: backslash
Encoding: 92 92 62
Width: 382
GlyphClass: 2
Flags: MW
HStem: -134 21G<359 359> 695 20G<2 2>
LayerCount: 2
Fore
SplineSet
2 715 m 1
 416 -104 l 1
 359 -134 l 1
 -56 686 l 1
 2 715 l 1
EndSplineSet
Validated: 1
EndChar

StartChar: bracketright
Encoding: 93 93 63
Width: 324
GlyphClass: 2
Flags: MW
HStem: -230 55<18 122 18 252 18 122> 645 55<18 122 18 252>
VStem: 18 234<-230 -175 -175 -175 645 700 -230 700> 122 130<-175 645 645 645>
LayerCount: 2
Fore
SplineSet
252 700 m 1xe0
 252 -230 l 1
 18 -230 l 1
 18 -175 l 1xe0
 122 -175 l 1
 122 645 l 1xd0
 18 645 l 1
 18 700 l 1
 252 700 l 1xe0
EndSplineSet
Validated: 1
EndChar

StartChar: asciicircum
Encoding: 94 94 64
Width: 498
GlyphClass: 2
Flags: MW
HStem: 434 21G<43 43 43 113 325 325 325 445> 691 20G<229 275 275 275>
LayerCount: 2
Fore
SplineSet
43 434 m 1
 229 711 l 1
 275 711 l 1
 445 434 l 1
 325 434 l 1
 246 569 l 1
 228 622 l 1
 203 568 l 1
 113 434 l 1
 43 434 l 1
EndSplineSet
Validated: 1
EndChar

StartChar: underscore
Encoding: 95 95 65
Width: 410
GlyphClass: 2
Flags: MW
HStem: -196 80<0 410 0 410>
LayerCount: 2
Fore
SplineSet
0 -196 m 1
 0 -116 l 1
 410 -116 l 1
 410 -196 l 1
 0 -196 l 1
EndSplineSet
Validated: 1
EndChar

StartChar: grave
Encoding: 96 96 66
Width: 351
GlyphClass: 2
Flags: MW
HStem: 567 21G<246 246>
LayerCount: 2
Fore
SplineSet
198 763 m 1
 291 589 l 1
 246 567 l 1
 60 712 l 1
 60 741 l 1
 78 759 179 768 198 763 c 1
EndSplineSet
Validated: 33
EndChar

StartChar: a
Encoding: 97 97 67
Width: 557
GlyphClass: 2
Flags: MW
HStem: -12 80<138.5 273.5> -10 21G<349 383 349 349> 242 47<331 331> 455 57<248.5 292.5>
VStem: 27 150<122.5 181.5 122.5 186.5> 331 144<142 397 242 397>
LayerCount: 2
Fore
SplineSet
470 145 m 0xbc
 470 116 470 97 473 73 c 1
 542 63 l 1
 542 28 l 1
 509 11 427 -5 383 -10 c 1
 349 -10 l 1x7c
 336 21 335 48 334 92 c 1
 329 92 l 1
 316 40 265 -12 182 -12 c 0
 95 -12 27 43 27 127 c 0
 27 246 113 278 331 289 c 1
 342 404 326 455 259 455 c 0
 238 455 219 452 202 445 c 1
 155 325 l 1
 111 325 l 1
 90 357 69 411 64 456 c 1
 115 491 200 512 289 512 c 0
 440 512 475 441 475 353 c 0
 475 273 470 213 470 145 c 0xbc
245 68 m 0xbc
 302 68 323 115 331 142 c 1
 331 242 l 1
 206 239 177 215 177 148 c 0
 177 97 202 68 245 68 c 0xbc
EndSplineSet
Validated: 33
EndChar

StartChar: b
Encoding: 98 98 68
Width: 588
GlyphClass: 2
Flags: MW
HStem: -9 57<274.5 330 274.5 365.5> 432 80<333.5 341.5> 732 20G<177 211 211 211>
VStem: 67 144<70 335 406 669 669 669> 402 155<186.5 311.5>
LayerCount: 2
Fore
SplineSet
67 29 m 1
 67 669 l 1
 -9 677 l 1
 -9 716 l 1
 32 732 129 747 177 752 c 1
 211 752 l 1
 211 406 l 1
 213 406 l 1
 240 473 296 512 371 512 c 0
 488 512 557 431 557 266 c 0
 557 83 459 -9 272 -9 c 0
 206 -9 97 10 67 29 c 1
306 432 m 0
 255 432 226 391 211 335 c 1
 211 70 l 1
 230 57 257 48 292 48 c 0
 368 48 402 114 402 259 c 0
 402 364 377 432 306 432 c 0
EndSplineSet
Validated: 1
EndChar

StartChar: c
Encoding: 99 99 69
Width: 484
GlyphClass: 2
Flags: MW
HStem: -12 80<284.5 325.5> 455 57<256 300.5>
VStem: 31 155<204 333 204 334.5>
LayerCount: 2
Fore
SplineSet
440 102 m 1
 456 81 l 1
 438 29 367 -12 284 -12 c 0
 109 -12 31 92 31 250 c 0
 31 419 127 512 298 512 c 0
 363 512 420 496 456 477 c 1
 451 432 437 362 420 326 c 1
 371 326 l 1
 329 445 l 1
 320 452 311 455 290 455 c 0
 222 455 186 408 186 258 c 0
 186 150 234 68 335 68 c 0
 382 68 416 83 440 102 c 1
EndSplineSet
Validated: 1
EndChar

StartChar: d
Encoding: 100 100 70
Width: 599
GlyphClass: 2
Flags: MW
HStem: -12 80<247 267> -10 21G<385 419 385 385> 452 57<255.5 304 205.5 313.5> 732 20G<485 519 519 519>
VStem: 31 155<193 313.5 193 329.5> 375 144<165 434 434 434 493 669 669 669>
LayerCount: 2
Fore
SplineSet
376 99 m 1x7c
 372 99 l 1
 359 40 301 -12 233 -12 c 0xbc
 101 -12 31 70 31 242 c 0
 31 417 131 509 280 509 c 0
 328 509 343 504 375 493 c 1
 375 669 l 1
 299 677 l 1
 299 716 l 1
 336 732 440 744 485 752 c 1
 519 752 l 1
 519 71 l 1
 585 63 l 1
 585 28 l 1
 548 9 459 -5 419 -10 c 1
 385 -10 l 1
 376 99 l 1x7c
281 68 m 0
 328 68 360 94 375 165 c 1
 375 434 l 1
 358 445 333 452 294 452 c 0
 217 452 186 380 186 247 c 0
 186 139 213 68 281 68 c 0
EndSplineSet
Validated: 1
EndChar

StartChar: e
Encoding: 101 101 71
Width: 537
GlyphClass: 2
Flags: MW
HStem: -12 80<291.5 338.5> 241 52<189 350 189 493 186 350> 455 57<253.5 310>
VStem: 31 155<241 241 241 335.5>
LayerCount: 2
Fore
SplineSet
467 104 m 1
 486 84 l 1
 464 38 391 -12 286 -12 c 0
 120 -12 31 91 31 250 c 0
 31 421 125 512 284 512 c 0
 422 512 528 442 493 241 c 1
 186 241 l 1
 187 136 240 68 343 68 c 0
 387 68 440 83 467 104 c 1
280 455 m 0
 227 455 197 422 189 293 c 1
 350 293 l 1
 359 397 340 455 280 455 c 0
EndSplineSet
Validated: 33
EndChar

StartChar: f
Encoding: 102 102 72
Width: 372
GlyphClass: 2
Flags: MW
HStem: 0 21G<33 339 33 33> 437 63<243 349 243 349> 699 53<301 335>
VStem: 99 144<63 437 63 437 509 544 544 550 63 627>
LayerCount: 2
Fore
SplineSet
321 752 m 0
 376 752 421 739 444 730 c 1
 440 686 424 635 413 604 c 1
 379 604 l 1
 335 699 l 1
 267 699 243 676 243 550 c 2
 243 500 l 1
 349 500 l 1
 349 437 l 1
 243 437 l 1
 243 63 l 1
 278 59 310 51 339 39 c 1
 339 0 l 1
 33 0 l 1
 33 39 l 1
 54 51 76 59 99 63 c 1
 99 437 l 1
 23 437 l 1
 23 476 l 1
 46 491 72 502 99 509 c 1
 99 544 l 2
 99 710 198 752 321 752 c 0
EndSplineSet
Validated: 1
EndChar

StartChar: g
Encoding: 103 103 73
Width: 564
GlyphClass: 2
Flags: MW
HStem: -212 57<242 317.5 242 334.5> 185 57<252.5 296.5 230 342> 455 57<230.5 296> 516 20G
VStem: 16 144<-88.5 -47> 34 144<313.5 384.5 313.5 403> 84 113<123 130.5> 350 144<314 367.5 303.5 384> 390 139
LayerCount: 2
Fore
SplineSet
264 512 m 0xf5
 351 512 408 492 437 465 c 1
 468 499 504 523 545 536 c 1
 564 522 582 481 582 461 c 1
 569 437 l 1
 464 437 l 1
 479 418 494 388 494 347 c 0
 494 260 420 185 264 185 c 0
 241 185 223 185 210 188 c 1
 205 180 197 168 197 157 c 0xf3
 197 89 525 124 529 -44 c 0
 532 -150 409 -212 260 -212 c 0
 84 -212 16 -151 16 -84 c 0xf880
 16 -10 79 21 163 42 c 1
 124 52 84 73 84 113 c 0xf3
 84 148 132 179 171 195 c 1
 87 214 34 269 34 353 c 0
 34 453 123 512 264 512 c 0xf5
390 -76 m 0xf880
 390 -3 293 3 208 30 c 1
 173 3 160 -21 160 -58 c 0
 160 -119 204 -155 280 -155 c 0
 355 -155 390 -119 390 -76 c 0xf880
178 348 m 0xf5
 178 279 196 242 264 242 c 0
 329 242 350 280 350 348 c 0
 350 420 328 455 264 455 c 0
 197 455 178 421 178 348 c 0xf5
EndSplineSet
Validated: 33
EndChar

StartChar: h
Encoding: 104 104 74
Width: 640
GlyphClass: 2
Flags: MW
HStem: 0 21G<19 284 19 19 363 628 363 363> 432 80<358.5 369> 732 20G<195 229 229 229>
VStem: 9 220<677 716 716 716> 85 144<63 341 63 399 399 669 669 669> 418 144<63 265 265 302 63 322.5>
LayerCount: 2
Fore
SplineSet
628 39 m 1xf4
 628 0 l 1
 363 0 l 1
 363 39 l 1
 379 48 395 56 418 63 c 1
 418 265 l 2
 418 380 401 432 337 432 c 0
 284 432 245 389 229 341 c 1
 229 63 l 1
 250 58 265 52 284 39 c 1
 284 0 l 1
 19 0 l 1
 19 39 l 1
 40 50 62 58 85 63 c 1
 85 669 l 1xec
 9 677 l 1
 9 716 l 1
 50 732 141 747 195 752 c 1
 229 752 l 1
 229 399 l 1
 230 399 l 1
 257 460 322 512 395 512 c 0
 503 512 562 467 562 302 c 2
 562 63 l 1
 585 58 608 52 628 39 c 1xf4
EndSplineSet
Validated: 1
EndChar

StartChar: i
Encoding: 105 105 75
Width: 332
GlyphClass: 2
Flags: MW
HStem: 0 21G<31 307 31 31> 492 20G<207 241 241 241> 590 149<140.5 191.5>
VStem: 31 210<0 512 39 512 437 476 476 476> 80 161<63 687.5> 97 144<63 429 429 429>
LayerCount: 2
Fore
SplineSet
307 39 m 1xf0
 307 0 l 1
 31 0 l 1
 31 39 l 1xf0
 51 50 72 56 97 63 c 1
 97 429 l 1xe4
 31 437 l 1
 31 476 l 1
 71 492 159 507 207 512 c 1
 241 512 l 1
 241 63 l 1
 268 56 288 50 307 39 c 1xf0
80 664 m 0xe8
 80 711 115 739 166 739 c 0
 217 739 252 711 252 664 c 0
 252 619 217 590 166 590 c 0
 115 590 80 619 80 664 c 0xe8
EndSplineSet
Validated: 1
EndChar

StartChar: j
Encoding: 106 106 76
Width: 320
GlyphClass: 2
Flags: MW
HStem: -212 21G<47 47> 492 20G<207 241 241 241> 590 149<140.5 191.5>
VStem: 80 161 97 144<24 43 43 429 429 429>
LayerCount: 2
Fore
SplineSet
97 24 m 2xf0
 97 429 l 1xe8
 31 437 l 1
 31 476 l 1
 71 494 158 507 207 512 c 1
 241 512 l 1
 241 43 l 2
 241 -147 86 -200 47 -212 c 1
 27 -182 l 1
 58 -166 97 -114 97 24 c 2xf0
80 664 m 0xf0
 80 711 115 739 166 739 c 0
 217 739 252 711 252 664 c 0
 252 619 217 590 166 590 c 0
 115 590 80 619 80 664 c 0xf0
EndSplineSet
Validated: 1
EndChar

StartChar: k
Encoding: 107 107 77
Width: 583
GlyphClass: 2
Flags: MW
HStem: 0 21G<19 290 19 19 414 583 414 414> 480 20G<322 556 556 556> 732 20G<195 229 229 229>
VStem: 9 220<677 716 716 716> 85 144<63 239 63 283 283 669 669 669>
LayerCount: 2
Fore
SplineSet
322 461 m 1xf0
 322 500 l 1
 556 500 l 1
 556 461 l 1
 531 450 511 442 484 437 c 1
 444 384 388 330 354 296 c 1
 394 243 463 140 532 63 c 1
 583 39 l 1
 583 0 l 1
 414 0 l 1
 387 24 l 1
 326 106 297 167 262 229 c 1
 229 239 l 1
 229 63 l 1
 252 59 269 51 290 39 c 1
 290 0 l 1
 19 0 l 1
 19 39 l 1
 41 50 63 58 85 63 c 1
 85 669 l 1xe8
 9 677 l 1
 9 716 l 1
 47 732 147 747 195 752 c 1
 229 752 l 1
 229 283 l 1
 255 283 l 1
 299 330 338 390 367 437 c 1
 350 442 337 450 322 461 c 1xf0
EndSplineSet
Validated: 1
EndChar

StartChar: l
Encoding: 108 108 78
Width: 332
GlyphClass: 2
Flags: MW
HStem: 0 21G<31 307 31 31> 732 20G<207 241 241 241>
VStem: 21 220<677 716 716 716> 97 144<63 669 669 669>
LayerCount: 2
Fore
SplineSet
307 39 m 1xe0
 307 0 l 1
 31 0 l 1
 31 39 l 1
 53 50 75 58 97 63 c 1
 97 669 l 1xd0
 21 677 l 1
 21 716 l 1
 57 732 151 747 207 752 c 1
 241 752 l 1
 241 63 l 1
 263 58 285 50 307 39 c 1xe0
EndSplineSet
Validated: 1
EndChar

StartChar: m
Encoding: 109 109 79
Width: 924
GlyphClass: 2
Flags: MW
HStem: 0 21G<23 283 23 23 344 594 344 344 652 652 652 912> 432 80<350 353 653 657>
VStem: 23 210<0 343 39 343 437 476 476 476> 89 144<63 343 63 399 399 429 429 429> 394 144<63 262 262 323> 702 144<63 280 280 300 63 332>
LayerCount: 2
Fore
SplineSet
594 39 m 1xec
 594 0 l 1
 344 0 l 1
 344 39 l 1
 357 47 374 56 394 63 c 1
 394 262 l 2
 394 384 383 432 323 432 c 0
 280 432 248 396 233 343 c 1
 233 63 l 1
 251 58 268 50 283 39 c 1
 283 0 l 1
 23 0 l 1
 23 39 l 1xec
 42 48 65 56 89 63 c 1
 89 429 l 1xdc
 23 437 l 1
 23 476 l 1
 66 495 156 507 199 512 c 1
 233 512 l 1
 233 399 l 1
 234 399 l 1
 255 462 312 512 388 512 c 0
 452 512 515 490 531 389 c 1
 555 462 613 512 693 512 c 0
 792 512 846 468 846 300 c 2
 846 63 l 1
 869 59 891 51 912 39 c 1
 912 0 l 1
 652 0 l 1
 652 39 l 1
 667 49 684 57 702 63 c 1
 702 280 l 2
 702 384 689 432 625 432 c 0
 577 432 551 393 538 333 c 1
 538 63 l 1
 561 56 578 48 594 39 c 1xec
EndSplineSet
Validated: 1
EndChar

StartChar: n
Encoding: 110 110 80
Width: 644
GlyphClass: 2
Flags: MW
HStem: 0 21G<23 288 23 23 367 632 367 367> 432 80<359 370.5>
VStem: 23 210<0 341 39 341 437 476 476 476> 89 144<63 341 63 409 409 429 429 429> 422 144<63 298 298 302 63 340>
LayerCount: 2
Fore
SplineSet
632 39 m 1xe8
 632 0 l 1
 367 0 l 1
 367 39 l 1
 384 48 399 55 422 63 c 1
 422 298 l 2
 422 382 401 432 340 432 c 0
 289 432 252 397 233 341 c 1
 233 63 l 1
 254 58 269 51 288 39 c 1
 288 0 l 1
 23 0 l 1
 23 39 l 1xe8
 40 48 62 56 89 63 c 1
 89 429 l 1xd8
 23 437 l 1
 23 476 l 1
 57 492 142 507 199 512 c 1
 233 512 l 1
 233 409 l 1
 234 409 l 1
 262 465 319 512 399 512 c 0
 503 512 566 467 566 302 c 2
 566 63 l 1
 593 58 615 50 632 39 c 1xe8
EndSplineSet
Validated: 1
EndChar

StartChar: o
Encoding: 111 111 81
Width: 594
GlyphClass: 2
Flags: MW
HStem: -12 61<261 341 261 380> 451 61<255 335.5>
VStem: 31 155<189.5 324.5 189.5 331.5> 408 155<175.5 311>
LayerCount: 2
Fore
SplineSet
31 250 m 0
 31 413 133 512 297 512 c 0
 485 512 563 403 563 250 c 0
 563 87 463 -12 297 -12 c 0
 116 -12 31 97 31 250 c 0
186 250 m 0
 186 129 211 49 311 49 c 0
 371 49 408 101 408 250 c 0
 408 372 382 451 289 451 c 0
 221 451 186 399 186 250 c 0
EndSplineSet
Validated: 1
EndChar

StartChar: p
Encoding: 112 112 82
Width: 609
GlyphClass: 2
Flags: MW
HStem: -200 245<292.5 297> -12 57<303.5 350 292.5 404> 432 80<343.5 364.5>
VStem: 21 210<-200 8 -161 8 437 476 476 476> 87 144<-137 8 -137 68 68 334 400 429 429 429> 423 155<190.5 315.5>
LayerCount: 2
Fore
SplineSet
297 -161 m 1x74
 297 -200 l 1
 21 -200 l 1
 21 -161 l 1xb4
 44 -150 66 -142 87 -137 c 1
 87 429 l 1xac
 21 437 l 1
 21 476 l 1
 64 495 154 507 197 512 c 1
 231 512 l 1
 231 400 l 1
 232 400 l 1
 255 464 300 512 387 512 c 0
 504 512 578 437 578 261 c 0
 578 92 482 -12 326 -12 c 0
 281 -12 260 -7 231 8 c 1
 231 -137 l 1
 252 -140 273 -146 297 -161 c 1x74
329 432 m 0
 284 432 246 401 231 334 c 1
 231 68 l 1
 252 52 273 45 312 45 c 0
 388 45 423 120 423 261 c 0
 423 370 400 432 329 432 c 0
EndSplineSet
Validated: 1
EndChar

StartChar: q
Encoding: 113 113 83
Width: 589
GlyphClass: 2
Flags: MW
HStem: -200 21G<305 581 305 305> -12 80<238.5 260> 452 57<254.5 308.5>
VStem: 31 155<191 323 191 328.5> 371 144<-137 89 89 89 164 438 438 438>
LayerCount: 2
Fore
SplineSet
371 89 m 1
 367 89 l 1
 349 36 298 -12 222 -12 c 0
 101 -12 31 70 31 237 c 0
 31 420 133 509 313 509 c 0
 388 509 485 491 515 478 c 1
 515 -137 l 1
 537 -141 559 -149 581 -161 c 1
 581 -200 l 1
 305 -200 l 1
 305 -161 l 1
 326 -150 348 -142 371 -137 c 1
 371 89 l 1
272 68 m 0
 322 68 355 100 371 164 c 1
 371 438 l 1
 348 445 324 452 293 452 c 0
 216 452 186 397 186 249 c 0
 186 133 205 68 272 68 c 0
EndSplineSet
Validated: 1
EndChar

StartChar: r
Encoding: 114 114 84
Width: 431
GlyphClass: 2
Flags: MW
HStem: 0 21G<23 313 23 23> 385 127<199 427 199 290>
VStem: 23 210<0 319 39 319 437 476 476 476> 89 144<63 319 63 379 379 429 429 429>
LayerCount: 2
Fore
SplineSet
427 385 m 1xe0
 290 385 l 1
 274 377 250 362 233 319 c 1
 233 63 l 1
 260 60 286 54 313 39 c 1
 313 0 l 1
 23 0 l 1
 23 39 l 1xe0
 47 52 68 58 89 63 c 1
 89 429 l 1xd0
 23 437 l 1
 23 476 l 1
 66 495 156 507 199 512 c 1
 233 512 l 1
 233 379 l 1
 237 379 l 1
 259 438 323 515 395 512 c 1
 410 493 420 455 427 424 c 1
 427 385 l 1xe0
EndSplineSet
Validated: 33
EndChar

StartChar: s
Encoding: 115 115 85
Width: 452
GlyphClass: 2
Flags: MW
HStem: -12 57<203 230.5 203 278.5> 455 57<214 244.5>
VStem: 39 134<347.5 412.5 347.5 420> 288 134<90 162>
LayerCount: 2
Fore
SplineSet
288 109 m 0
 288 215 39 212 39 380 c 0
 39 460 117 512 221 512 c 0
 293 512 356 500 403 480 c 1
 398 437 379 385 364 345 c 1
 330 345 l 1
 288 447 l 1
 272 454 255 455 234 455 c 0
 194 455 173 427 173 398 c 0
 173 297 422 293 422 136 c 0
 422 44 341 -12 216 -12 c 0
 152 -12 78 2 29 26 c 1
 32 74 55 126 78 165 c 1
 112 165 l 1
 161 56 l 1
 176 45 195 45 211 45 c 0
 250 45 288 69 288 109 c 0
EndSplineSet
Validated: 1
EndChar

StartChar: t
Encoding: 116 116 86
Width: 399
GlyphClass: 2
Flags: MW
HStem: -12 80<173.5 311> 437 63<232 364 232 364> 607 20G<198 232 232 232>
VStem: 88 144<136.5 178 178 437 510 591 591 591>
LayerCount: 2
Fore
SplineSet
8 437 m 1
 8 476 l 1
 33 492 60 503 88 510 c 1
 88 591 l 1
 104 607 172 622 198 627 c 1
 232 627 l 1
 232 500 l 1
 364 500 l 1
 364 437 l 1
 232 437 l 1
 232 178 l 2
 232 95 251 68 299 68 c 0
 323 68 356 71 381 80 c 1
 388 47 l 1
 364 23 292 -12 217 -12 c 0
 130 -12 88 31 88 132 c 2
 88 437 l 1
 8 437 l 1
EndSplineSet
Validated: 1
EndChar

StartChar: u
Encoding: 117 117 87
Width: 622
GlyphClass: 2
Flags: MW
HStem: -12 80<263 278> -10 21G<405 439 405 405> 492 20G<187 221 221 221 504 538 538 538>
VStem: 71 144<167.5 240> 394 144<109 109 167 429 429 429>
LayerCount: 2
Fore
SplineSet
71 198 m 0xb8
 71 282 77 349 77 429 c 1
 11 437 l 1
 11 476 l 1
 54 492 144 507 187 512 c 1
 221 512 l 1
 221 412 215 315 215 222 c 0
 215 113 233 68 293 68 c 0xb8
 334 68 371 98 394 167 c 1
 394 429 l 1
 329 437 l 1
 329 476 l 1
 370 492 455 507 504 512 c 1
 538 512 l 1
 538 71 l 1
 604 63 l 1
 604 28 l 1
 566 12 486 -5 439 -10 c 1
 405 -10 l 1x78
 398 109 l 1
 394 109 l 1
 381 53 324 -12 232 -12 c 0
 132 -12 71 33 71 198 c 0xb8
EndSplineSet
Validated: 1
EndChar

StartChar: v
Encoding: 118 118 88
Width: 539
GlyphClass: 2
Flags: MW
HStem: -12 21G<243 243> 480 20G<-10 253 253 253 356 549 549 549>
LayerCount: 2
Fore
SplineSet
317 0 m 1
 243 -12 l 1
 43 437 l 1
 24 444 6 452 -10 461 c 1
 -10 500 l 1
 253 500 l 1
 253 462 l 1
 236 453 219 444 196 437 c 1
 289 181 l 1
 308 114 l 1
 310 114 l 1
 326 182 l 1
 411 437 l 1
 390 442 372 450 356 461 c 1
 356 500 l 1
 549 500 l 1
 549 461 l 1
 536 452 516 444 492 437 c 1
 317 0 l 1
EndSplineSet
Validated: 1
EndChar

StartChar: w
Encoding: 119 119 89
Width: 784
GlyphClass: 2
Flags: MW
HStem: -12 21G<200 200 504 504> 480 20G<-10 243 243 243 443 443 601 794 794 794>
LayerCount: 2
Fore
SplineSet
293 0 m 1
 200 -12 l 1
 43 437 l 1
 24 444 6 450 -10 461 c 1
 -10 500 l 1
 243 500 l 1
 243 462 l 1
 224 451 206 442 186 437 c 1
 255 181 l 1
 268 104 l 1
 270 104 l 1
 288 184 l 1
 394 494 l 1
 443 500 l 1
 557 183 l 1
 578 104 l 1
 580 104 l 1
 596 182 l 1
 656 437 l 1
 641 440 621 448 601 461 c 1
 601 500 l 1
 794 500 l 1
 794 461 l 1
 780 452 761 444 737 437 c 1
 598 0 l 1
 504 -12 l 1
 418 235 l 1
 399 318 l 1
 396 318 l 1
 373 235 l 1
 293 0 l 1
EndSplineSet
Validated: 1
EndChar

StartChar: x
Encoding: 120 120 90
Width: 560
GlyphClass: 2
Flags: MW
HStem: 0 21G<10 199 10 10 295 550 295 295> 480 20G<16 267 267 267 347 532 532 532>
LayerCount: 2
Fore
SplineSet
480 437 m 1
 343 268 l 1
 501 63 l 1
 518 58 535 50 550 39 c 1
 550 0 l 1
 295 0 l 1
 295 38 l 1
 310 49 325 58 341 63 c 1
 246 199 l 1
 154 63 l 1
 173 56 186 48 199 39 c 1
 199 0 l 1
 10 0 l 1
 10 39 l 1
 29 50 42 58 62 63 c 1
 210 247 l 1
 61 437 l 1
 42 444 28 450 16 461 c 1
 16 500 l 1
 267 500 l 1
 267 462 l 1
 251 451 241 442 222 437 c 1
 309 313 l 1
 392 437 l 1
 369 444 358 452 347 461 c 1
 347 500 l 1
 532 500 l 1
 532 461 l 1
 519 452 504 444 480 437 c 1
EndSplineSet
Validated: 1
EndChar

StartChar: y
Encoding: 121 121 91
Width: 528
GlyphClass: 2
Flags: MW
HStem: -215 21G 480 20G<-15 248 248 248 350 543 543 543>
LayerCount: 2
Fore
SplineSet
250 0 m 1
 38 437 l 1
 18 442 2 450 -15 461 c 1
 -15 500 l 1
 248 500 l 1
 248 462 l 1
 234 453 215 444 191 437 c 1
 292 186 l 1
 309 122 l 1
 311 122 l 1
 327 187 l 1
 405 437 l 1
 385 441 367 449 350 461 c 1
 350 500 l 1
 543 500 l 1
 543 461 l 1
 529 452 510 444 486 437 c 1
 323 0 l 2
 259 -171 195 -207 131 -215 c 1
 105 -192 87 -139 84 -102 c 1
 97 -78 l 1
 219 -78 l 1
 231 -59 238 -43 250 0 c 1
EndSplineSet
Validated: 1
EndChar

StartChar: z
Encoding: 122 122 92
Width: 516
GlyphClass: 2
Flags: MW
HStem: 0 57<192 365 192 478> 443 57<151 317 151 151>
LayerCount: 2
Fore
SplineSet
419 185 m 1
 453 185 l 1
 468 130 481 59 478 0 c 1
 32 0 l 1
 32 39 l 1
 317 443 l 1
 151 443 l 1
 107 325 l 1
 73 325 l 1
 58 382 48 452 48 500 c 1
 478 500 l 1
 478 461 l 1
 192 57 l 1
 365 57 l 1
 419 185 l 1
EndSplineSet
Validated: 33
EndChar

StartChar: braceleft
Encoding: 123 123 93
Width: 354
GlyphClass: 2
Flags: MW
HStem: -230 55<306 340 306 340> 211 48<43 68.5> 645 55<287 305 305 340>
VStem: 123 130<-125 -115 -115 102 102 105 364 365 365 585> 123 217<-230 102>
CounterMasks: 1 e0
LayerCount: 2
Fore
SplineSet
123 -125 m 2xe8
 123 102 l 2
 123 170 94 211 43 211 c 1
 43 259 l 1
 94 259 123 305 123 364 c 2
 123 594 l 2
 123 658 155 700 219 700 c 2
 340 700 l 1
 340 645 l 1xe8
 305 645 l 2
 269 645 253 628 253 585 c 2
 253 365 l 2
 253 277 190 245 143 240 c 1
 143 234 l 1
 189 229 253 191 253 105 c 2
 253 -115 l 2xf0
 253 -156 267 -175 306 -175 c 2
 340 -175 l 1
 340 -230 l 1
 219 -230 l 2
 159 -230 123 -194 123 -125 c 2xe8
EndSplineSet
Validated: 1
EndChar

StartChar: bar
Encoding: 124 124 94
Width: 235
GlyphClass: 2
Flags: MW
HStem: -130 21G<83 83 83 153> 680 20G<83 153 153 153>
VStem: 83 70<-130 700 -130 700>
LayerCount: 2
Fore
SplineSet
83 -130 m 1
 83 700 l 1
 153 700 l 1
 153 -130 l 1
 83 -130 l 1
EndSplineSet
Validated: 1
EndChar

StartChar: braceright
Encoding: 125 125 95
Width: 354
GlyphClass: 2
Flags: MW
HStem: -230 55<27 62 62 80 27 148 27 62> 212 48<298.5 324> 645 55<27 61 27 149>
VStem: 27 217<-230 -124 -175 -124> 114 130<-115 106 106 107 366 369 369 585 585 595>
LayerCount: 2
Fore
SplineSet
244 595 m 2xf0
 244 369 l 2
 244 301 273 260 324 260 c 1
 324 212 l 1
 273 212 244 166 244 107 c 2
 244 -124 l 2
 244 -188 212 -230 148 -230 c 2
 27 -230 l 1
 27 -175 l 1xf0
 62 -175 l 2
 98 -175 114 -158 114 -115 c 2
 114 106 l 2
 114 194 167 226 214 231 c 1
 214 237 l 1
 168 242 114 280 114 366 c 2
 114 585 l 2xe8
 114 626 100 645 61 645 c 2
 27 645 l 1
 27 700 l 1
 149 700 l 2
 209 700 244 664 244 595 c 2xf0
EndSplineSet
Validated: 1
EndChar

StartChar: asciitilde
Encoding: 126 126 96
Width: 530
GlyphClass: 2
Flags: MW
HStem: 272 91<347.5 380.5> 340 23 340 91<165.5 195.5>
LayerCount: 2
Fore
SplineSet
73 285 m 1x40
 46 312 l 1
 82 389 141 431 190 431 c 0x20
 258 431 314 363 381 363 c 0
 405 363 431 372 458 397 c 1
 481 367 l 1
 450 303 403 272 358 272 c 0x80
 289 272 228 340 163 340 c 0
 134 340 104 326 73 285 c 1x40
EndSplineSet
Validated: 1
EndChar

StartChar: exclamdown
Encoding: 161 161 98
Width: 344
GlyphClass: 2
Flags: MW
HStem: 353 159<123.5 174.5>
VStem: 63 159 78 144<-186 92 -186 92>
LayerCount: 2
Fore
SplineSet
128 286 m 1xa0
 172 286 l 1
 222 92 l 1
 222 -186 l 1
 195 -201 104 -202 78 -186 c 1
 78 92 l 1
 128 286 l 1xa0
233 433 m 0
 233 384 200 353 149 353 c 0
 98 353 63 384 63 433 c 0xc0
 63 481 98 512 149 512 c 0
 200 512 233 481 233 433 c 0
EndSplineSet
Validated: 33
EndChar

StartChar: cent
Encoding: 162 162 99
Width: 565
GlyphClass: 2
Flags: MW
HStem: -170 21G<299 376 299 299> 640 20G<299 376 376 376>
VStem: 56 155<218.5 314.5 218.5 324.5> 306 63<85 446 446 446>
LayerCount: 2
Fore
SplineSet
505 102 m 1
 521 81 l 1
 504 34 448 -2 376 -9 c 1
 376 -170 l 1
 299 -170 l 1
 299 -9 l 1
 138 8 56 105 56 250 c 0
 56 399 142 488 299 508 c 1
 299 660 l 1
 376 660 l 1
 376 511 l 1
 436 508 486 494 521 477 c 1
 516 432 502 362 485 326 c 1
 451 326 l 1
 415 445 l 1
 408 448 404 452 385 453 c 2
 369 454 l 1
 369 70 l 1
 380 67 389 68 400 68 c 0
 447 68 481 83 505 102 c 1
211 258 m 0
 211 179 239 116 306 85 c 1
 306 446 l 1
 251 426 211 371 211 258 c 0
EndSplineSet
Validated: 1
EndChar

StartChar: sterling
Encoding: 163 163 100
Width: 565
GlyphClass: 2
Flags: MW
HStem: 0 118<241 418 241 521> 314 61<40 117 40 117 40 153 289 289 289 397> 647 65<282.5 325.5>
LayerCount: 2
Fore
SplineSet
40 314 m 1
 40 375 l 1
 117 375 l 1
 90 416 65 463 65 534 c 0
 65 646 160 712 292 712 c 0
 373 712 467 693 505 674 c 1
 502 630 484 539 471 494 c 1
 437 494 l 1
 397 631 l 1
 373 642 343 647 308 647 c 0
 257 647 224 622 216 574 c 0
 213 561 213 547 215 532 c 0
 223 474 250 426 272 375 c 1
 397 375 l 1
 397 314 l 1
 289 314 l 1
 294 273 282 243 266 212 c 1
 261 185 247 159 223 140 c 2
 190 116 l 1
 190 112 l 1
 241 118 l 1
 418 118 l 1
 467 230 l 1
 501 230 l 1
 509 169 521 48 521 0 c 1
 43 0 l 1
 43 54 l 1
 120 87 161 131 168 200 c 0
 171 215 170 228 170 243 c 0
 167 270 161 293 153 314 c 1
 40 314 l 1
EndSplineSet
Validated: 33
EndChar

StartChar: currency
Encoding: 164 164 101
Width: 565
GlyphClass: 2
Flags: MW
HStem: 100 21G<114 114 449 449> 191 73<283 298.5> 429 72<264.5 306> 572 20G<115 115>
VStem: 127 70<328.5 361.5> 367 70<330 345 330 370>
LayerCount: 2
Fore
SplineSet
114 100 m 1
 36 178 l 1
 111 252 l 1
 151 266 l 1
 134 289 127 311 127 346 c 0
 127 377 135 403 151 425 c 1
 111 440 l 1
 37 514 l 1
 115 592 l 1
 188 518 l 1
 204 478 l 1
 225 493 247 501 282 501 c 0
 317 500 343 493 362 479 c 1
 378 518 l 1
 450 590 l 1
 528 513 l 1
 454 440 l 1
 416 426 l 1
 429 403 436 380 437 345 c 0
 437 315 430 289 416 266 c 1
 454 252 l 1
 527 178 l 1
 449 100 l 1
 376 173 l 1
 362 212 l 1
 342 200 314 191 283 191 c 0
 248 192 223 200 202 212 c 1
 188 174 l 1
 114 100 l 1
282 264 m 0
 330 264 367 298 367 346 c 0
 367 394 330 429 282 429 c 0
 234 430 197 394 197 346 c 0
 197 298 234 264 282 264 c 0
EndSplineSet
Validated: 33
EndChar

StartChar: yen
Encoding: 165 165 102
Width: 565
GlyphClass: 2
Flags: MW
HStem: 0 220<135 217 367 443 135 135> 155 65<74 217 74 217 367 509> 277 65<74 189 74 217 74 189 392 509> 680 20G<-55 273 273 273 379 619 619 619>
VStem: 217 150<67 155 67 155 220 277 67 277>
LayerCount: 2
Fore
SplineSet
379 662 m 1xb8
 379 700 l 1
 619 700 l 1
 619 662 l 1
 600 650 568 637 543 633 c 1
 392 342 l 1
 509 342 l 1
 509 277 l 1
 367 277 l 1
 367 220 l 1
 509 220 l 1
 509 155 l 1
 367 155 l 1x78
 367 67 l 1
 392 64 420 51 443 38 c 1
 443 0 l 1
 135 0 l 1xb8
 135 38 l 1
 158 50 186 62 217 67 c 1
 217 155 l 1
 74 155 l 1x78
 74 220 l 1
 217 220 l 1
 217 277 l 1
 74 277 l 1
 74 342 l 1
 189 342 l 1
 26 633 l 1
 -5 638 -32 650 -55 662 c 1
 -55 700 l 1
 273 700 l 1
 273 662 l 1
 256 651 231 640 199 633 c 1
 331 351 l 1
 459 633 l 1
 428 640 400 651 379 662 c 1xb8
EndSplineSet
Validated: 1
EndChar

StartChar: brokenbar
Encoding: 166 166 103
Width: 235
GlyphClass: 2
Flags: MW
HStem: -130 21G<83 83 83 153> 680 20G<83 153 153 153>
VStem: 83 70<-130 190 -130 190 380 700>
LayerCount: 2
Fore
SplineSet
83 -130 m 1
 83 190 l 1
 153 190 l 1
 153 -130 l 1
 83 -130 l 1
153 700 m 1
 153 380 l 1
 83 380 l 1
 83 700 l 1
 153 700 l 1
EndSplineSet
Validated: 1
EndChar

StartChar: section
Encoding: 167 167 104
Width: 566
GlyphClass: 2
Flags: MW
HStem: -82 57<248 277.5 248 328.5> 655 57<266.5 299.5>
VStem: 54 134<298 331.5> 89 134<544.5 612.5 544.5 620> 338 134<21.5 94> 378 134<298 331.5>
LayerCount: 2
Fore
SplineSet
338 39 m 0xe8
 338 149 54 120 54 298 c 0xe8
 54 365 112 410 189 441 c 1
 134 470 89 508 89 580 c 0
 89 660 164 712 276 712 c 0
 348 712 405 700 453 685 c 1
 448 642 439 610 424 570 c 1
 390 570 l 1
 338 647 l 1xd8
 322 654 310 655 289 655 c 0
 244 655 223 627 223 598 c 0
 223 491 512 499 512 333 c 0xd4
 512 263 445 216 385 186 c 1
 433 159 472 127 472 68 c 0
 472 -25 396 -82 261 -82 c 0
 197 -82 128 -68 79 -44 c 1
 82 4 95 31 118 70 c 1
 152 70 l 1
 211 -14 l 1
 226 -25 240 -25 256 -25 c 0
 299 -25 338 -1 338 39 c 0xe8
378 301 m 0xe4
 378 362 312 386 243 415 c 1
 214 394 188 361 188 328 c 0
 188 268 258 244 327 215 c 1
 354 238 378 272 378 301 c 0xe4
EndSplineSet
Validated: 1
EndChar

StartChar: dieresis
Encoding: 168 168 105
Width: 505
GlyphClass: 2
Flags: MW
HStem: 591 138<111 154.5 349.5 393>
VStem: 60 146<639 680.5> 299 146<639 680.5>
LayerCount: 2
Fore
SplineSet
60 659 m 0
 60 702 89 729 133 729 c 0
 176 729 206 702 206 659 c 0
 206 619 176 591 133 591 c 0
 89 591 60 619 60 659 c 0
299 659 m 0
 299 702 328 729 371 729 c 0
 415 729 445 702 445 659 c 0
 445 619 415 591 371 591 c 0
 328 591 299 619 299 659 c 0
EndSplineSet
Validated: 1
EndChar

StartChar: copyright
Encoding: 169 169 106
Width: 819
GlyphClass: 2
Flags: MW
HStem: -62 61<331 490.5 331 500.5> 82 55<407 453.5 407 457.5> 445 55<406 444> 581 61<325.5 483.5>
VStem: 55 67<200.5 379.5 200.5 400.5> 208 135<246.5 343 246.5 360> 696 67<200.5 382>
LayerCount: 2
Fore
SplineSet
55 290 m 0
 55 511 226 642 409 642 c 0
 592 642 763 511 763 290 c 0
 763 69 592 -62 409 -62 c 0
 216 -62 55 69 55 290 c 0
122 290 m 0
 122 111 253 -1 409 -1 c 0
 572 -1 696 111 696 290 c 0
 696 474 558 581 409 581 c 0
 242 581 122 469 122 290 c 0
487 146 m 2
 515 220 l 1
 549 220 l 1
 554 199 562 148 559 115 c 1
 536 96 485 82 430 82 c 0
 300 82 208 155 208 291 c 0
 208 429 316 500 417 500 c 0
 481 500 528 487 556 470 c 1
 559 447 551 383 543 356 c 1
 509 356 l 1
 479 439 l 1
 470 446 452 445 436 445 c 0
 376 445 343 395 343 291 c 0
 343 202 371 137 443 137 c 0
 464 137 482 141 487 146 c 2
EndSplineSet
Validated: 33
EndChar

StartChar: ordfeminine
Encoding: 170 170 107
Width: 460
GlyphClass: 2
Flags: MW
HStem: 376 55<120.5 223.5> 535 37<216.5 243.5> 657 51<207.5 237.5>
VStem: 45 117<467.5 500.5 467.5 512> 273 115<599.5 618.5>
LayerCount: 2
Fore
SplineSet
135 596 m 1
 99 596 l 1
 86 611 71 644 70 672 c 1
 103 689 156 708 257 708 c 0
 360 708 388 672 388 607 c 0
 388 556 385 494 385 451 c 1
 435 441 l 1
 435 406 l 1
 411 393 345 381 316 378 c 2
 290 378 l 1
 281 401 278 418 277 441 c 1
 273 441 l 1
 259 416 226 376 154 376 c 0
 87 376 45 412 45 471 c 0
 45 553 139 572 245 572 c 0
 254 572 263 571 272 571 c 1
 273 579 273 596 273 603 c 0
 273 634 260 657 215 657 c 0
 200 657 182 655 163 648 c 1
 135 596 l 1
205 431 m 0
 242 431 263 461 272 482 c 1
 272 533 l 1
 260 534 249 535 238 535 c 0
 195 535 162 521 162 480 c 0
 162 455 177 431 205 431 c 0
EndSplineSet
Validated: 1
EndChar

StartChar: guillemotleft
Encoding: 171 171 108
Width: 505
GlyphClass: 2
Flags: MW
HStem: 39 21G<266 266> 462 20G<260 260>
LayerCount: 2
Fore
SplineSet
421 41 m 1
 236 259 l 1
 414 481 l 1
 457 445 l 1
 351 266 l 1
 463 77 l 1
 421 41 l 1
266 39 m 1
 20 259 l 1
 260 482 l 1
 299 446 l 1
 155 265 l 1
 305 76 l 1
 266 39 l 1
EndSplineSet
Validated: 1
EndChar

StartChar: logicalnot
Encoding: 172 172 109
Width: 552
GlyphClass: 2
Flags: MW
HStem: 185 216<413 493 413 413> 311 90<59 493 59 413>
VStem: 413 80<185 311 311 311>
LayerCount: 2
Fore
SplineSet
59 311 m 1x60
 59 401 l 1
 493 401 l 1
 493 185 l 1
 413 185 l 1xa0
 413 311 l 1
 59 311 l 1x60
EndSplineSet
Validated: 1
EndChar

StartChar: uni00AD
Encoding: 173 173 110
Width: 414
GlyphClass: 2
Flags: MW
HStem: 237 90<66 348 66 348>
LayerCount: 2
Fore
SplineSet
66 237 m 1
 66 327 l 1
 348 327 l 1
 348 237 l 1
 66 237 l 1
EndSplineSet
Validated: 1
EndChar

StartChar: registered
Encoding: 174 174 111
Width: 703
GlyphClass: 2
Flags: MW
HStem: 171 55<291 414 291 425.5> 309 168<320 349 349 354 216 349 320 442 320 506> 571 41<341.5 362.5> 676 55<287.5 411>
VStem: 69 62<381.5 520 381.5 539> 251 69<351 439 351 477 477 566 566 566> 398 76<528 528> 571 62<381 520>
LayerCount: 2
Fore
SplineSet
69 451 m 0
 69 627 202 731 351 731 c 0
 504 731 633 627 633 451 c 0
 633 275 500 171 351 171 c 0
 198 171 69 275 69 451 c 0
131 451 m 0
 131 312 231 226 351 226 c 0
 477 226 571 311 571 451 c 0
 571 589 471 676 351 676 c 0
 224 676 131 589 131 451 c 0
320 439 m 1
 320 351 l 1
 337 350 345 346 354 342 c 1
 354 309 l 1
 216 309 l 1
 216 342 l 1
 227 346 239 349 251 351 c 1
 251 566 l 1
 236 567 227 570 216 577 c 1
 216 608 l 1
 268 608 l 2
 292 608 331 612 352 612 c 0
 424 612 474 588 474 528 c 0
 474 487 445 461 408 449 c 1
 432 409 445 386 483 351 c 1
 506 339 l 1
 506 309 l 1
 442 309 l 1
 414 320 l 1
 381 360 368 400 353 439 c 1
 320 439 l 1
347 571 m 0
 332 571 328 571 320 568 c 1
 320 477 l 1
 349 477 l 2
 381 477 399 492 398 528 c 0
 397 559 378 571 347 571 c 0
EndSplineSet
Validated: 33
EndChar

StartChar: macron
Encoding: 175 175 112
Width: 414
GlyphClass: 2
Flags: MW
HStem: 619 70<60 354 60 354>
LayerCount: 2
Fore
SplineSet
354 619 m 1
 60 619 l 1
 60 689 l 1
 354 689 l 1
 354 619 l 1
EndSplineSet
Validated: 1
EndChar

StartChar: degree
Encoding: 176 176 113
Width: 413
GlyphClass: 2
Flags: MW
HStem: 430 61<193.5 234.5 193.5 252> 651 61<191 234.5>
VStem: 69 69<545.5 596.5 545.5 612.5> 288 69<543.5 597>
LayerCount: 2
Fore
SplineSet
69 571 m 0
 69 654 135 712 213 712 c 0
 291 712 357 664 357 571 c 0
 357 483 291 430 213 430 c 0
 135 430 69 483 69 571 c 0
138 571 m 0
 138 520 174 491 213 491 c 0
 256 491 288 516 288 571 c 0
 288 623 256 651 213 651 c 0
 169 651 138 622 138 571 c 0
EndSplineSet
Validated: 1
EndChar

StartChar: plusminus
Encoding: 177 177 114
Width: 565
GlyphClass: 2
Flags: MW
HStem: 164 80<57 507 57 507> 424 80<57 242 57 242 322 507> 680 20G<242 322 322 322>
VStem: 242 80<292 424 292 424 504 700>
LayerCount: 2
Fore
SplineSet
57 424 m 1
 57 504 l 1
 242 504 l 1
 242 700 l 1
 322 700 l 1
 322 504 l 1
 507 504 l 1
 507 424 l 1
 322 424 l 1
 322 292 l 1
 242 292 l 1
 242 424 l 1
 57 424 l 1
57 164 m 1
 57 244 l 1
 507 244 l 1
 507 164 l 1
 57 164 l 1
EndSplineSet
Validated: 1
EndChar

StartChar: twosuperior
Encoding: 178 178 115
Width: 440
GlyphClass: 2
Flags: MW
HStem: 386 81<193 312 193 401> 738 75<185 218.5>
VStem: 259 120<652.5 695>
LayerCount: 2
Fore
SplineSet
143 726 m 1
 114 621 l 1
 87 621 l 1
 70 654 44 738 41 765 c 1
 84 789 148 813 221 813 c 0
 332 813 379 765 379 697 c 0
 379 608 290 527 162 466 c 1
 162 460 l 1
 193 467 l 1
 312 467 l 1
 356 534 l 1
 387 534 l 1
 395 487 401 412 401 386 c 1
 44 386 l 1
 44 437 l 1
 153 498 259 593 259 675 c 0
 259 715 242 738 195 738 c 0
 175 738 158 734 143 726 c 1
EndSplineSet
Validated: 1
EndChar

StartChar: threesuperior
Encoding: 179 179 116
Width: 440
GlyphClass: 2
Flags: MW
HStem: 377 60<193.5 232.5 193.5 267.5> 574 230<161 199 161 161> 735 69<149 220 149 149>
VStem: 280 120<490.5 528.5>
LayerCount: 2
Fore
SplineSet
207 437 m 0xd0
 258 437 280 473 280 508 c 0
 280 549 256 574 199 574 c 2
 161 574 l 1xd0
 161 609 l 1
 238 695 l 1
 282 737 l 1
 282 739 l 1
 220 735 l 1
 149 735 l 1xb0
 109 652 l 1
 78 652 l 1
 62 686 50 774 50 804 c 1
 384 804 l 1
 384 759 l 1
 282 658 l 1
 245 627 l 1
 245 626 l 1
 276 630 l 1
 339 630 400 590 400 513 c 0
 400 426 335 377 200 377 c 0
 145 377 74 399 39 423 c 1
 73 529 l 1
 100 529 l 1
 113 516 136 473 149 447 c 1
 161 443 180 437 207 437 c 0xd0
EndSplineSet
Validated: 1
EndChar

StartChar: acute
Encoding: 180 180 117
Width: 351
GlyphClass: 2
Flags: MW
HStem: 562 21G<100 100>
LayerCount: 2
Fore
SplineSet
60 584 m 1
 168 763 l 1
 191 769 277 758 291 741 c 1
 291 717 l 1
 100 562 l 1
 60 584 l 1
EndSplineSet
Validated: 33
EndChar

StartChar: mu
Encoding: 181 181 118
Width: 622
GlyphClass: 2
Flags: MW
HStem: -12 80<263 283> -10 21G<405 439 405 405> 492 20G<187 221 221 221 505 539 539 539>
VStem: 71 144<167.5 268.5 167.5 429> 395 144<167 429 429 429>
LayerCount: 2
Fore
SplineSet
155 13 m 1xb8
 150 13 l 1
 199 -161 l 1
 199 -200 l 1
 151 -211 110 -211 71 -200 c 1
 71 429 l 1
 11 437 l 1
 11 476 l 1
 54 492 144 507 187 512 c 1
 221 512 l 1
 221 412 215 315 215 222 c 0
 215 113 233 68 293 68 c 0xb8
 334 68 372 98 395 167 c 1
 395 429 l 1
 329 437 l 1
 329 476 l 1
 369 492 457 507 505 512 c 1
 539 512 l 1
 539 71 l 1
 605 63 l 1
 605 28 l 1
 567 12 486 -5 439 -10 c 1
 405 -10 l 1x78
 398 109 l 1
 394 109 l 1
 381 53 324 -12 242 -12 c 0
 205 -12 174 -2 155 13 c 1xb8
EndSplineSet
Validated: 33
EndChar

StartChar: paragraph
Encoding: 182 182 119
Width: 547
GlyphClass: 2
Flags: MW
HStem: -212 21G<148 148> 680 20G<261 487 487 487>
VStem: 60 243<430 556> 238 65<24 310 310 310> 347 64<94 633>
LayerCount: 2
Fore
SplineSet
411 633 m 1xe8
 411 94 l 2
 411 -86 357 -127 258 -148 c 1
 231 -187 189 -204 148 -212 c 1
 132 -179 l 1
 191 -155 238 -115 238 24 c 2
 238 310 l 1xd8
 154 310 60 360 60 500 c 0
 60 612 125 700 261 700 c 2
 487 700 l 1
 487 657 l 1
 464 646 442 638 411 633 c 1xe8
278 -111 m 1
 333 -94 347 -25 347 94 c 2
 347 638 l 1
 303 638 l 1
 303 24 l 2
 303 -29 297 -76 278 -111 c 1
EndSplineSet
Validated: 1
EndChar

StartChar: periodcentered
Encoding: 183 183 120
Width: 296
GlyphClass: 2
Flags: MW
HStem: 242 159<121.5 172.5>
VStem: 63 170<297 345>
LayerCount: 2
Fore
SplineSet
63 321 m 0
 63 369 96 401 147 401 c 0
 198 401 233 369 233 321 c 0
 233 273 198 242 147 242 c 0
 96 242 63 273 63 321 c 0
EndSplineSet
Validated: 1
EndChar

StartChar: cedilla
Encoding: 184 184 121
Width: 318
GlyphClass: 2
Flags: MW
HStem: -257 189<63 134> -19 20G<101 160 160 160>
VStem: 133 125<-176.5 -161>
LayerCount: 2
Fore
SplineSet
160 1 m 1
 134 -68 l 1
 214 -72 257 -96 258 -144 c 0
 258 -220 157 -257 63 -257 c 1
 63 -218 l 1
 110 -211 133 -192 133 -161 c 0
 132 -130 107 -119 60 -114 c 1
 101 1 l 1
 160 1 l 1
EndSplineSet
Validated: 1
EndChar

StartChar: onesuperior
Encoding: 185 185 122
Width: 440
GlyphClass: 2
Flags: MW
HStem: 386 21G<72 385 72 72> 793 20G<245 285 285 285>
VStem: 65 220<709 751 751 751> 173 112<455 670 670 670>
LayerCount: 2
Fore
SplineSet
385 416 m 1xe0
 385 386 l 1
 72 386 l 1
 72 416 l 1
 108 435 140 448 173 455 c 1
 173 670 l 1xd0
 177 715 l 1
 145 706 96 706 65 709 c 1
 65 751 l 1
 126 759 197 786 245 813 c 1
 285 813 l 1
 285 455 l 1
 322 446 355 433 385 416 c 1xe0
EndSplineSet
Validated: 33
EndChar

StartChar: ordmasculine
Encoding: 186 186 123
Width: 458
GlyphClass: 2
Flags: MW
HStem: 372 51<205 252.5 205 286.5> 661 51<204.5 252.5>
VStem: 37 120<502.5 586 502.5 593.5> 301 120<498 586>
LayerCount: 2
Fore
SplineSet
37 542 m 0
 37 645 115 712 229 712 c 0
 344 712 421 657 421 542 c 0
 421 438 344 372 229 372 c 0
 115 372 37 427 37 542 c 0
157 542 m 0
 157 463 181 423 229 423 c 0
 276 423 301 454 301 542 c 0
 301 630 276 661 229 661 c 0
 180 661 157 630 157 542 c 0
EndSplineSet
Validated: 1
EndChar

StartChar: guillemotright
Encoding: 187 187 124
Width: 505
GlyphClass: 2
Flags: MW
HStem: 40 21G<242 242> 462 20G<242 242>
LayerCount: 2
Fore
SplineSet
269 261 m 1
 87 41 l 1
 45 77 l 1
 154 259 l 1
 45 445 l 1
 87 481 l 1
 269 261 l 1
485 261 m 1
 242 40 l 1
 203 77 l 1
 350 259 l 1
 203 446 l 1
 242 482 l 1
 485 261 l 1
EndSplineSet
Validated: 1
EndChar

StartChar: onequarter
Encoding: 188 188 125
Width: 958
GlyphClass: 2
Flags: MW
HStem: -13 21G<235 235> 0 173<633 706 818 877 633 633> 113 60<612 706 612 706 818 903> 689 20G<231 271 271 271> 695 20G<772 772>
VStem: 51 220<605 647 647 647> 159 112<351 566 566 566> 706 112<59 113 59 113 173 276 276 276>
LayerCount: 2
Fore
SplineSet
371 312 m 1x55
 371 282 l 1
 58 282 l 1
 58 312 l 1
 94 331 126 344 159 351 c 1
 159 566 l 1xb3
 163 611 l 1
 131 602 82 602 51 605 c 1
 51 647 l 1
 112 655 183 682 231 709 c 1
 271 709 l 1
 271 351 l 1
 308 342 341 329 371 312 c 1x55
877 30 m 1
 877 0 l 1
 633 0 l 1x55
 633 30 l 1
 653 41 679 54 706 59 c 1
 706 113 l 1
 475 113 l 1
 475 150 l 1
 749 427 l 1
 818 427 l 1
 818 173 l 1
 903 173 l 1
 903 113 l 1
 818 113 l 1
 818 59 l 1
 838 55 858 45 877 30 c 1
706 173 m 1
 706 276 l 1
 714 319 l 1
 711 319 l 1
 678 276 l 1
 594 189 l 1
 558 166 l 1
 612 173 l 1
 706 173 l 1
188 30 m 1
 772 715 l 1
 820 673 l 1
 235 -13 l 1xad
 188 30 l 1
EndSplineSet
Validated: 33
EndChar

StartChar: onehalf
Encoding: 189 189 126
Width: 1031
GlyphClass: 2
Flags: MW
HStem: -13 21G<235 235> 0 81<767 886 767 975> 352 75<759 792.5> 689 20G<231 271 271 271> 695 20G<772 772>
VStem: 51 220<605 647 647 647> 159 112<351 566 566 566> 833 120<266.5 309>
LayerCount: 2
Fore
SplineSet
371 312 m 1x75
 371 282 l 1
 58 282 l 1
 58 312 l 1
 94 331 126 344 159 351 c 1
 159 566 l 1x73
 163 611 l 1
 131 602 82 602 51 605 c 1
 51 647 l 1
 112 655 183 682 231 709 c 1
 271 709 l 1
 271 351 l 1
 308 342 341 329 371 312 c 1x75
717 340 m 1
 688 235 l 1
 661 235 l 1
 644 268 618 352 615 379 c 1
 658 403 722 427 795 427 c 0
 906 427 953 379 953 311 c 0
 953 222 864 141 736 80 c 1
 736 74 l 1
 767 81 l 1
 886 81 l 1
 930 148 l 1
 961 148 l 1
 969 101 975 26 975 0 c 1
 618 0 l 1
 618 51 l 1
 727 112 833 207 833 289 c 0
 833 329 816 352 769 352 c 0
 749 352 732 348 717 340 c 1
188 30 m 1
 772 715 l 1
 820 673 l 1
 235 -13 l 1xad
 188 30 l 1
EndSplineSet
Validated: 33
EndChar

StartChar: threequarters
Encoding: 190 190 127
Width: 980
GlyphClass: 2
Flags: MW
HStem: -13 21G<257 257> 0 173<655 728 840 899 655 655> 113 60<634 728 634 728 840 925> 273 60<209.5 248.5 209.5 283.5> 273 154 470 230<177 215 177 177> 631 69<165 236 165 165> 695 20G<794 794>
VStem: 296 120<386.5 424.5> 728 112<59 113 59 113 173 276 276 276>
LayerCount: 2
Fore
SplineSet
223 333 m 0x54c0
 274 333 296 369 296 404 c 0
 296 445 272 470 215 470 c 2
 177 470 l 1xb4c0
 177 505 l 1
 254 591 l 1
 298 633 l 1
 298 635 l 1
 236 631 l 1
 165 631 l 1x52c0
 125 548 l 1
 94 548 l 1
 78 582 66 670 66 700 c 1
 400 700 l 1
 400 655 l 1
 298 554 l 1
 261 523 l 1
 261 522 l 1
 292 526 l 1
 355 526 416 486 416 409 c 0
 416 322 351 273 216 273 c 0
 161 273 90 295 55 319 c 1
 89 425 l 1
 116 425 l 1
 129 412 152 369 165 343 c 1
 177 339 196 333 223 333 c 0x54c0
899 30 m 1
 899 0 l 1
 655 0 l 1x54c0
 655 30 l 1
 675 41 701 54 728 59 c 1
 728 113 l 1
 497 113 l 1
 497 150 l 1
 771 427 l 1
 840 427 l 1xacc0
 840 173 l 1
 925 173 l 1
 925 113 l 1
 840 113 l 1
 840 59 l 1
 860 55 880 45 899 30 c 1
728 173 m 1
 728 276 l 1
 736 319 l 1
 733 319 l 1
 700 276 l 1
 616 189 l 1
 580 166 l 1
 634 173 l 1
 728 173 l 1
210 30 m 1
 794 715 l 1
 842 673 l 1
 257 -13 l 1xb1c0
 210 30 l 1
EndSplineSet
Validated: 1
EndChar

StartChar: questiondown
Encoding: 191 191 128
Width: 486
GlyphClass: 2
Flags: MW
HStem: -208 65<225 270> 353 159<233.5 284.5>
VStem: 26 145<-68 26 -68 46> 173 171<408.5 457>
LayerCount: 2
Fore
SplineSet
318 -129 m 1
 351 3 l 1
 385 3 l 1
 399 -32 424 -105 430 -157 c 1
 379 -188 320 -208 220 -208 c 0
 101 -208 26 -138 26 -45 c 0
 26 137 254 134 254 301 c 1
 287 301 l 1
 343 117 171 94 171 -42 c 0
 171 -94 193 -143 257 -143 c 0
 286 -143 307 -138 318 -129 c 1
344 433 m 0
 344 384 310 353 259 353 c 0
 208 353 173 384 173 433 c 0
 173 481 208 512 259 512 c 0
 310 512 344 481 344 433 c 0
EndSplineSet
Validated: 33
EndChar

StartChar: Agrave
Encoding: 192 192 129
Width: 729
GlyphClass: 2
Flags: MW
HStem: 0 21G<0 247 0 0 416 416 416 729> 226 65<243 420 243 441 219 420> 692 20G<329 403 403 403>
LayerCount: 2
Fore
SplineSet
247 38 m 1
 247 0 l 1
 0 0 l 1
 0 38 l 1
 21 51 47 62 71 67 c 1
 329 712 l 1
 403 712 l 1
 654 67 l 1
 681 62 709 51 729 38 c 1
 729 0 l 1
 416 0 l 1
 416 38 l 1
 441 50 472 62 499 67 c 1
 441 226 l 1
 219 226 l 1
 160 67 l 1
 191 63 220 53 247 38 c 1
312 480 m 1
 243 291 l 1
 420 291 l 1
 355 482 l 1
 336 568 l 1
 334 568 l 1
 312 480 l 1
289 898 m 1
 416 764 l 1
 382 745 l 1
 146 841 l 1
 146 861 l 1
 153 883 260 906 289 898 c 1
EndSplineSet
Validated: 33
EndChar

StartChar: Aacute
Encoding: 193 193 130
Width: 729
GlyphClass: 2
Flags: MW
HStem: 0 21G<0 247 0 0 416 416 416 729> 226 65<243 420 243 441 219 420> 692 20G<329 403 403 403>
LayerCount: 2
Fore
SplineSet
247 38 m 1
 247 0 l 1
 0 0 l 1
 0 38 l 1
 21 51 47 62 71 67 c 1
 329 712 l 1
 403 712 l 1
 654 67 l 1
 681 62 709 51 729 38 c 1
 729 0 l 1
 416 0 l 1
 416 38 l 1
 441 50 472 62 499 67 c 1
 441 226 l 1
 219 226 l 1
 160 67 l 1
 191 63 220 53 247 38 c 1
312 480 m 1
 243 291 l 1
 420 291 l 1
 355 482 l 1
 336 568 l 1
 334 568 l 1
 312 480 l 1
310 769 m 1
 452 898 l 1
 495 901 569 880 585 861 c 1
 585 841 l 1
 338 745 l 1
 310 769 l 1
EndSplineSet
Validated: 33
EndChar

StartChar: Acircumflex
Encoding: 194 194 131
Width: 729
GlyphClass: 2
Flags: MW
HStem: 0 21G<0 247 0 0 416 416 416 729> 226 65<243 420 243 441 219 420> 692 20G<329 403 403 403>
LayerCount: 2
Fore
SplineSet
247 38 m 1
 247 0 l 1
 0 0 l 1
 0 38 l 1
 21 51 47 62 71 67 c 1
 329 712 l 1
 403 712 l 1
 654 67 l 1
 681 62 709 51 729 38 c 1
 729 0 l 1
 416 0 l 1
 416 38 l 1
 441 50 472 62 499 67 c 1
 441 226 l 1
 219 226 l 1
 160 67 l 1
 191 63 220 53 247 38 c 1
312 480 m 1
 243 291 l 1
 420 291 l 1
 355 482 l 1
 336 568 l 1
 334 568 l 1
 312 480 l 1
366 800 m 1
 240 743 l 1
 212 771 l 1
 339 888 l 2
 352 895 388 895 401 888 c 2
 526 774 l 1
 498 744 l 1
 366 800 l 1
EndSplineSet
Validated: 33
EndChar

StartChar: Atilde
Encoding: 195 195 132
Width: 729
GlyphClass: 2
Flags: MW
HStem: 0 21G<0 247 0 0 416 416 416 729> 226 65<243 420 243 441 219 420> 692 20G<329 403 403 403> 752 92<435.5 440> 786 58 786 90<276.5 354.5>
LayerCount: 2
Fore
SplineSet
247 38 m 1xe8
 247 0 l 1
 0 0 l 1
 0 38 l 1
 21 51 47 62 71 67 c 1
 329 712 l 1
 403 712 l 1
 654 67 l 1
 681 62 709 51 729 38 c 1
 729 0 l 1
 416 0 l 1
 416 38 l 1
 441 50 472 62 499 67 c 1
 441 226 l 1
 219 226 l 1
 160 67 l 1
 191 63 220 53 247 38 c 1xe8
312 480 m 1
 243 291 l 1
 420 291 l 1
 355 482 l 1
 336 568 l 1
 334 568 l 1
 312 480 l 1
518 864 m 1
 540 817 l 1
 497 774 464 752 416 752 c 0xf0
 366 752 328 786 286 786 c 0
 267 786 244 780 223 761 c 1
 195 808 l 1
 246 853 291 876 330 876 c 0xe4
 379 876 414 844 457 844 c 0
 474 844 497 849 518 864 c 1
EndSplineSet
Validated: 1
EndChar

StartChar: Adieresis
Encoding: 196 196 133
Width: 729
GlyphClass: 2
Flags: MW
HStem: 0 21G<0 247 0 0 416 416 416 729> 226 65<243 420 243 441 219 420> 692 20G<329 403 403 403> 734 123<220.5 267.5 466.5 513.5>
VStem: 163 162<774.5 814.5> 408 163<774.5 814.5>
LayerCount: 2
Fore
SplineSet
247 38 m 1
 247 0 l 1
 0 0 l 1
 0 38 l 1
 21 51 47 62 71 67 c 1
 329 712 l 1
 403 712 l 1
 654 67 l 1
 681 62 709 51 729 38 c 1
 729 0 l 1
 416 0 l 1
 416 38 l 1
 441 50 472 62 499 67 c 1
 441 226 l 1
 219 226 l 1
 160 67 l 1
 191 63 220 53 247 38 c 1
312 480 m 1
 243 291 l 1
 420 291 l 1
 355 482 l 1
 336 568 l 1
 334 568 l 1
 312 480 l 1
163 793 m 0
 163 836 197 857 244 857 c 0
 291 857 325 836 325 793 c 0
 325 756 291 734 244 734 c 0
 197 734 163 756 163 793 c 0
408 793 m 0
 408 836 443 857 490 857 c 0
 537 857 571 836 571 793 c 0
 571 756 537 734 490 734 c 0
 443 734 408 756 408 793 c 0
EndSplineSet
Validated: 1
EndChar

StartChar: Aring
Encoding: 197 197 134
Width: 729
GlyphClass: 2
Flags: MW
HStem: 0 21G<0 247 0 0 416 729 416 416> 226 65<243 420 243 441 219 420> 828 50<355 381.5>
VStem: 238 83<776.5 802.5 776.5 815.5> 415 83<778 802.5>
LayerCount: 2
Fore
SplineSet
312 480 m 1
 243 291 l 1
 420 291 l 1
 355 482 l 1
 336 568 l 1
 334 568 l 1
 312 480 l 1
321 788 m 0
 321 765 346 754 366 754 c 0
 397 754 415 766 415 787 c 0
 415 818 394 828 369 828 c 0
 341 828 321 817 321 788 c 0
238 788 m 0
 238 843 290 878 371 878 c 0
 440 878 498 849 498 791 c 0
 498 765 486 744 462 728 c 0
 446 717 427 710 405 706 c 1
 654 67 l 1
 681 62 709 51 729 38 c 1
 729 0 l 1
 416 0 l 1
 416 38 l 1
 441 50 472 62 499 67 c 1
 441 226 l 1
 219 226 l 1
 160 67 l 1
 191 63 220 53 247 38 c 1
 247 0 l 1
 0 0 l 1
 0 38 l 1
 21 51 47 62 71 67 c 1
 327 707 l 1
 304 710 286 717 272 727 c 0
 249 742 238 763 238 788 c 0
EndSplineSet
Validated: 1
EndChar

StartChar: AE
Encoding: 198 198 135
Width: 959
GlyphClass: 2
Flags: MW
HStem: 0 65<606 801 606 916> 244 65<310 458 310 458 273 458> 325 65<606 729 606 729> 635 65<606 793 606 606>
VStem: 459 147<594 594>
LayerCount: 2
Fore
SplineSet
365 700 m 1
 901 700 l 1
 898 640 892 573 881 517 c 1
 839 517 l 1
 793 635 l 1
 606 635 l 1
 606 390 l 1
 729 390 l 1
 773 467 l 1
 804 467 l 1
 811 402 811 315 804 246 c 1
 773 246 l 1
 729 325 l 1
 606 325 l 1
 606 65 l 1
 801 65 l 1
 854 192 l 1
 896 192 l 1
 907 141 916 60 916 0 c 1
 379 0 l 1
 379 38 l 1
 400 49 428 60 456 67 c 1
 458 244 l 1
 273 244 l 1
 170 67 l 1
 197 62 223 52 247 38 c 1
 247 0 l 1
 5 0 l 1
 5 38 l 1
 26 51 51 62 75 67 c 1
 423 638 l 1
 403 645 382 651 365 662 c 1
 365 700 l 1
423 504 m 1
 310 309 l 1
 458 309 l 1
 461 594 l 1
 459 594 l 1
 423 504 l 1
EndSplineSet
Validated: 33
EndChar

StartChar: Ccedilla
Encoding: 199 199 136
Width: 652
GlyphClass: 2
Flags: MW
HStem: -285 215<299 376> -125 178<302 435.5> -12 65<400 435.5> 647 65<352 420>
VStem: 39 166<254.5 456 254.5 478> 378 133
LayerCount: 2
Fore
SplineSet
491 70 m 1x5c
 540 210 l 1
 581 210 l 1
 592 168 599 82 599 28 c 1
 551 -4 471 -12 400 -12 c 1
 376 -70 l 1
 456 -73 511 -100 511 -159 c 0
 511 -248 375 -285 299 -285 c 1xbc
 299 -239 l 1
 346 -232 379 -213 378 -176 c 0
 377 -145 358 -128 302 -125 c 1
 338 -8 l 1
 155 11 39 121 39 351 c 0
 39 605 202 712 389 712 c 0
 477 712 551 698 596 677 c 1
 596 634 584 534 573 485 c 1
 531 485 l 1
 476 636 l 1
 464 643 434 647 406 647 c 0
 298 647 205 562 205 350 c 0
 205 159 286 53 417 53 c 0
 454 53 482 59 491 70 c 1x5c
EndSplineSet
Validated: 33
EndChar

StartChar: Egrave
Encoding: 200 200 137
Width: 604
GlyphClass: 2
Flags: MW
HStem: 0 65<252 447 252 561> 325 65<252 374 252 374> 635 65<252 439 252 252>
VStem: 102 150<67 325 390 633 633 633>
LayerCount: 2
Fore
SplineSet
20 700 m 1
 546 700 l 1
 543 640 537 573 526 517 c 1
 485 517 l 1
 439 635 l 1
 252 635 l 1
 252 390 l 1
 374 390 l 1
 418 467 l 1
 450 467 l 1
 457 402 457 315 450 246 c 1
 418 246 l 1
 374 325 l 1
 252 325 l 1
 252 65 l 1
 447 65 l 1
 500 192 l 1
 541 192 l 1
 552 141 561 60 561 0 c 1
 20 0 l 1
 20 38 l 1
 43 50 71 62 102 67 c 1
 102 633 l 1
 75 638 43 649 20 662 c 1
 20 700 l 1
243 898 m 1
 370 764 l 1
 336 745 l 1
 100 841 l 1
 100 861 l 1
 107 883 214 906 243 898 c 1
EndSplineSet
Validated: 33
EndChar

StartChar: Eacute
Encoding: 201 201 138
Width: 604
GlyphClass: 2
Flags: MW
HStem: 0 65<252 447 252 561> 325 65<252 374 252 374> 635 65<252 439 252 252>
VStem: 102 150<67 325 390 633 633 633>
LayerCount: 2
Fore
SplineSet
20 700 m 1
 546 700 l 1
 543 640 537 573 526 517 c 1
 485 517 l 1
 439 635 l 1
 252 635 l 1
 252 390 l 1
 374 390 l 1
 418 467 l 1
 450 467 l 1
 457 402 457 315 450 246 c 1
 418 246 l 1
 374 325 l 1
 252 325 l 1
 252 65 l 1
 447 65 l 1
 500 192 l 1
 541 192 l 1
 552 141 561 60 561 0 c 1
 20 0 l 1
 20 38 l 1
 43 50 71 62 102 67 c 1
 102 633 l 1
 75 638 43 649 20 662 c 1
 20 700 l 1
220 769 m 1
 362 898 l 1
 405 901 479 880 495 861 c 1
 495 841 l 1
 248 745 l 1
 220 769 l 1
EndSplineSet
Validated: 33
EndChar

StartChar: Ecircumflex
Encoding: 202 202 139
Width: 604
GlyphClass: 2
Flags: MW
HStem: 0 65<252 447 252 561> 325 65<252 374 252 374> 635 65<252 439 252 252>
VStem: 102 150<67 325 390 633 633 633>
LayerCount: 2
Fore
SplineSet
20 700 m 1
 546 700 l 1
 543 640 537 573 526 517 c 1
 485 517 l 1
 439 635 l 1
 252 635 l 1
 252 390 l 1
 374 390 l 1
 418 467 l 1
 450 467 l 1
 457 402 457 315 450 246 c 1
 418 246 l 1
 374 325 l 1
 252 325 l 1
 252 65 l 1
 447 65 l 1
 500 192 l 1
 541 192 l 1
 552 141 561 60 561 0 c 1
 20 0 l 1
 20 38 l 1
 43 50 71 62 102 67 c 1
 102 633 l 1
 75 638 43 649 20 662 c 1
 20 700 l 1
308 800 m 1
 182 743 l 1
 154 771 l 1
 281 888 l 2
 294 895 330 895 343 888 c 2
 468 774 l 1
 440 744 l 1
 308 800 l 1
EndSplineSet
Validated: 33
EndChar

StartChar: Edieresis
Encoding: 203 203 140
Width: 604
GlyphClass: 2
Flags: MW
HStem: 0 65<252 447 252 561> 325 65<252 374 252 374> 635 65<252 439 252 252> 734 123<150.5 197.5 396.5 443.5>
VStem: 102 150<67 325 390 633 633 633> 338 163<774.5 814.5>
LayerCount: 2
Fore
SplineSet
20 700 m 1
 546 700 l 1
 543 640 537 573 526 517 c 1
 485 517 l 1
 439 635 l 1
 252 635 l 1
 252 390 l 1
 374 390 l 1
 418 467 l 1
 450 467 l 1
 457 402 457 315 450 246 c 1
 418 246 l 1
 374 325 l 1
 252 325 l 1
 252 65 l 1
 447 65 l 1
 500 192 l 1
 541 192 l 1
 552 141 561 60 561 0 c 1
 20 0 l 1
 20 38 l 1
 43 50 71 62 102 67 c 1
 102 633 l 1
 75 638 43 649 20 662 c 1
 20 700 l 1
93 793 m 0
 93 836 127 857 174 857 c 0
 221 857 255 836 255 793 c 0
 255 756 221 734 174 734 c 0
 127 734 93 756 93 793 c 0
338 793 m 0
 338 836 373 857 420 857 c 0
 467 857 501 836 501 793 c 0
 501 756 467 734 420 734 c 0
 373 734 338 756 338 793 c 0
EndSplineSet
Validated: 33
EndChar

StartChar: Igrave
Encoding: 204 204 141
Width: 372
GlyphClass: 2
Flags: MW
HStem: 0 21G<30 342 30 30> 680 20G<30 342 342 342>
VStem: 111 150<67 633 67 633>
LayerCount: 2
Fore
SplineSet
342 38 m 1
 342 0 l 1
 30 0 l 1
 30 38 l 1
 57 53 84 62 111 67 c 1
 111 633 l 1
 84 637 53 649 30 662 c 1
 30 700 l 1
 342 700 l 1
 342 662 l 1
 318 647 288 637 261 633 c 1
 261 67 l 1
 288 62 318 53 342 38 c 1
175 898 m 1
 302 764 l 1
 268 745 l 1
 32 841 l 1
 32 861 l 1
 39 883 146 906 175 898 c 1
EndSplineSet
Validated: 33
EndChar

StartChar: Iacute
Encoding: 205 205 142
Width: 372
GlyphClass: 2
Flags: MW
HStem: 0 21G<30 342 30 30> 680 20G<30 342 342 342>
VStem: 111 150<67 633 67 633>
LayerCount: 2
Fore
SplineSet
342 38 m 1
 342 0 l 1
 30 0 l 1
 30 38 l 1
 57 53 84 62 111 67 c 1
 111 633 l 1
 84 637 53 649 30 662 c 1
 30 700 l 1
 342 700 l 1
 342 662 l 1
 318 647 288 637 261 633 c 1
 261 67 l 1
 288 62 318 53 342 38 c 1
77 769 m 1
 219 898 l 1
 262 901 336 880 352 861 c 1
 352 841 l 1
 105 745 l 1
 77 769 l 1
EndSplineSet
Validated: 33
EndChar

StartChar: Icircumflex
Encoding: 206 206 143
Width: 372
GlyphClass: 2
Flags: MW
HStem: 0 21G<30 342 30 30> 680 20G<30 342 342 342>
VStem: 111 150<67 633 67 633>
LayerCount: 2
Fore
SplineSet
342 38 m 1
 342 0 l 1
 30 0 l 1
 30 38 l 1
 57 53 84 62 111 67 c 1
 111 633 l 1
 84 637 53 649 30 662 c 1
 30 700 l 1
 342 700 l 1
 342 662 l 1
 318 647 288 637 261 633 c 1
 261 67 l 1
 288 62 318 53 342 38 c 1
184 800 m 1
 58 743 l 1
 30 771 l 1
 157 888 l 2
 170 895 206 895 219 888 c 2
 344 774 l 1
 316 744 l 1
 184 800 l 1
EndSplineSet
Validated: 33
EndChar

StartChar: Idieresis
Encoding: 207 207 144
Width: 372
GlyphClass: 2
Flags: MW
HStem: 0 21G<30 342 30 30> 680 20G<30 342 342 342> 734 123<40.5 87.5 286.5 333.5>
VStem: -17 162<774.5 814.5> 111 150<67 633 67 633> 228 163<774.5 814.5>
LayerCount: 2
Fore
SplineSet
342 38 m 1xe8
 342 0 l 1
 30 0 l 1
 30 38 l 1
 57 53 84 62 111 67 c 1
 111 633 l 1
 84 637 53 649 30 662 c 1
 30 700 l 1
 342 700 l 1
 342 662 l 1
 318 647 288 637 261 633 c 1
 261 67 l 1
 288 62 318 53 342 38 c 1xe8
-17 793 m 0xf4
 -17 836 17 857 64 857 c 0
 111 857 145 836 145 793 c 0
 145 756 111 734 64 734 c 0
 17 734 -17 756 -17 793 c 0xf4
228 793 m 0
 228 836 263 857 310 857 c 0
 357 857 391 836 391 793 c 0
 391 756 357 734 310 734 c 0
 263 734 228 756 228 793 c 0
EndSplineSet
Validated: 1
EndChar

StartChar: Eth
Encoding: 208 208 145
Width: 741
GlyphClass: 2
Flags: MW
HStem: -9 65<314.5 398 314.5 443> 0 21G<25 135 25 25> 329 60<22 107 22 107 251 404> 643 65<307 395.5> 680 20G<25 141 141 163.5>
VStem: 107 144<67 329 60 329 389 633 633 633> 536 165<275.5 431>
LayerCount: 2
Fore
SplineSet
22 329 m 1x76
 22 389 l 1
 107 389 l 1
 107 633 l 1
 76 640 46 650 25 662 c 1
 25 700 l 1
 141 700 l 2xae
 186 700 283 708 331 708 c 0
 562 708 701 585 701 359 c 0
 701 138 575 -9 311 -9 c 0xb6
 276 -9 186 0 135 0 c 2
 25 0 l 1
 25 38 l 1
 48 51 76 62 107 67 c 1
 107 329 l 1
 22 329 l 1x76
318 643 m 0xb6
 294 643 268 642 251 639 c 1
 251 389 l 1
 404 389 l 1
 404 329 l 1
 251 329 l 1
 251 60 l 1
 262 57 308 56 321 56 c 0
 475 56 536 193 536 358 c 0
 536 504 473 643 318 643 c 0xb6
EndSplineSet
Validated: 1
EndChar

StartChar: Ntilde
Encoding: 209 209 146
Width: 758
GlyphClass: 2
Flags: MW
HStem: -12 21G<568 653 568 568> 0 21G<20 267 20 20> 680 20G<28 244 244 244 490 738 738 738> 752 92<451.5 456> 786 58 786 90<292.5 370.5>
VStem: 104 77<78 495 78 624> 576 77<284 618 -12 618>
LayerCount: 2
Fore
SplineSet
490 662 m 1x73
 490 700 l 1
 738 700 l 1
 738 662 l 1
 713 642 680 626 653 618 c 1
 653 -12 l 1
 568 -12 l 1xab
 215 498 l 1
 175 575 l 1
 172 575 l 1
 181 495 l 1
 181 78 l 1
 208 71 244 54 267 38 c 1
 267 0 l 1
 20 0 l 1
 20 38 l 1
 44 54 73 69 104 78 c 1
 104 624 l 1
 77 635 49 648 28 663 c 1
 28 700 l 1
 244 700 l 1
 531 284 l 1
 577 198 l 1
 581 198 l 1
 576 284 l 1
 576 618 l 1
 544 629 513 645 490 662 c 1x73
534 864 m 1
 556 817 l 1
 513 774 480 752 432 752 c 0x73
 382 752 344 786 302 786 c 0
 283 786 260 780 239 761 c 1
 211 808 l 1
 262 853 307 876 346 876 c 0x67
 395 876 430 844 473 844 c 0
 490 844 513 849 534 864 c 1
EndSplineSet
Validated: 1
EndChar

StartChar: Ograve
Encoding: 210 210 147
Width: 754
GlyphClass: 2
Flags: MW
HStem: -12 65<323.5 443.5 323.5 486.5> 647 65<307 433>
VStem: 39 170<264.5 435.5 264.5 454.5> 544 170<264.5 435.5>
LayerCount: 2
Fore
SplineSet
39 350 m 0
 39 559 158 712 377 712 c 0
 596 712 714 559 714 350 c 0
 714 141 596 -12 377 -12 c 0
 158 -12 39 141 39 350 c 0
209 350 m 0
 209 179 261 53 386 53 c 0
 501 53 544 179 544 350 c 0
 544 521 497 647 369 647 c 0
 245 647 209 521 209 350 c 0
336 898 m 1
 463 764 l 1
 429 745 l 1
 193 841 l 1
 193 861 l 1
 200 883 307 906 336 898 c 1
EndSplineSet
Validated: 33
EndChar

StartChar: Oacute
Encoding: 211 211 148
Width: 754
GlyphClass: 2
Flags: MW
HStem: -12 65<323.5 443.5 323.5 486.5> 647 65<307 433>
VStem: 39 170<264.5 435.5 264.5 454.5> 544 170<264.5 435.5>
LayerCount: 2
Fore
SplineSet
39 350 m 0
 39 559 158 712 377 712 c 0
 596 712 714 559 714 350 c 0
 714 141 596 -12 377 -12 c 0
 158 -12 39 141 39 350 c 0
209 350 m 0
 209 179 261 53 386 53 c 0
 501 53 544 179 544 350 c 0
 544 521 497 647 369 647 c 0
 245 647 209 521 209 350 c 0
283 769 m 1
 425 898 l 1
 468 901 542 880 558 861 c 1
 558 841 l 1
 311 745 l 1
 283 769 l 1
EndSplineSet
Validated: 33
EndChar

StartChar: Ocircumflex
Encoding: 212 212 149
Width: 754
GlyphClass: 2
Flags: MW
HStem: -12 65<323.5 443.5 323.5 486.5> 647 65<307 433>
VStem: 39 170<264.5 435.5 264.5 454.5> 544 170<264.5 435.5>
LayerCount: 2
Fore
SplineSet
39 350 m 0
 39 559 158 712 377 712 c 0
 596 712 714 559 714 350 c 0
 714 141 596 -12 377 -12 c 0
 158 -12 39 141 39 350 c 0
209 350 m 0
 209 179 261 53 386 53 c 0
 501 53 544 179 544 350 c 0
 544 521 497 647 369 647 c 0
 245 647 209 521 209 350 c 0
374 800 m 1
 248 743 l 1
 220 771 l 1
 347 888 l 2
 360 895 396 895 409 888 c 2
 534 774 l 1
 506 744 l 1
 374 800 l 1
EndSplineSet
Validated: 33
EndChar

StartChar: Otilde
Encoding: 213 213 150
Width: 754
GlyphClass: 2
Flags: MW
HStem: -12 65<323.5 443.5 323.5 486.5> 647 65<307 433> 752 92<445.5 450> 786 58 786 90<286.5 364.5>
VStem: 39 170<264.5 435.5 264.5 454.5> 544 170<264.5 435.5>
LayerCount: 2
Fore
SplineSet
39 350 m 0xd6
 39 559 158 712 377 712 c 0
 596 712 714 559 714 350 c 0
 714 141 596 -12 377 -12 c 0
 158 -12 39 141 39 350 c 0xd6
209 350 m 0
 209 179 261 53 386 53 c 0
 501 53 544 179 544 350 c 0
 544 521 497 647 369 647 c 0
 245 647 209 521 209 350 c 0
528 864 m 1
 550 817 l 1
 507 774 474 752 426 752 c 0xe6
 376 752 338 786 296 786 c 0
 277 786 254 780 233 761 c 1
 205 808 l 1
 256 853 301 876 340 876 c 0xce
 389 876 424 844 467 844 c 0
 484 844 507 849 528 864 c 1
EndSplineSet
Validated: 1
EndChar

StartChar: Odieresis
Encoding: 214 214 151
Width: 754
GlyphClass: 2
Flags: MW
HStem: -12 65<323.5 443.5 323.5 486.5> 647 65<307 433> 734 123<230.5 277.5 476.5 523.5>
VStem: 39 170<264.5 435.5 264.5 454.5> 173 162<774.5 814.5> 418 163<774.5 814.5> 544 170<264.5 435.5>
LayerCount: 2
Fore
SplineSet
39 350 m 0xf2
 39 559 158 712 377 712 c 0
 596 712 714 559 714 350 c 0
 714 141 596 -12 377 -12 c 0
 158 -12 39 141 39 350 c 0xf2
209 350 m 0
 209 179 261 53 386 53 c 0
 501 53 544 179 544 350 c 0
 544 521 497 647 369 647 c 0
 245 647 209 521 209 350 c 0
173 793 m 0xec
 173 836 207 857 254 857 c 0
 301 857 335 836 335 793 c 0
 335 756 301 734 254 734 c 0
 207 734 173 756 173 793 c 0xec
418 793 m 0
 418 836 453 857 500 857 c 0
 547 857 581 836 581 793 c 0
 581 756 547 734 500 734 c 0
 453 734 418 756 418 793 c 0
EndSplineSet
Validated: 1
EndChar

StartChar: multiply
Encoding: 215 215 152
Width: 565
GlyphClass: 2
Flags: MW
HStem: 154 21G<414 414> 511 20G<412 412>
LayerCount: 2
Fore
SplineSet
150 157 m 1
 94 213 l 1
 224 344 l 1
 96 473 l 1
 152 529 l 1
 281 401 l 1
 412 531 l 1
 468 475 l 1
 338 344 l 1
 471 211 l 1
 414 154 l 1
 281 287 l 1
 150 157 l 1
EndSplineSet
Validated: 1
EndChar

StartChar: Oslash
Encoding: 216 216 153
Width: 754
GlyphClass: 2
Flags: MW
HStem: -18 21G<188 188> -12 65<361.5 443.5 361.5 486.5> 647 65<307 395> 698 20G<569 569>
VStem: 39 170<320 435.5 320 454.5> 544 170<264.5 378.5>
LayerCount: 2
Fore
SplineSet
39 350 m 0xac
 39 559 158 712 377 712 c 0x6c
 441 712 495 698 542 674 c 1
 569 718 l 1
 632 679 l 1
 603 633 l 1
 676 568 714 469 714 350 c 0
 714 141 596 -12 377 -12 c 0x5c
 313 -12 261 1 214 24 c 1
 188 -18 l 1
 127 21 l 1
 153 63 l 1
 77 128 39 229 39 350 c 0xac
209 350 m 0
 209 290 218 237 237 194 c 1
 486 588 l 1
 459 625 421 647 369 647 c 0
 245 647 209 521 209 350 c 0
544 350 m 0
 544 407 537 458 518 501 c 1
 270 110 l 1
 298 72 337 53 386 53 c 0
 501 53 544 179 544 350 c 0
EndSplineSet
Validated: 1
EndChar

StartChar: Ugrave
Encoding: 217 217 154
Width: 715
GlyphClass: 2
Flags: MW
HStem: -9 83<349.5 443 349.5 451> 680 20G<7 315 315 315 462 710 710 710>
VStem: 89 150<243 248 248 633> 550 77<253 628>
LayerCount: 2
Fore
SplineSet
7 662 m 1
 7 700 l 1
 315 700 l 1
 315 662 l 1
 293 648 268 638 239 633 c 1
 239 248 l 2
 239 118 300 74 399 74 c 0
 487 74 550 121 550 253 c 2
 550 628 l 1
 519 635 483 647 462 662 c 1
 462 700 l 1
 710 700 l 1
 710 662 l 1
 686 645 655 635 627 628 c 1
 627 252 l 2
 627 81 533 -9 369 -9 c 0
 190 -9 89 67 89 243 c 2
 89 633 l 1
 62 637 31 647 7 662 c 1
325 898 m 1
 452 764 l 1
 418 745 l 1
 182 841 l 1
 182 861 l 1
 189 883 296 906 325 898 c 1
EndSplineSet
Validated: 33
EndChar

StartChar: Uacute
Encoding: 218 218 155
Width: 715
GlyphClass: 2
Flags: MW
HStem: -9 83<349.5 443 349.5 451> 680 20G<7 315 315 315 462 710 710 710>
VStem: 89 150<243 248 248 633> 550 77<253 628>
LayerCount: 2
Fore
SplineSet
7 662 m 1
 7 700 l 1
 315 700 l 1
 315 662 l 1
 293 648 268 638 239 633 c 1
 239 248 l 2
 239 118 300 74 399 74 c 0
 487 74 550 121 550 253 c 2
 550 628 l 1
 519 635 483 647 462 662 c 1
 462 700 l 1
 710 700 l 1
 710 662 l 1
 686 645 655 635 627 628 c 1
 627 252 l 2
 627 81 533 -9 369 -9 c 0
 190 -9 89 67 89 243 c 2
 89 633 l 1
 62 637 31 647 7 662 c 1
357 769 m 1
 499 898 l 1
 542 901 616 880 632 861 c 1
 632 841 l 1
 385 745 l 1
 357 769 l 1
EndSplineSet
Validated: 33
EndChar

StartChar: Ucircumflex
Encoding: 219 219 156
Width: 715
GlyphClass: 2
Flags: MW
HStem: -9 83<349.5 443 349.5 451> 680 20G<7 315 315 315 462 710 710 710>
VStem: 89 150<243 248 248 633> 550 77<253 628>
LayerCount: 2
Fore
SplineSet
7 662 m 1
 7 700 l 1
 315 700 l 1
 315 662 l 1
 293 648 268 638 239 633 c 1
 239 248 l 2
 239 118 300 74 399 74 c 0
 487 74 550 121 550 253 c 2
 550 628 l 1
 519 635 483 647 462 662 c 1
 462 700 l 1
 710 700 l 1
 710 662 l 1
 686 645 655 635 627 628 c 1
 627 252 l 2
 627 81 533 -9 369 -9 c 0
 190 -9 89 67 89 243 c 2
 89 633 l 1
 62 637 31 647 7 662 c 1
389 800 m 1
 263 743 l 1
 235 771 l 1
 362 888 l 2
 375 895 411 895 424 888 c 2
 549 774 l 1
 521 744 l 1
 389 800 l 1
EndSplineSet
Validated: 33
EndChar

StartChar: Udieresis
Encoding: 220 220 157
Width: 715
GlyphClass: 2
Flags: MW
HStem: -9 83<349.5 443 349.5 451> 680 20G<7 315 315 315 462 710 710 710> 734 123<243.5 290.5 489.5 536.5>
VStem: 89 150<243 248 248 633> 186 162<774.5 814.5> 431 163<774.5 814.5> 550 77<253 628>
LayerCount: 2
Fore
SplineSet
7 662 m 1xf2
 7 700 l 1
 315 700 l 1
 315 662 l 1
 293 648 268 638 239 633 c 1
 239 248 l 2
 239 118 300 74 399 74 c 0
 487 74 550 121 550 253 c 2
 550 628 l 1
 519 635 483 647 462 662 c 1
 462 700 l 1
 710 700 l 1
 710 662 l 1
 686 645 655 635 627 628 c 1
 627 252 l 2
 627 81 533 -9 369 -9 c 0
 190 -9 89 67 89 243 c 2
 89 633 l 1
 62 637 31 647 7 662 c 1xf2
186 793 m 0xec
 186 836 220 857 267 857 c 0
 314 857 348 836 348 793 c 0
 348 756 314 734 267 734 c 0
 220 734 186 756 186 793 c 0xec
431 793 m 0
 431 836 466 857 513 857 c 0
 560 857 594 836 594 793 c 0
 594 756 560 734 513 734 c 0
 466 734 431 756 431 793 c 0
EndSplineSet
Validated: 1
EndChar

StartChar: Yacute
Encoding: 221 221 158
Width: 698
GlyphClass: 2
Flags: MW
HStem: 0 21G<201 509 201 201> 680 20G<0 328 328 328 453 698 698 698>
VStem: 283 150<67 292 292 292>
LayerCount: 2
Fore
SplineSet
453 662 m 1
 453 700 l 1
 698 700 l 1
 698 662 l 1
 678 650 652 637 627 633 c 1
 433 293 l 1
 433 67 l 1
 460 64 486 51 509 38 c 1
 509 0 l 1
 201 0 l 1
 201 38 l 1
 224 50 252 62 283 67 c 1
 283 292 l 1
 81 633 l 1
 50 638 23 650 0 662 c 1
 0 700 l 1
 328 700 l 1
 328 662 l 1
 309 651 286 640 254 633 c 1
 397 365 l 1
 533 633 l 1
 502 640 473 651 453 662 c 1
352 769 m 1
 494 898 l 1
 537 901 611 880 627 861 c 1
 627 841 l 1
 380 745 l 1
 352 769 l 1
EndSplineSet
Validated: 33
EndChar

StartChar: Thorn
Encoding: 222 222 159
Width: 636
GlyphClass: 2
Flags: MW
HStem: 0 237<300.5 343.5 300.5 353> 172 65<325.5 343.5 300.5 404.5> 533 65<326.5 348.5> 533 167<292.5 333 21 348.5>
VStem: 102 150<63 175 63 241 241 527 593 638> 443 165<333 436>
LayerCount: 2
Fore
SplineSet
252 175 m 1x6c
 252 63 l 1
 288 59 325 46 353 33 c 1
 353 0 l 1
 20 0 l 1
 20 33 l 1
 45 48 75 57 102 62 c 1
 102 638 l 1
 75 642 44 654 21 667 c 1
 21 700 l 1
 333 700 l 1x9c
 333 667 l 1
 309 652 279 642 252 638 c 1
 252 593 l 1
 279 596 314 598 339 598 c 0
 480 598 608 547 608 391 c 0
 608 243 477 172 332 172 c 0
 319 172 266 172 252 175 c 1x6c
306 533 m 0
 279 533 267 531 252 527 c 1
 252 241 l 1
 264 237 293 237 308 237 c 0
 379 237 443 280 443 386 c 0
 443 486 391 533 306 533 c 0
EndSplineSet
Validated: 1
EndChar

StartChar: germandbls
Encoding: 223 223 160
Width: 701
GlyphClass: 2
Flags: MW
HStem: -12 57<457 486.5 457 537.5> 0 21G<33 243 33 33> 695 57<329.5 387.5>
VStem: 23 220<437 476 476 476> 99 144<63 437 437 437 509 537 0 544 0 627> 303 134<391 460> 458 134 542 134<91.5 166.5>
LayerCount: 2
Fore
SplineSet
458 584 m 1xb6
 458 652 416 695 359 695 c 0
 300 695 243 677 243 537 c 2
 243 0 l 1
 33 0 l 1
 33 39 l 1
 54 51 76 59 99 63 c 1
 99 437 l 1x6e
 23 437 l 1
 23 476 l 1xb6
 46 491 72 502 99 509 c 1
 99 544 l 2
 99 710 251 752 359 752 c 0
 512 752 589 682 592 575 c 1xae
 512 562 437 532 437 452 c 0
 437 330 676 304 676 138 c 0
 676 45 605 -12 470 -12 c 0
 406 -12 337 2 288 26 c 1
 291 66 302 97 317 120 c 1
 351 120 l 1
 420 54 l 1
 435 46 449 45 465 45 c 0
 508 45 542 69 542 109 c 0xb5
 542 224 303 242 303 420 c 0
 303 500 366 556 458 584 c 1xb6
EndSplineSet
Validated: 1
EndChar

StartChar: agrave
Encoding: 224 224 161
Width: 557
GlyphClass: 2
Flags: MW
HStem: -12 80<138.5 273.5> -10 21G<349 383 349 349> 242 47<331 331> 455 57<248.5 292.5> 567 21G<309 309>
VStem: 27 150<122.5 181.5 122.5 186.5> 331 144<142 397 242 397>
LayerCount: 2
Fore
SplineSet
470 145 m 0xb6
 470 116 470 97 473 73 c 1
 542 63 l 1
 542 28 l 1
 509 11 427 -5 383 -10 c 1
 349 -10 l 1x76
 336 21 335 48 334 92 c 1
 329 92 l 1
 316 40 265 -12 182 -12 c 0
 95 -12 27 43 27 127 c 0
 27 246 113 278 331 289 c 1
 342 404 326 455 259 455 c 0
 238 455 219 452 202 445 c 1
 155 325 l 1
 111 325 l 1
 90 357 69 411 64 456 c 1
 115 491 200 512 289 512 c 0
 440 512 475 441 475 353 c 0
 475 273 470 213 470 145 c 0xb6
245 68 m 0xb6
 302 68 323 115 331 142 c 1
 331 242 l 1
 206 239 177 215 177 148 c 0
 177 97 202 68 245 68 c 0xb6
261 763 m 1x08
 354 589 l 1
 309 567 l 1
 123 712 l 1
 123 741 l 1
 141 759 242 768 261 763 c 1x08
EndSplineSet
Validated: 33
EndChar

StartChar: aacute
Encoding: 225 225 162
Width: 557
GlyphClass: 2
Flags: MW
HStem: -12 80<138.5 273.5> -10 21G<349 383 349 349> 242 47<331 331> 455 57<248.5 292.5>
VStem: 27 150<122.5 181.5 122.5 186.5> 331 144<142 397 242 397>
LayerCount: 2
Fore
SplineSet
470 145 m 0xbc
 470 116 470 97 473 73 c 1
 542 63 l 1
 542 28 l 1
 509 11 427 -5 383 -10 c 1
 349 -10 l 1x7c
 336 21 335 48 334 92 c 1
 329 92 l 1
 316 40 265 -12 182 -12 c 0
 95 -12 27 43 27 127 c 0
 27 246 113 278 331 289 c 1
 342 404 326 455 259 455 c 0
 238 455 219 452 202 445 c 1
 155 325 l 1
 111 325 l 1
 90 357 69 411 64 456 c 1
 115 491 200 512 289 512 c 0
 440 512 475 441 475 353 c 0
 475 273 470 213 470 145 c 0xbc
245 68 m 0xbc
 302 68 323 115 331 142 c 1
 331 242 l 1
 206 239 177 215 177 148 c 0
 177 97 202 68 245 68 c 0xbc
208 584 m 1
 316 763 l 1
 339 769 425 758 439 741 c 1
 439 717 l 1
 248 562 l 1
 208 584 l 1
EndSplineSet
Validated: 33
EndChar

StartChar: acircumflex
Encoding: 226 226 163
Width: 557
GlyphClass: 2
Flags: MW
HStem: -12 80<138.5 273.5> -10 21G<349 383 349 349> 242 47<331 331> 455 57<248.5 292.5> 577 21G<186 186 379 379>
VStem: 27 150<122.5 181.5 122.5 186.5> 331 144<142 397 242 397>
LayerCount: 2
Fore
SplineSet
470 145 m 0xb6
 470 116 470 97 473 73 c 1
 542 63 l 1
 542 28 l 1
 509 11 427 -5 383 -10 c 1
 349 -10 l 1x76
 336 21 335 48 334 92 c 1
 329 92 l 1
 316 40 265 -12 182 -12 c 0
 95 -12 27 43 27 127 c 0
 27 246 113 278 331 289 c 1
 342 404 326 455 259 455 c 0
 238 455 219 452 202 445 c 1
 155 325 l 1
 111 325 l 1
 90 357 69 411 64 456 c 1
 115 491 200 512 289 512 c 0
 440 512 475 441 475 353 c 0
 475 273 470 213 470 145 c 0xb6
245 68 m 0xb6
 302 68 323 115 331 142 c 1
 331 242 l 1
 206 239 177 215 177 148 c 0
 177 97 202 68 245 68 c 0xb6
276 675 m 1x08
 186 577 l 1
 144 602 l 1
 254 788 l 2
 262 795 294 796 306 788 c 1
 420 603 l 1
 379 577 l 1
 276 675 l 1x08
EndSplineSet
Validated: 33
EndChar

StartChar: atilde
Encoding: 227 227 164
Width: 557
GlyphClass: 2
Flags: MW
HStem: -12 80<138.5 273.5> -10 21G<349 383 349 349> 242 47<331 331> 455 57<248.5 292.5> 602 92<288 360.5> 636 58 636 90<179.5 255>
VStem: 27 150<122.5 181.5 122.5 186.5> 331 144<142 397 242 397>
LayerCount: 2
Fore
SplineSet
470 145 m 0xb980
 470 116 470 97 473 73 c 1
 542 63 l 1
 542 28 l 1
 509 11 427 -5 383 -10 c 1
 349 -10 l 1x7980
 336 21 335 48 334 92 c 1
 329 92 l 1
 316 40 265 -12 182 -12 c 0
 95 -12 27 43 27 127 c 0
 27 246 113 278 331 289 c 1
 342 404 326 455 259 455 c 0
 238 455 219 452 202 445 c 1
 155 325 l 1
 111 325 l 1
 90 357 69 411 64 456 c 1
 115 491 200 512 289 512 c 0
 440 512 475 441 475 353 c 0
 475 273 470 213 470 145 c 0xb980
245 68 m 0xb580
 302 68 323 115 331 142 c 1
 331 242 l 1
 206 239 177 215 177 148 c 0
 177 97 202 68 245 68 c 0xb580
407 709 m 1
 429 667 l 1
 389 622 343 602 312 602 c 0xb980
 264 602 228 636 188 636 c 0
 171 636 153 631 132 616 c 1
 104 658 l 1
 153 709 200 726 231 726 c 0xb380
 279 726 311 694 352 694 c 0
 369 694 386 696 407 709 c 1
EndSplineSet
Validated: 33
EndChar

StartChar: adieresis
Encoding: 228 228 165
Width: 557
GlyphClass: 2
Flags: MW
HStem: -12 80<138.5 273.5> -10 21G<349 383 349 349> 242 47<331 331> 455 57<248.5 292.5> 591 138<125 168.5 363.5 407>
VStem: 27 150<122.5 181.5 122.5 186.5> 74 146<639 680.5> 313 146<639 680.5> 331 144<142 397 242 397>
LayerCount: 2
Fore
SplineSet
470 145 m 0xb480
 470 116 470 97 473 73 c 1
 542 63 l 1
 542 28 l 1
 509 11 427 -5 383 -10 c 1
 349 -10 l 1x7480
 336 21 335 48 334 92 c 1
 329 92 l 1
 316 40 265 -12 182 -12 c 0
 95 -12 27 43 27 127 c 0
 27 246 113 278 331 289 c 1
 342 404 326 455 259 455 c 0
 238 455 219 452 202 445 c 1
 155 325 l 1
 111 325 l 1
 90 357 69 411 64 456 c 1
 115 491 200 512 289 512 c 0
 440 512 475 441 475 353 c 0
 475 273 470 213 470 145 c 0xb480
245 68 m 0xb480
 302 68 323 115 331 142 c 1
 331 242 l 1
 206 239 177 215 177 148 c 0
 177 97 202 68 245 68 c 0xb480
74 659 m 0x0b
 74 702 103 729 147 729 c 0
 190 729 220 702 220 659 c 0
 220 619 190 591 147 591 c 0
 103 591 74 619 74 659 c 0x0b
313 659 m 0
 313 702 342 729 385 729 c 0
 429 729 459 702 459 659 c 0
 459 619 429 591 385 591 c 0
 342 591 313 619 313 659 c 0
EndSplineSet
Validated: 33
EndChar

StartChar: aring
Encoding: 229 229 166
Width: 557
GlyphClass: 2
Flags: MW
HStem: -12 80<138.5 273.5> -10 21G<349 383 349 349> 242 47<331 331> 455 57<248.5 292.5> 584 50<256.5 281.5 256.5 305> 730 50<255.5 280.5>
VStem: 27 150<122.5 181.5 122.5 186.5> 154 75<665.5 697.5 665.5 706.5> 309 75<663.5 696> 331 144<142 397 242 397>
LayerCount: 2
Fore
SplineSet
470 145 m 0xbe40
 470 116 470 97 473 73 c 1
 542 63 l 1
 542 28 l 1
 509 11 427 -5 383 -10 c 1
 349 -10 l 1x7e80
 336 21 335 48 334 92 c 1
 329 92 l 1
 316 40 265 -12 182 -12 c 0
 95 -12 27 43 27 127 c 0
 27 246 113 278 331 289 c 1
 342 404 326 455 259 455 c 0
 238 455 219 452 202 445 c 1
 155 325 l 1
 111 325 l 1
 90 357 69 411 64 456 c 1
 115 491 200 512 289 512 c 0
 440 512 475 441 475 353 c 0
 475 273 470 213 470 145 c 0xbe40
245 68 m 0xbe40
 302 68 323 115 331 142 c 1
 331 242 l 1
 206 239 177 215 177 148 c 0
 177 97 202 68 245 68 c 0xbe40
154 679 m 0xbd80
 154 734 196 780 272 780 c 0
 343 780 384 741 384 682 c 0
 384 626 339 584 271 584 c 0
 194 584 154 623 154 679 c 0xbd80
229 681 m 0
 229 650 245 634 268 634 c 0
 295 634 309 649 309 678 c 0
 309 714 292 730 269 730 c 0
 242 730 229 714 229 681 c 0
EndSplineSet
Validated: 33
EndChar

StartChar: ae
Encoding: 230 230 167
Width: 823
GlyphClass: 2
Flags: MW
HStem: -12 80<138.5 273.5 578.5 624.5> 241 48 455 57<248.5 292.5 539.5 596>
VStem: 27 150<122.5 181.5 122.5 186.5> 330 142<241 241 241 242 241 242>
LayerCount: 2
Fore
SplineSet
424 465 m 1
 447 489 486 512 570 512 c 0
 708 512 814 442 779 241 c 1
 472 241 l 1
 473 136 528 68 629 68 c 0
 674 68 726 83 753 104 c 1
 772 84 l 1
 750 38 677 -12 572 -12 c 0
 484 -12 404 18 357 94 c 1
 338 37 265 -12 182 -12 c 0
 95 -12 27 43 27 127 c 0
 27 246 111 278 330 289 c 1
 341 404 326 455 259 455 c 0
 238 455 219 452 202 445 c 1
 155 325 l 1
 111 325 l 1
 90 357 69 411 64 456 c 1
 115 491 200 512 289 512 c 0
 370 512 405 493 424 465 c 1
245 68 m 0
 302 68 322 113 330 140 c 1
 330 242 l 1
 206 239 177 215 177 148 c 0
 177 97 202 68 245 68 c 0
566 455 m 0
 513 455 483 422 475 293 c 1
 636 293 l 1
 645 397 626 455 566 455 c 0
EndSplineSet
Validated: 33
EndChar

StartChar: ccedilla
Encoding: 231 231 168
Width: 484
GlyphClass: 2
Flags: MW
HStem: -257 189<190 261> -12 80<284.5 323> 455 57<256 300.5>
VStem: 31 155<204 333 204 334.5> 260 125<-176.5 -161>
LayerCount: 2
Fore
SplineSet
440 102 m 1
 456 81 l 1
 438 29 364 -12 282 -12 c 1
 261 -68 l 1
 341 -72 384 -96 385 -144 c 0
 385 -220 284 -257 190 -257 c 1
 190 -218 l 1
 237 -211 260 -192 260 -161 c 0
 259 -130 234 -119 187 -114 c 1
 225 -7 l 1
 90 13 31 110 31 250 c 0
 31 419 127 512 298 512 c 0
 363 512 420 496 456 477 c 1
 451 432 437 362 420 326 c 1
 371 326 l 1
 329 445 l 1
 320 452 311 455 290 455 c 0
 222 455 186 408 186 258 c 0
 186 150 234 68 335 68 c 0
 382 68 416 83 440 102 c 1
EndSplineSet
Validated: 1
EndChar

StartChar: egrave
Encoding: 232 232 169
Width: 537
GlyphClass: 2
Flags: MW
HStem: -12 80<291.5 338.5> 241 52<189 350 189 493 186 350> 455 57<253.5 310> 567 21G<311 311>
VStem: 31 155<241 241 241 335.5>
LayerCount: 2
Fore
SplineSet
467 104 m 1
 486 84 l 1
 464 38 391 -12 286 -12 c 0
 120 -12 31 91 31 250 c 0
 31 421 125 512 284 512 c 0
 422 512 528 442 493 241 c 1
 186 241 l 1
 187 136 240 68 343 68 c 0
 387 68 440 83 467 104 c 1
280 455 m 0
 227 455 197 422 189 293 c 1
 350 293 l 1
 359 397 340 455 280 455 c 0
263 763 m 1x10
 356 589 l 1
 311 567 l 1
 125 712 l 1
 125 741 l 1
 143 759 244 768 263 763 c 1x10
EndSplineSet
Validated: 33
EndChar

StartChar: eacute
Encoding: 233 233 170
Width: 537
GlyphClass: 2
Flags: MW
HStem: -12 80<291.5 338.5> 241 52<189 350 189 493 186 350> 455 57<253.5 310>
VStem: 31 155<241 241 241 335.5>
LayerCount: 2
Fore
SplineSet
467 104 m 1
 486 84 l 1
 464 38 391 -12 286 -12 c 0
 120 -12 31 91 31 250 c 0
 31 421 125 512 284 512 c 0
 422 512 528 442 493 241 c 1
 186 241 l 1
 187 136 240 68 343 68 c 0
 387 68 440 83 467 104 c 1
280 455 m 0
 227 455 197 422 189 293 c 1
 350 293 l 1
 359 397 340 455 280 455 c 0
200 584 m 1
 308 763 l 1
 331 769 417 758 431 741 c 1
 431 717 l 1
 240 562 l 1
 200 584 l 1
EndSplineSet
Validated: 33
EndChar

StartChar: ecircumflex
Encoding: 234 234 171
Width: 537
GlyphClass: 2
Flags: MW
HStem: -12 80<291.5 338.5> 241 52<189 350 189 493 186 350> 455 57<253.5 310> 577 21G<183 183 376 376>
VStem: 31 155<241 241 241 335.5>
LayerCount: 2
Fore
SplineSet
467 104 m 1
 486 84 l 1
 464 38 391 -12 286 -12 c 0
 120 -12 31 91 31 250 c 0
 31 421 125 512 284 512 c 0
 422 512 528 442 493 241 c 1
 186 241 l 1
 187 136 240 68 343 68 c 0
 387 68 440 83 467 104 c 1
280 455 m 0
 227 455 197 422 189 293 c 1
 350 293 l 1
 359 397 340 455 280 455 c 0
273 675 m 1x10
 183 577 l 1
 141 602 l 1
 251 788 l 2
 259 795 291 796 303 788 c 1
 417 603 l 1
 376 577 l 1
 273 675 l 1x10
EndSplineSet
Validated: 33
EndChar

StartChar: edieresis
Encoding: 235 235 172
Width: 537
GlyphClass: 2
Flags: MW
HStem: -12 80<291.5 338.5> 241 52<189 350 189 493 186 350> 455 57<253.5 310> 591 138<134 177.5 372.5 416>
VStem: 31 155<241 241 241 335.5> 83 146<639 680.5> 322 146<639 680.5>
LayerCount: 2
Fore
SplineSet
467 104 m 1xfa
 486 84 l 1
 464 38 391 -12 286 -12 c 0
 120 -12 31 91 31 250 c 0
 31 421 125 512 284 512 c 0
 422 512 528 442 493 241 c 1
 186 241 l 1
 187 136 240 68 343 68 c 0
 387 68 440 83 467 104 c 1xfa
280 455 m 0
 227 455 197 422 189 293 c 1
 350 293 l 1
 359 397 340 455 280 455 c 0
83 659 m 0xf6
 83 702 112 729 156 729 c 0
 199 729 229 702 229 659 c 0
 229 619 199 591 156 591 c 0
 112 591 83 619 83 659 c 0xf6
322 659 m 0
 322 702 351 729 394 729 c 0
 438 729 468 702 468 659 c 0
 468 619 438 591 394 591 c 0
 351 591 322 619 322 659 c 0
EndSplineSet
Validated: 33
EndChar

StartChar: igrave
Encoding: 236 236 173
Width: 332
GlyphClass: 2
Flags: MW
HStem: 0 21G<31 307 31 31> 492 20G<207 241 241 241> 567 21G<188 188>
VStem: 31 210<0 512 39 512 437 476 476 476> 97 144<63 429 429 429>
LayerCount: 2
Fore
SplineSet
307 39 m 1xd0
 307 0 l 1
 31 0 l 1
 31 39 l 1xd0
 51 50 72 56 97 63 c 1
 97 429 l 1xc8
 31 437 l 1
 31 476 l 1
 71 492 159 507 207 512 c 1
 241 512 l 1
 241 63 l 1
 268 56 288 50 307 39 c 1xd0
140 763 m 1x20
 233 589 l 1
 188 567 l 1
 2 712 l 1
 2 741 l 1
 20 759 121 768 140 763 c 1x20
EndSplineSet
Validated: 33
EndChar

StartChar: iacute
Encoding: 237 237 174
Width: 332
GlyphClass: 2
Flags: MW
HStem: 0 21G<31 307 31 31> 492 20G<207 241 241 241>
VStem: 31 210<0 512 39 512 437 476 476 476> 97 144<63 429 429 429>
LayerCount: 2
Fore
SplineSet
307 39 m 1xe0
 307 0 l 1
 31 0 l 1
 31 39 l 1xe0
 51 50 72 56 97 63 c 1
 97 429 l 1xd0
 31 437 l 1
 31 476 l 1
 71 492 159 507 207 512 c 1
 241 512 l 1
 241 63 l 1
 268 56 288 50 307 39 c 1xe0
81 584 m 1
 189 763 l 1
 212 769 298 758 312 741 c 1
 312 717 l 1
 121 562 l 1
 81 584 l 1
EndSplineSet
Validated: 33
EndChar

StartChar: icircumflex
Encoding: 238 238 175
Width: 332
GlyphClass: 2
Flags: MW
HStem: 0 21G<31 307 31 31> 492 20G<207 241 241 241> 577 21G<68 68 261 261>
VStem: 31 210<0 512 39 512 437 476 476 476> 97 144<63 429 429 429>
LayerCount: 2
Fore
SplineSet
307 39 m 1xd0
 307 0 l 1
 31 0 l 1
 31 39 l 1xd0
 51 50 72 56 97 63 c 1
 97 429 l 1xc8
 31 437 l 1
 31 476 l 1
 71 492 159 507 207 512 c 1
 241 512 l 1
 241 63 l 1
 268 56 288 50 307 39 c 1xd0
158 675 m 1x20
 68 577 l 1
 26 602 l 1
 136 788 l 2
 144 795 176 796 188 788 c 1
 302 603 l 1
 261 577 l 1
 158 675 l 1x20
EndSplineSet
Validated: 33
EndChar

StartChar: idieresis
Encoding: 239 239 176
Width: 332
GlyphClass: 2
Flags: MW
HStem: 0 21G<31 307 31 31> 492 20G<207 241 241 241> 591 138<27 70.5 265.5 309>
VStem: -24 146<639 680.5> 31 210<0 512 39 512 437 476 476 476> 97 144<63 429 429 429> 215 146<639 680.5>
LayerCount: 2
Fore
SplineSet
307 39 m 1xe8
 307 0 l 1
 31 0 l 1
 31 39 l 1xe8
 51 50 72 56 97 63 c 1
 97 429 l 1xe4
 31 437 l 1
 31 476 l 1
 71 492 159 507 207 512 c 1
 241 512 l 1
 241 63 l 1
 268 56 288 50 307 39 c 1xe8
-24 659 m 0xf2
 -24 702 5 729 49 729 c 0
 92 729 122 702 122 659 c 0
 122 619 92 591 49 591 c 0
 5 591 -24 619 -24 659 c 0xf2
215 659 m 0
 215 702 244 729 287 729 c 0
 331 729 361 702 361 659 c 0
 361 619 331 591 287 591 c 0
 244 591 215 619 215 659 c 0
EndSplineSet
Validated: 1
EndChar

StartChar: eth
Encoding: 240 240 177
Width: 577
GlyphClass: 2
Flags: MW
HStem: -12 61<252.5 328.5 252.5 372> 437 75<256 287 195.5 310.5> 730 20G<156 253 253 253>
VStem: 24 155<188 314.5 188 332> 393 155<202 309.5>
LayerCount: 2
Fore
SplineSet
203 554 m 1
 175 610 l 1
 271 649 l 1
 238 681 199 708 156 724 c 1
 156 750 l 1
 253 750 l 1
 290 739 327 718 364 688 c 1
 462 728 l 1
 489 672 l 1
 415 641 l 1
 489 559 548 436 548 289 c 0
 548 115 459 -12 285 -12 c 0
 122 -12 24 93 24 242 c 0
 24 422 138 512 253 512 c 0
 321 512 356 486 385 454 c 1
 370 502 347 553 314 600 c 1
 203 554 l 1
179 242 m 0
 179 134 213 49 292 49 c 0
 365 49 393 127 393 274 c 0
 393 345 389 383 382 400 c 1
 363 425 332 437 289 437 c 0
 223 437 179 387 179 242 c 0
EndSplineSet
Validated: 1
EndChar

StartChar: ntilde
Encoding: 241 241 178
Width: 644
GlyphClass: 2
Flags: MW
HStem: 0 21G<23 288 23 23 367 632 367 367> 432 80<359 370.5> 602 92<346 418.5> 636 58 636 90<237.5 313>
VStem: 23 210<0 341 39 341 437 476 476 476> 89 144<63 341 63 409 409 429 429 429> 422 144<63 298 298 302 63 340>
LayerCount: 2
Fore
SplineSet
632 39 m 1xc5
 632 0 l 1
 367 0 l 1
 367 39 l 1
 384 48 399 55 422 63 c 1
 422 298 l 2
 422 382 401 432 340 432 c 0
 289 432 252 397 233 341 c 1
 233 63 l 1
 254 58 269 51 288 39 c 1
 288 0 l 1
 23 0 l 1
 23 39 l 1xc5
 40 48 62 56 89 63 c 1
 89 429 l 1xc3
 23 437 l 1
 23 476 l 1
 57 492 142 507 199 512 c 1
 233 512 l 1
 233 409 l 1
 234 409 l 1
 262 465 319 512 399 512 c 0
 503 512 566 467 566 302 c 2
 566 63 l 1
 593 58 615 50 632 39 c 1xc5
465 709 m 1x10
 487 667 l 1
 447 622 401 602 370 602 c 0x20
 322 602 286 636 246 636 c 0
 229 636 211 631 190 616 c 1
 162 658 l 1
 211 709 258 726 289 726 c 0x08
 337 726 369 694 410 694 c 0
 427 694 444 696 465 709 c 1x10
EndSplineSet
Validated: 1
EndChar

StartChar: ograve
Encoding: 242 242 179
Width: 594
GlyphClass: 2
Flags: MW
HStem: -12 61<261 341 261 380> 451 61<255 335.5> 567 21G<330 330>
VStem: 31 155<189.5 324.5 189.5 331.5> 408 155<175.5 311>
LayerCount: 2
Fore
SplineSet
31 250 m 0
 31 413 133 512 297 512 c 0
 485 512 563 403 563 250 c 0
 563 87 463 -12 297 -12 c 0
 116 -12 31 97 31 250 c 0
186 250 m 0
 186 129 211 49 311 49 c 0
 371 49 408 101 408 250 c 0
 408 372 382 451 289 451 c 0
 221 451 186 399 186 250 c 0
282 763 m 1x20
 375 589 l 1
 330 567 l 1
 144 712 l 1
 144 741 l 1
 162 759 263 768 282 763 c 1x20
EndSplineSet
Validated: 33
EndChar

StartChar: oacute
Encoding: 243 243 180
Width: 594
GlyphClass: 2
Flags: MW
HStem: -12 61<261 341 261 380> 451 61<255 335.5>
VStem: 31 155<189.5 324.5 189.5 331.5> 408 155<175.5 311>
LayerCount: 2
Fore
SplineSet
31 250 m 0
 31 413 133 512 297 512 c 0
 485 512 563 403 563 250 c 0
 563 87 463 -12 297 -12 c 0
 116 -12 31 97 31 250 c 0
186 250 m 0
 186 129 211 49 311 49 c 0
 371 49 408 101 408 250 c 0
 408 372 382 451 289 451 c 0
 221 451 186 399 186 250 c 0
229 584 m 1
 337 763 l 1
 360 769 446 758 460 741 c 1
 460 717 l 1
 269 562 l 1
 229 584 l 1
EndSplineSet
Validated: 33
EndChar

StartChar: ocircumflex
Encoding: 244 244 181
Width: 594
GlyphClass: 2
Flags: MW
HStem: -12 61<261 341 261 380> 451 61<255 335.5> 577 21G<200 200 393 393>
VStem: 31 155<189.5 324.5 189.5 331.5> 408 155<175.5 311>
LayerCount: 2
Fore
SplineSet
31 250 m 0
 31 413 133 512 297 512 c 0
 485 512 563 403 563 250 c 0
 563 87 463 -12 297 -12 c 0
 116 -12 31 97 31 250 c 0
186 250 m 0
 186 129 211 49 311 49 c 0
 371 49 408 101 408 250 c 0
 408 372 382 451 289 451 c 0
 221 451 186 399 186 250 c 0
290 675 m 1x20
 200 577 l 1
 158 602 l 1
 268 788 l 2
 276 795 308 796 320 788 c 1
 434 603 l 1
 393 577 l 1
 290 675 l 1x20
EndSplineSet
Validated: 33
EndChar

StartChar: otilde
Encoding: 245 245 182
Width: 594
GlyphClass: 2
Flags: MW
HStem: -12 61<261 341 261 380> 451 61<255 335.5> 602 92<318 390.5> 636 58 636 90<209.5 285>
VStem: 31 155<189.5 324.5 189.5 331.5> 408 155<175.5 311>
LayerCount: 2
Fore
SplineSet
31 250 m 0xd6
 31 413 133 512 297 512 c 0
 485 512 563 403 563 250 c 0
 563 87 463 -12 297 -12 c 0
 116 -12 31 97 31 250 c 0xd6
186 250 m 0
 186 129 211 49 311 49 c 0
 371 49 408 101 408 250 c 0
 408 372 382 451 289 451 c 0
 221 451 186 399 186 250 c 0
437 709 m 1
 459 667 l 1
 419 622 373 602 342 602 c 0xe6
 294 602 258 636 218 636 c 0
 201 636 183 631 162 616 c 1
 134 658 l 1
 183 709 230 726 261 726 c 0xce
 309 726 341 694 382 694 c 0
 399 694 416 696 437 709 c 1
EndSplineSet
Validated: 1
EndChar

StartChar: odieresis
Encoding: 246 246 183
Width: 594
GlyphClass: 2
Flags: MW
HStem: -12 61<261 341 261 380> 451 61<255 335.5> 591 138<156 199.5 394.5 438>
VStem: 31 155<189.5 324.5 189.5 331.5> 105 146<639 680.5> 344 146<639 680.5> 408 155<175.5 311>
LayerCount: 2
Fore
SplineSet
31 250 m 0xd2
 31 413 133 512 297 512 c 0
 485 512 563 403 563 250 c 0
 563 87 463 -12 297 -12 c 0
 116 -12 31 97 31 250 c 0xd2
186 250 m 0
 186 129 211 49 311 49 c 0
 371 49 408 101 408 250 c 0
 408 372 382 451 289 451 c 0
 221 451 186 399 186 250 c 0
105 659 m 0x2c
 105 702 134 729 178 729 c 0
 221 729 251 702 251 659 c 0
 251 619 221 591 178 591 c 0
 134 591 105 619 105 659 c 0x2c
344 659 m 0
 344 702 373 729 416 729 c 0
 460 729 490 702 490 659 c 0
 490 619 460 591 416 591 c 0
 373 591 344 619 344 659 c 0
EndSplineSet
Validated: 1
EndChar

StartChar: divide
Encoding: 247 247 184
Width: 565
GlyphClass: 2
Flags: MW
HStem: 76 159<255.5 306.5> 306 80<57 507 57 507> 457 159<255.5 306.5>
VStem: 197 170<131 179 512 560>
CounterMasks: 1 e0
LayerCount: 2
Fore
SplineSet
57 306 m 1
 57 386 l 1
 507 386 l 1
 507 306 l 1
 57 306 l 1
197 536 m 0
 197 584 230 616 281 616 c 0
 332 616 367 584 367 536 c 0
 367 488 332 457 281 457 c 0
 230 457 197 488 197 536 c 0
197 155 m 0
 197 203 230 235 281 235 c 0
 332 235 367 203 367 155 c 0
 367 107 332 76 281 76 c 0
 230 76 197 107 197 155 c 0
EndSplineSet
Validated: 1
EndChar

StartChar: oslash
Encoding: 248 248 185
Width: 594
GlyphClass: 2
Flags: MW
HStem: -58 21G<123 123> -12 57<293.5 345.5 293.5 380> 455 57<253.5 309> 530 20G<472 472>
VStem: 31 155<232.5 324.5 232.5 331.5> 408 155<175.5 265.5>
LayerCount: 2
Fore
SplineSet
70 -19 m 1
 114 44 l 1
 57 91 31 162 31 250 c 0
 31 413 133 512 297 512 c 0
 349 512 392 503 428 487 c 1
 472 550 l 1
 526 512 l 1
 484 453 l 1
 539 406 563 335 563 250 c 0
 563 87 463 -12 297 -12 c 0
 249 -12 207 -4 171 11 c 1
 123 -58 l 1
 70 -19 l 1
186 250 m 0
 186 215 189 185 200 161 c 1
 374 412 l 1
 355 439 329 455 289 455 c 0
 218 455 186 399 186 250 c 0
408 250 m 0
 408 281 404 309 395 332 c 1
 223 83 l 1
 243 58 273 45 314 45 c 0
 377 45 408 101 408 250 c 0
EndSplineSet
Validated: 1
EndChar

StartChar: ugrave
Encoding: 249 249 186
Width: 622
GlyphClass: 2
Flags: MW
HStem: -12 80<263 278> -10 21G<405 439 405 405> 492 20G<187 221 221 221 504 538 538 538> 567 21G<343 343>
VStem: 71 144<167.5 240> 394 144<109 109 167 429 429 429>
LayerCount: 2
Fore
SplineSet
71 198 m 0xac
 71 282 77 349 77 429 c 1
 11 437 l 1
 11 476 l 1
 54 492 144 507 187 512 c 1
 221 512 l 1
 221 412 215 315 215 222 c 0
 215 113 233 68 293 68 c 0xac
 334 68 371 98 394 167 c 1
 394 429 l 1
 329 437 l 1
 329 476 l 1
 370 492 455 507 504 512 c 1
 538 512 l 1
 538 71 l 1
 604 63 l 1
 604 28 l 1
 566 12 486 -5 439 -10 c 1
 405 -10 l 1x6c
 398 109 l 1
 394 109 l 1
 381 53 324 -12 232 -12 c 0
 132 -12 71 33 71 198 c 0xac
295 763 m 1x10
 388 589 l 1
 343 567 l 1
 157 712 l 1
 157 741 l 1
 175 759 276 768 295 763 c 1x10
EndSplineSet
Validated: 33
EndChar

StartChar: uacute
Encoding: 250 250 187
Width: 622
GlyphClass: 2
Flags: MW
HStem: -12 80<263 278> -10 21G<405 439 405 405> 492 20G<187 221 221 221 504 538 538 538>
VStem: 71 144<167.5 240> 394 144<109 109 167 429 429 429>
LayerCount: 2
Fore
SplineSet
71 198 m 0xb8
 71 282 77 349 77 429 c 1
 11 437 l 1
 11 476 l 1
 54 492 144 507 187 512 c 1
 221 512 l 1
 221 412 215 315 215 222 c 0
 215 113 233 68 293 68 c 0xb8
 334 68 371 98 394 167 c 1
 394 429 l 1
 329 437 l 1
 329 476 l 1
 370 492 455 507 504 512 c 1
 538 512 l 1
 538 71 l 1
 604 63 l 1
 604 28 l 1
 566 12 486 -5 439 -10 c 1
 405 -10 l 1x78
 398 109 l 1
 394 109 l 1
 381 53 324 -12 232 -12 c 0
 132 -12 71 33 71 198 c 0xb8
227 584 m 1
 335 763 l 1
 358 769 444 758 458 741 c 1
 458 717 l 1
 267 562 l 1
 227 584 l 1
EndSplineSet
Validated: 33
EndChar

StartChar: ucircumflex
Encoding: 251 251 188
Width: 622
GlyphClass: 2
Flags: MW
HStem: -12 80<263 278> -10 21G<405 439 405 405> 492 20G<187 221 221 221 504 538 538 538> 577 21G<211 211 404 404>
VStem: 71 144<167.5 240> 394 144<109 109 167 429 429 429>
LayerCount: 2
Fore
SplineSet
71 198 m 0xac
 71 282 77 349 77 429 c 1
 11 437 l 1
 11 476 l 1
 54 492 144 507 187 512 c 1
 221 512 l 1
 221 412 215 315 215 222 c 0
 215 113 233 68 293 68 c 0xac
 334 68 371 98 394 167 c 1
 394 429 l 1
 329 437 l 1
 329 476 l 1
 370 492 455 507 504 512 c 1
 538 512 l 1
 538 71 l 1
 604 63 l 1
 604 28 l 1
 566 12 486 -5 439 -10 c 1
 405 -10 l 1x6c
 398 109 l 1
 394 109 l 1
 381 53 324 -12 232 -12 c 0
 132 -12 71 33 71 198 c 0xac
301 675 m 1x10
 211 577 l 1
 169 602 l 1
 279 788 l 2
 287 795 319 796 331 788 c 1
 445 603 l 1
 404 577 l 1
 301 675 l 1x10
EndSplineSet
Validated: 33
EndChar

StartChar: udieresis
Encoding: 252 252 189
Width: 622
GlyphClass: 2
Flags: MW
HStem: -12 80<263 278> -10 21G<405 439 405 405> 492 20G<187 221 221 221 504 538 538 538> 591 138<164 207.5 402.5 446>
VStem: 71 144<167.5 240> 113 146<639 680.5> 352 146<639 680.5> 394 144<109 109 167 429 429 429>
LayerCount: 2
Fore
SplineSet
71 198 m 0xb9
 71 282 77 349 77 429 c 1
 11 437 l 1
 11 476 l 1
 54 492 144 507 187 512 c 1
 221 512 l 1
 221 412 215 315 215 222 c 0
 215 113 233 68 293 68 c 0xba
 334 68 371 98 394 167 c 1
 394 429 l 1
 329 437 l 1
 329 476 l 1
 370 492 455 507 504 512 c 1
 538 512 l 1
 538 71 l 1
 604 63 l 1
 604 28 l 1
 566 12 486 -5 439 -10 c 1
 405 -10 l 1x79
 398 109 l 1
 394 109 l 1
 381 53 324 -12 232 -12 c 0
 132 -12 71 33 71 198 c 0xb9
113 659 m 0xb6
 113 702 142 729 186 729 c 0
 229 729 259 702 259 659 c 0
 259 619 229 591 186 591 c 0
 142 591 113 619 113 659 c 0xb6
352 659 m 0
 352 702 381 729 424 729 c 0
 468 729 498 702 498 659 c 0
 498 619 468 591 424 591 c 0
 381 591 352 619 352 659 c 0
EndSplineSet
Validated: 1
EndChar

StartChar: yacute
Encoding: 253 253 190
Width: 528
GlyphClass: 2
Flags: MW
HStem: -215 21G 480 20G<-15 248 248 248 350 543 543 543> 562 21G<243 243>
LayerCount: 2
Fore
SplineSet
250 0 m 1
 38 437 l 1
 18 442 2 450 -15 461 c 1
 -15 500 l 1
 248 500 l 1
 248 462 l 1
 234 453 215 444 191 437 c 1
 292 186 l 1
 309 122 l 1
 311 122 l 1
 327 187 l 1
 405 437 l 1
 385 441 367 449 350 461 c 1
 350 500 l 1
 543 500 l 1
 543 461 l 1
 529 452 510 444 486 437 c 1
 323 0 l 2
 259 -171 195 -207 131 -215 c 1
 105 -192 87 -139 84 -102 c 1
 97 -78 l 1
 219 -78 l 1
 231 -59 238 -43 250 0 c 1
203 584 m 1x20
 311 763 l 1
 334 769 420 758 434 741 c 1
 434 717 l 1
 243 562 l 1
 203 584 l 1x20
EndSplineSet
Validated: 33
EndChar

StartChar: thorn
Encoding: 254 254 191
Width: 609
GlyphClass: 2
Flags: MW
HStem: -200 245<291.5 296> -12 57<302.5 349 291.5 403> 432 80<342.5 363.5> 732 20G<196 230 230 230>
VStem: 20 210<-200 8 -161 8> 86 144<-137 8 -137 68 68 334 400 669 669 669> 422 155<190.5 315.5>
LayerCount: 2
Fore
SplineSet
86 -137 m 1xb6
 86 669 l 1xb6
 10 677 l 1
 10 716 l 1
 46 732 140 747 196 752 c 1
 230 752 l 1
 230 400 l 1
 231 400 l 1
 254 464 299 512 386 512 c 0
 503 512 577 437 577 261 c 0
 577 92 481 -12 325 -12 c 0x7a
 280 -12 259 -7 230 8 c 1
 230 -137 l 1
 251 -140 272 -146 296 -161 c 1
 296 -200 l 1
 20 -200 l 1
 20 -161 l 1xba
 43 -150 65 -142 86 -137 c 1xb6
328 432 m 0
 283 432 245 401 230 334 c 1
 230 68 l 1
 251 52 272 45 311 45 c 0
 387 45 422 120 422 261 c 0
 422 370 399 432 328 432 c 0
EndSplineSet
Validated: 1
EndChar

StartChar: ydieresis
Encoding: 255 255 192
Width: 528
GlyphClass: 2
Flags: MW
HStem: -215 21G 500 91<138 181.5 138 248 138 248 376.5 420> 591 138<138 181.5 376.5 420>
VStem: 87 146<639 680.5> 326 146<639 680.5>
LayerCount: 2
Fore
SplineSet
250 0 m 1xd8
 38 437 l 1
 18 442 2 450 -15 461 c 1
 -15 500 l 1
 248 500 l 1
 248 462 l 1
 234 453 215 444 191 437 c 1
 292 186 l 1
 309 122 l 1
 311 122 l 1
 327 187 l 1
 405 437 l 1
 385 441 367 449 350 461 c 1
 350 500 l 1
 543 500 l 1
 543 461 l 1
 529 452 510 444 486 437 c 1
 323 0 l 2
 259 -171 195 -207 131 -215 c 1
 105 -192 87 -139 84 -102 c 1
 97 -78 l 1
 219 -78 l 1
 231 -59 238 -43 250 0 c 1xd8
87 659 m 0
 87 702 116 729 160 729 c 0xb8
 203 729 233 702 233 659 c 0
 233 619 203 591 160 591 c 0
 116 591 87 619 87 659 c 0
326 659 m 0
 326 702 355 729 398 729 c 0
 442 729 472 702 472 659 c 0
 472 619 442 591 398 591 c 0
 355 591 326 619 326 659 c 0
EndSplineSet
Validated: 1
EndChar

StartChar: Amacron
Encoding: 256 256 193
Width: 729
GlyphClass: 2
Flags: MW
HStem: 0 21G<0 247 0 0 416 416 416 729> 226 65<243 420 243 441 219 420> 692 20G<329 403 403 403> 779 70<206 530 206 530>
LayerCount: 2
Fore
SplineSet
247 38 m 1
 247 0 l 1
 0 0 l 1
 0 38 l 1
 21 51 47 62 71 67 c 1
 329 712 l 1
 403 712 l 1
 654 67 l 1
 681 62 709 51 729 38 c 1
 729 0 l 1
 416 0 l 1
 416 38 l 1
 441 50 472 62 499 67 c 1
 441 226 l 1
 219 226 l 1
 160 67 l 1
 191 63 220 53 247 38 c 1
312 480 m 1
 243 291 l 1
 420 291 l 1
 355 482 l 1
 336 568 l 1
 334 568 l 1
 312 480 l 1
530 779 m 1
 206 779 l 1
 206 849 l 1
 530 849 l 1
 530 779 l 1
EndSplineSet
Validated: 1
EndChar

StartChar: amacron
Encoding: 257 257 194
Width: 557
GlyphClass: 2
Flags: MW
HStem: -12 80<138.5 273.5> -10 21G<349 383 349 349> 242 47<331 331> 455 57<248.5 292.5> 619 70<127 421 127 421>
VStem: 27 150<122.5 181.5 122.5 186.5> 331 144<142 397 242 397>
LayerCount: 2
Fore
SplineSet
470 145 m 0xb6
 470 116 470 97 473 73 c 1
 542 63 l 1
 542 28 l 1
 509 11 427 -5 383 -10 c 1
 349 -10 l 1x76
 336 21 335 48 334 92 c 1
 329 92 l 1
 316 40 265 -12 182 -12 c 0
 95 -12 27 43 27 127 c 0
 27 246 113 278 331 289 c 1
 342 404 326 455 259 455 c 0
 238 455 219 452 202 445 c 1
 155 325 l 1
 111 325 l 1
 90 357 69 411 64 456 c 1
 115 491 200 512 289 512 c 0
 440 512 475 441 475 353 c 0
 475 273 470 213 470 145 c 0xb6
245 68 m 0xb6
 302 68 323 115 331 142 c 1
 331 242 l 1
 206 239 177 215 177 148 c 0
 177 97 202 68 245 68 c 0xb6
421 619 m 1x08
 127 619 l 1
 127 689 l 1
 421 689 l 1
 421 619 l 1x08
EndSplineSet
Validated: 33
EndChar

StartChar: Abreve
Encoding: 258 258 195
Width: 729
GlyphClass: 2
Flags: MW
HStem: 0 21G<0 247 0 0 416 416 416 729> 226 65<243 420 243 441 219 420> 692 20G<329 403 403 403> 759 93<351 393 351 412>
LayerCount: 2
Fore
SplineSet
247 38 m 1
 247 0 l 1
 0 0 l 1
 0 38 l 1
 21 51 47 62 71 67 c 1
 329 712 l 1
 403 712 l 1
 654 67 l 1
 681 62 709 51 729 38 c 1
 729 0 l 1
 416 0 l 1
 416 38 l 1
 441 50 472 62 499 67 c 1
 441 226 l 1
 219 226 l 1
 160 67 l 1
 191 63 220 53 247 38 c 1
312 480 m 1
 243 291 l 1
 420 291 l 1
 355 482 l 1
 336 568 l 1
 334 568 l 1
 312 480 l 1
495 897 m 1
 504 898 527 887 536 874 c 1
 512 816 454 759 370 759 c 0
 281 759 223 804 198 876 c 1
 207 892 229 903 249 900 c 1
 268 870 331 852 371 852 c 0
 415 852 468 862 495 897 c 1
EndSplineSet
Validated: 33
EndChar

StartChar: abreve
Encoding: 259 259 196
Width: 557
GlyphClass: 2
Flags: MW
HStem: -12 80<138.5 273.5> -10 21G<349 383 349 349> 242 47<331 331> 455 57<248.5 292.5> 584 103<274 274> 728 20G<155 155>
VStem: 27 150<122.5 181.5 122.5 186.5> 331 144<142 397 242 397>
LayerCount: 2
Fore
SplineSet
470 145 m 0xb3
 470 116 470 97 473 73 c 1
 542 63 l 1
 542 28 l 1
 509 11 427 -5 383 -10 c 1
 349 -10 l 1x73
 336 21 335 48 334 92 c 1
 329 92 l 1
 316 40 265 -12 182 -12 c 0
 95 -12 27 43 27 127 c 0
 27 246 113 278 331 289 c 1
 342 404 326 455 259 455 c 0
 238 455 219 452 202 445 c 1
 155 325 l 1
 111 325 l 1
 90 357 69 411 64 456 c 1
 115 491 200 512 289 512 c 0
 440 512 475 441 475 353 c 0
 475 273 470 213 470 145 c 0xb3
245 68 m 0xb3
 302 68 323 115 331 142 c 1
 331 242 l 1
 206 239 177 215 177 148 c 0
 177 97 202 68 245 68 c 0xb3
393 744 m 1x0c
 426 724 l 1
 402 651 350 584 274 584 c 0
 196 584 140 648 118 726 c 1
 155 748 l 1
 182 713 227 688 275 687 c 0
 325 686 364 705 393 744 c 1x0c
EndSplineSet
Validated: 33
EndChar

StartChar: Aogonek
Encoding: 260 260 197
Width: 729
GlyphClass: 2
Flags: MW
HStem: -255 66<568.5 672> 0 21G<0 247 0 0 416 416 416 624 692 692 692 729> 226 65<243 420 243 441 219 420> 692 20G<329 403 403 403>
VStem: 483 127<-152.5 -120.5>
LayerCount: 2
Fore
SplineSet
247 38 m 1
 247 0 l 1
 0 0 l 1
 0 38 l 1
 21 51 47 62 71 67 c 1
 329 712 l 1
 403 712 l 1
 654 67 l 1
 681 62 709 51 729 38 c 1
 729 0 l 1
 692 0 l 1
 640 -37 610 -92 610 -135 c 0
 610 -170 633 -189 664 -189 c 0
 680 -189 694 -188 710 -184 c 1
 710 -227 l 1
 691 -242 652 -255 609 -255 c 0
 528 -255 483 -212 483 -157 c 0
 483 -84 541 -40 624 0 c 1
 416 0 l 1
 416 38 l 1
 441 50 472 62 499 67 c 1
 441 226 l 1
 219 226 l 1
 160 67 l 1
 191 63 220 53 247 38 c 1
312 480 m 1
 243 291 l 1
 420 291 l 1
 355 482 l 1
 336 568 l 1
 334 568 l 1
 312 480 l 1
EndSplineSet
Validated: 1
EndChar

StartChar: aogonek
Encoding: 261 261 198
Width: 557
GlyphClass: 2
Flags: MW
HStem: -226 57<382 474.5> -12 80<138.5 273.5> -10 21G<349 375 349 349> 242 47<331 331> 455 57<248.5 292.5>
VStem: 27 150<122.5 181.5 122.5 186.5> 295 124<-131.5 -106.5> 331 144<142 397 242 397>
LayerCount: 2
Fore
SplineSet
470 145 m 0xdd
 470 116 470 97 473 73 c 1
 542 63 l 1
 542 28 l 1
 535 23 525 19 512 16 c 0
 455 -16 419 -70 419 -119 c 0
 419 -144 436 -169 467 -169 c 0
 482 -169 499 -166 517 -160 c 1
 517 -206 l 1
 498 -217 452 -226 428 -226 c 0
 336 -226 295 -185 295 -134 c 0
 295 -79 330 -40 397 -8 c 1
 375 -10 l 1
 349 -10 l 1xbe
 336 21 335 48 334 92 c 1
 329 92 l 1
 316 40 265 -12 182 -12 c 0
 95 -12 27 43 27 127 c 0
 27 246 113 278 331 289 c 1
 342 404 326 455 259 455 c 0
 238 455 219 452 202 445 c 1
 155 325 l 1
 111 325 l 1
 90 357 69 411 64 456 c 1
 115 491 200 512 289 512 c 0
 440 512 475 441 475 353 c 0
 475 273 470 213 470 145 c 0xdd
245 68 m 0xdd
 302 68 323 115 331 142 c 1
 331 242 l 1
 206 239 177 215 177 148 c 0
 177 97 202 68 245 68 c 0xdd
EndSplineSet
Validated: 33
EndChar

StartChar: Cacute
Encoding: 262 262 199
Width: 652
GlyphClass: 2
Flags: MW
HStem: -12 65<351.5 435.5 351.5 440.5> 647 65<352 420>
VStem: 39 166<254.5 456 254.5 478>
LayerCount: 2
Fore
SplineSet
491 70 m 1
 540 210 l 1
 581 210 l 1
 592 168 599 82 599 28 c 1
 552 -1 477 -12 404 -12 c 0
 183 -12 39 95 39 351 c 0
 39 605 202 712 389 712 c 0
 477 712 551 698 596 677 c 1
 596 634 584 534 573 485 c 1
 531 485 l 1
 476 636 l 1
 464 643 434 647 406 647 c 0
 298 647 205 562 205 350 c 0
 205 159 286 53 417 53 c 0
 454 53 482 59 491 70 c 1
284 769 m 1
 426 898 l 1
 469 901 543 880 559 861 c 1
 559 841 l 1
 312 745 l 1
 284 769 l 1
EndSplineSet
Validated: 33
EndChar

StartChar: cacute
Encoding: 263 263 200
Width: 484
GlyphClass: 2
Flags: MW
HStem: -12 80<284.5 325.5> 455 57<256 300.5> 562 21G<238 238>
VStem: 31 155<204 333 204 334.5>
LayerCount: 2
Fore
SplineSet
440 102 m 1
 456 81 l 1
 438 29 367 -12 284 -12 c 0
 109 -12 31 92 31 250 c 0
 31 419 127 512 298 512 c 0
 363 512 420 496 456 477 c 1
 451 432 437 362 420 326 c 1
 371 326 l 1
 329 445 l 1
 320 452 311 455 290 455 c 0
 222 455 186 408 186 258 c 0
 186 150 234 68 335 68 c 0
 382 68 416 83 440 102 c 1
198 584 m 1x20
 306 763 l 1
 329 769 415 758 429 741 c 1
 429 717 l 1
 238 562 l 1
 198 584 l 1x20
EndSplineSet
Validated: 33
EndChar

StartChar: Ccircumflex
Encoding: 264 264 201
Width: 652
GlyphClass: 2
Flags: MW
HStem: -12 65<351.5 435.5 351.5 440.5> 647 65<352 420>
VStem: 39 166<254.5 456 254.5 478>
LayerCount: 2
Fore
SplineSet
491 70 m 1
 540 210 l 1
 581 210 l 1
 592 168 599 82 599 28 c 1
 552 -1 477 -12 404 -12 c 0
 183 -12 39 95 39 351 c 0
 39 605 202 712 389 712 c 0
 477 712 551 698 596 677 c 1
 596 634 584 534 573 485 c 1
 531 485 l 1
 476 636 l 1
 464 643 434 647 406 647 c 0
 298 647 205 562 205 350 c 0
 205 159 286 53 417 53 c 0
 454 53 482 59 491 70 c 1
390 800 m 1
 264 743 l 1
 236 771 l 1
 363 888 l 2
 376 895 412 895 425 888 c 2
 550 774 l 1
 522 744 l 1
 390 800 l 1
EndSplineSet
Validated: 33
EndChar

StartChar: ccircumflex
Encoding: 265 265 202
Width: 484
GlyphClass: 2
Flags: MW
HStem: -12 80<284.5 325.5> 455 57<256 300.5> 577 21G<175 175 368 368>
VStem: 31 155<204 333 204 334.5>
LayerCount: 2
Fore
SplineSet
440 102 m 1
 456 81 l 1
 438 29 367 -12 284 -12 c 0
 109 -12 31 92 31 250 c 0
 31 419 127 512 298 512 c 0
 363 512 420 496 456 477 c 1
 451 432 437 362 420 326 c 1
 371 326 l 1
 329 445 l 1
 320 452 311 455 290 455 c 0
 222 455 186 408 186 258 c 0
 186 150 234 68 335 68 c 0
 382 68 416 83 440 102 c 1
265 675 m 1x20
 175 577 l 1
 133 602 l 1
 243 788 l 2
 251 795 283 796 295 788 c 1
 409 603 l 1
 368 577 l 1
 265 675 l 1x20
EndSplineSet
Validated: 33
EndChar

StartChar: Ccaron
Encoding: 268 268 203
Width: 652
GlyphClass: 2
Flags: MW
HStem: -12 65<351.5 435.5 351.5 440.5> 647 65<352 420> 882 20G<268.5 275 521 526.5>
VStem: 39 166<254.5 456 254.5 478>
LayerCount: 2
Fore
SplineSet
491 70 m 1
 540 210 l 1
 581 210 l 1
 592 168 599 82 599 28 c 1
 552 -1 477 -12 404 -12 c 0
 183 -12 39 95 39 351 c 0
 39 605 202 712 389 712 c 0
 477 712 551 698 596 677 c 1
 596 634 584 534 573 485 c 1
 531 485 l 1
 476 636 l 1
 464 643 434 647 406 647 c 0
 298 647 205 562 205 350 c 0
 205 159 286 53 417 53 c 0
 454 53 482 59 491 70 c 1
401 847 m 1
 521 902 l 1
 532 902 551 884 555 871 c 1
 428 759 l 2
 417 751 381 751 366 759 c 2
 241 868 l 1
 245 883 262 902 275 902 c 1
 401 847 l 1
EndSplineSet
Validated: 33
EndChar

StartChar: ccaron
Encoding: 269 269 204
Width: 484
GlyphClass: 2
Flags: MW
HStem: -12 80<284.5 325.5> 455 57<256 300.5> 772 20G<155 161 377 383.5>
VStem: 31 155<204 333 204 334.5>
LayerCount: 2
Fore
SplineSet
440 102 m 1
 456 81 l 1
 438 29 367 -12 284 -12 c 0
 109 -12 31 92 31 250 c 0
 31 419 127 512 298 512 c 0
 363 512 420 496 456 477 c 1
 451 432 437 362 420 326 c 1
 371 326 l 1
 329 445 l 1
 320 452 311 455 290 455 c 0
 222 455 186 408 186 258 c 0
 186 150 234 68 335 68 c 0
 382 68 416 83 440 102 c 1
272 699 m 1x20
 377 792 l 1
 390 792 416 775 419 767 c 1
 291 586 l 1
 280 579 252 579 239 586 c 1
 113 766 l 1
 116 774 149 792 161 792 c 1
 272 699 l 1x20
EndSplineSet
Validated: 33
EndChar

StartChar: Dcaron
Encoding: 270 270 205
Width: 736
GlyphClass: 2
Flags: MW
HStem: -9 65<309.5 393 309.5 438> 0 21G<20 130 20 20> 643 65<302 390.5> 680 20G<20 136 136 158.5> 882 20G<204.5 211 457 462.5>
VStem: 102 144<67 633 633 633> 531 165<275.5 431>
LayerCount: 2
Fore
SplineSet
130 0 m 2x6e
 20 0 l 1
 20 38 l 1
 43 51 71 62 102 67 c 1
 102 633 l 1
 71 640 41 650 20 662 c 1
 20 700 l 1
 136 700 l 2x5e
 181 700 278 708 326 708 c 0
 557 708 696 585 696 359 c 0
 696 138 570 -9 306 -9 c 0xae
 271 -9 181 0 130 0 c 2x6e
313 643 m 0xae
 289 643 263 642 246 639 c 1
 246 60 l 1
 257 57 303 56 316 56 c 0
 470 56 531 193 531 358 c 0
 531 504 468 643 313 643 c 0xae
337 847 m 1
 457 902 l 1
 468 902 487 884 491 871 c 1
 364 759 l 2
 353 751 317 751 302 759 c 2
 177 868 l 1
 181 883 198 902 211 902 c 1
 337 847 l 1
EndSplineSet
Validated: 33
EndChar

StartChar: dcaron
Encoding: 271 271 206
Width: 599
GlyphClass: 2
Flags: MW
HStem: -12 80<247 267> -10 21G<385 419 385 385> 452 57<255.5 304 205.5 313.5>
VStem: 31 155<193 313.5 193 329.5> 186 189<193 313.5> 375 144<165 434 434 434 493 669 669 669> 519 80<703 730 703 752>
LayerCount: 2
Fore
SplineSet
376 99 m 1x74
 372 99 l 1
 359 40 301 -12 233 -12 c 0xaa
 101 -12 31 70 31 242 c 0
 31 417 131 509 280 509 c 0
 328 509 343 504 375 493 c 1
 375 669 l 1
 299 677 l 1
 299 716 l 1
 336 732 440 744 485 752 c 1
 519 752 l 1
 519 71 l 1
 585 63 l 1
 585 28 l 1
 548 9 459 -5 419 -10 c 1
 385 -10 l 1
 376 99 l 1x74
281 68 m 0
 328 68 360 94 375 165 c 1
 375 434 l 1
 358 445 333 452 294 452 c 0
 217 452 186 380 186 247 c 0
 186 139 213 68 281 68 c 0
585 514 m 1
 556 534 l 1
 583 594 599 676 599 730 c 1
 620 755 l 1
 638 758 712 741 733 723 c 1
 720 648 642 546 585 514 c 1
EndSplineSet
Validated: 33
EndChar

StartChar: Dcroat
Encoding: 272 272 207
Width: 741
GlyphClass: 2
Flags: MW
HStem: -9 65<314.5 398 314.5 443> 0 21G<25 135 25 25> 329 60<22 107 22 107 251 404> 643 65<307 395.5> 680 20G<25 141 141 163.5>
VStem: 107 144<67 329 60 329 389 633 633 633> 536 165<275.5 431>
LayerCount: 2
Fore
SplineSet
22 329 m 1x76
 22 389 l 1
 107 389 l 1
 107 633 l 1
 76 640 46 650 25 662 c 1
 25 700 l 1
 141 700 l 2xae
 186 700 283 708 331 708 c 0
 562 708 701 585 701 359 c 0
 701 138 575 -9 311 -9 c 0xb6
 276 -9 186 0 135 0 c 2
 25 0 l 1
 25 38 l 1
 48 51 76 62 107 67 c 1
 107 329 l 1
 22 329 l 1x76
318 643 m 0xb6
 294 643 268 642 251 639 c 1
 251 389 l 1
 404 389 l 1
 404 329 l 1
 251 329 l 1
 251 60 l 1
 262 57 308 56 321 56 c 0
 475 56 536 193 536 358 c 0
 536 504 473 643 318 643 c 0xb6
EndSplineSet
Validated: 1
EndChar

StartChar: dcroat
Encoding: 273 273 208
Width: 599
GlyphClass: 2
Flags: MW
HStem: -12 80<247 267> -10 21G<385 419 385 385> 452 57<255.5 304 205.5 313.5> 559 61<231 375 231 375 519 598> 732 20G<485 519 519 519>
VStem: 31 155<193 313.5 193 329.5> 375 144<165 434 434 434 493 559 71 559 620 669 669 669>
LayerCount: 2
Fore
SplineSet
231 559 m 1xbe
 231 620 l 1
 375 620 l 1
 375 669 l 1
 299 677 l 1
 299 716 l 1
 336 732 440 744 485 752 c 1
 519 752 l 1
 519 620 l 1
 598 620 l 1
 598 559 l 1
 519 559 l 1
 519 71 l 1
 585 63 l 1
 585 28 l 1
 548 9 459 -5 419 -10 c 1
 385 -10 l 1x7e
 376 99 l 1
 372 99 l 1
 359 40 301 -12 233 -12 c 0
 101 -12 31 70 31 242 c 0
 31 417 131 509 280 509 c 0
 328 509 343 504 375 493 c 1
 375 559 l 1
 231 559 l 1xbe
281 68 m 0xbe
 328 68 360 94 375 165 c 1
 375 434 l 1
 358 445 333 452 294 452 c 0
 217 452 186 380 186 247 c 0
 186 139 213 68 281 68 c 0xbe
EndSplineSet
Validated: 1
EndChar

StartChar: Emacron
Encoding: 274 274 209
Width: 604
GlyphClass: 2
Flags: MW
HStem: 0 65<252 447 252 561> 325 65<252 374 252 374> 635 65<252 439 252 252> 779 70<147 471 147 471>
VStem: 102 150<67 325 390 633 633 633>
LayerCount: 2
Fore
SplineSet
20 700 m 1
 546 700 l 1
 543 640 537 573 526 517 c 1
 485 517 l 1
 439 635 l 1
 252 635 l 1
 252 390 l 1
 374 390 l 1
 418 467 l 1
 450 467 l 1
 457 402 457 315 450 246 c 1
 418 246 l 1
 374 325 l 1
 252 325 l 1
 252 65 l 1
 447 65 l 1
 500 192 l 1
 541 192 l 1
 552 141 561 60 561 0 c 1
 20 0 l 1
 20 38 l 1
 43 50 71 62 102 67 c 1
 102 633 l 1
 75 638 43 649 20 662 c 1
 20 700 l 1
471 779 m 1
 147 779 l 1
 147 849 l 1
 471 849 l 1
 471 779 l 1
EndSplineSet
Validated: 33
EndChar

StartChar: emacron
Encoding: 275 275 210
Width: 537
GlyphClass: 2
Flags: MW
HStem: -12 80<291.5 338.5> 241 52<189 350 189 493 186 350> 455 57<253.5 310> 619 70<129 423 129 423>
VStem: 31 155<241 241 241 335.5>
LayerCount: 2
Fore
SplineSet
467 104 m 1
 486 84 l 1
 464 38 391 -12 286 -12 c 0
 120 -12 31 91 31 250 c 0
 31 421 125 512 284 512 c 0
 422 512 528 442 493 241 c 1
 186 241 l 1
 187 136 240 68 343 68 c 0
 387 68 440 83 467 104 c 1
280 455 m 0
 227 455 197 422 189 293 c 1
 350 293 l 1
 359 397 340 455 280 455 c 0
423 619 m 1x10
 129 619 l 1
 129 689 l 1
 423 689 l 1
 423 619 l 1x10
EndSplineSet
Validated: 33
EndChar

StartChar: Edotaccent
Encoding: 278 278 211
Width: 604
GlyphClass: 2
Flags: MW
HStem: 0 65<252 447 252 561> 325 65<252 374 252 374> 635 65<252 439 252 252> 754 131<279 339>
VStem: 102 150<67 325 390 633 633 633> 218 180<798.5 840.5>
LayerCount: 2
Fore
SplineSet
20 700 m 1xf8
 546 700 l 1
 543 640 537 573 526 517 c 1
 485 517 l 1
 439 635 l 1
 252 635 l 1
 252 390 l 1
 374 390 l 1
 418 467 l 1
 450 467 l 1
 457 402 457 315 450 246 c 1
 418 246 l 1
 374 325 l 1
 252 325 l 1
 252 65 l 1
 447 65 l 1
 500 192 l 1
 541 192 l 1
 552 141 561 60 561 0 c 1
 20 0 l 1
 20 38 l 1
 43 50 71 62 102 67 c 1
 102 633 l 1
 75 638 43 649 20 662 c 1
 20 700 l 1xf8
218 819 m 0xf4
 218 862 249 885 309 885 c 0
 369 885 398 862 398 819 c 0
 398 778 369 754 309 754 c 0
 249 754 218 778 218 819 c 0xf4
EndSplineSet
Validated: 33
EndChar

StartChar: edotaccent
Encoding: 279 279 212
Width: 537
GlyphClass: 2
Flags: MW
HStem: -12 80<291.5 338.5> 241 52<189 350 189 493 186 350> 455 57<253.5 310> 590 149<244.5 295.5>
VStem: 31 155<241 241 241 335.5> 184 172<641.5 687.5>
LayerCount: 2
Fore
SplineSet
467 104 m 1xe8
 486 84 l 1
 464 38 391 -12 286 -12 c 0
 120 -12 31 91 31 250 c 0
 31 421 125 512 284 512 c 0
 422 512 528 442 493 241 c 1
 186 241 l 1
 187 136 240 68 343 68 c 0
 387 68 440 83 467 104 c 1xe8
280 455 m 0
 227 455 197 422 189 293 c 1
 350 293 l 1
 359 397 340 455 280 455 c 0
184 664 m 0x14
 184 711 219 739 270 739 c 0
 321 739 356 711 356 664 c 0
 356 619 321 590 270 590 c 0
 219 590 184 619 184 664 c 0x14
EndSplineSet
Validated: 33
EndChar

StartChar: Eogonek
Encoding: 280 280 213
Width: 604
GlyphClass: 2
Flags: MW
HStem: -255 66<400.5 503> 0 65<252 447 252 456> 325 65<252 374 252 374> 635 65<252 439 252 252>
VStem: 102 150<67 325 390 633 633 633> 314 127<-152.5 -120.5> 314 232
LayerCount: 2
Fore
SplineSet
20 700 m 1xfc
 546 700 l 1xfa
 543 640 537 573 526 517 c 1
 485 517 l 1
 439 635 l 1
 252 635 l 1
 252 390 l 1
 374 390 l 1
 418 467 l 1
 450 467 l 1
 457 402 457 315 450 246 c 1
 418 246 l 1
 374 325 l 1
 252 325 l 1
 252 65 l 1
 447 65 l 1
 500 192 l 1
 541 192 l 1
 552 157 558 43 561 0 c 1
 523 0 l 1
 471 -37 441 -92 441 -135 c 0
 441 -170 466 -189 495 -189 c 0
 511 -189 525 -188 541 -184 c 1
 541 -227 l 1
 522 -242 484 -255 441 -255 c 0
 360 -255 314 -212 314 -157 c 0
 314 -84 373 -39 456 0 c 1
 20 0 l 1
 20 38 l 1
 43 50 71 62 102 67 c 1
 102 633 l 1
 75 638 43 649 20 662 c 1
 20 700 l 1xfc
EndSplineSet
Validated: 33
EndChar

StartChar: eogonek
Encoding: 281 281 214
Width: 537
GlyphClass: 2
Flags: MW
HStem: -226 57<280 372.5> -12 80<203.5 365> 241 52<189 350 189 493 186 350> 455 57<253.5 310>
VStem: 31 155<241 241 241 335.5> 193 124<-131.5 -108>
LayerCount: 2
Fore
SplineSet
467 104 m 1
 486 84 l 1
 473 57 443 29 400 10 c 1
 348 -21 317 -72 317 -119 c 0
 317 -144 333 -169 365 -169 c 0
 380 -169 397 -166 415 -160 c 1
 415 -206 l 1
 396 -217 350 -226 326 -226 c 0
 234 -226 193 -185 193 -134 c 0
 193 -82 226 -43 286 -12 c 1
 121 -12 31 90 31 250 c 0
 31 421 125 512 284 512 c 0
 422 512 528 442 493 241 c 1
 186 241 l 1
 187 136 240 68 343 68 c 0
 387 68 440 83 467 104 c 1
280 455 m 0
 227 455 197 422 189 293 c 1
 350 293 l 1
 359 397 340 455 280 455 c 0
EndSplineSet
Validated: 33
EndChar

StartChar: Ecaron
Encoding: 282 282 215
Width: 604
GlyphClass: 2
Flags: MW
HStem: 0 65<252 447 252 561> 325 65<252 374 252 374> 635 65<252 439 252 252> 882 20G<179.5 186 432 437.5>
VStem: 102 150<67 325 390 633 633 633>
LayerCount: 2
Fore
SplineSet
20 700 m 1
 546 700 l 1
 543 640 537 573 526 517 c 1
 485 517 l 1
 439 635 l 1
 252 635 l 1
 252 390 l 1
 374 390 l 1
 418 467 l 1
 450 467 l 1
 457 402 457 315 450 246 c 1
 418 246 l 1
 374 325 l 1
 252 325 l 1
 252 65 l 1
 447 65 l 1
 500 192 l 1
 541 192 l 1
 552 141 561 60 561 0 c 1
 20 0 l 1
 20 38 l 1
 43 50 71 62 102 67 c 1
 102 633 l 1
 75 638 43 649 20 662 c 1
 20 700 l 1
312 847 m 1
 432 902 l 1
 443 902 462 884 466 871 c 1
 339 759 l 2
 328 751 292 751 277 759 c 2
 152 868 l 1
 156 883 173 902 186 902 c 1
 312 847 l 1
EndSplineSet
Validated: 33
EndChar

StartChar: ecaron
Encoding: 283 283 216
Width: 537
GlyphClass: 2
Flags: MW
HStem: -12 80<291.5 338.5> 241 52<189 350 189 493 186 350> 455 57<253.5 310> 772 20G<163 169 385 391.5>
VStem: 31 155<241 241 241 335.5>
LayerCount: 2
Fore
SplineSet
467 104 m 1
 486 84 l 1
 464 38 391 -12 286 -12 c 0
 120 -12 31 91 31 250 c 0
 31 421 125 512 284 512 c 0
 422 512 528 442 493 241 c 1
 186 241 l 1
 187 136 240 68 343 68 c 0
 387 68 440 83 467 104 c 1
280 455 m 0
 227 455 197 422 189 293 c 1
 350 293 l 1
 359 397 340 455 280 455 c 0
280 699 m 1x10
 385 792 l 1
 398 792 424 775 427 767 c 1
 299 586 l 1
 288 579 260 579 247 586 c 1
 121 766 l 1
 124 774 157 792 169 792 c 1
 280 699 l 1x10
EndSplineSet
Validated: 33
EndChar

StartChar: Gcircumflex
Encoding: 284 284 217
Width: 709
GlyphClass: 2
Flags: MW
HStem: -12 65<354.5 437.5 354.5 438.5> 647 65<359 428.5>
VStem: 39 166<262.5 458 262.5 480> 517 119<80 268 44 268>
LayerCount: 2
Fore
SplineSet
636 268 m 1
 636 44 l 1
 583 17 472 -12 405 -12 c 0
 177 -12 39 109 39 350 c 0
 39 610 217 712 396 712 c 0
 484 712 567 700 612 677 c 1
 612 637 604 543 588 485 c 1
 547 485 l 1
 491 637 l 1
 476 644 443 647 414 647 c 0
 304 647 205 566 205 350 c 0
 205 175 292 53 417 53 c 0
 458 53 506 69 517 80 c 1
 517 268 l 1
 482 271 452 282 425 297 c 1
 425 335 l 1
 698 335 l 1
 698 297 l 1
 686 285 667 275 636 268 c 1
404 800 m 1
 278 743 l 1
 250 771 l 1
 377 888 l 2
 390 895 426 895 439 888 c 2
 564 774 l 1
 536 744 l 1
 404 800 l 1
EndSplineSet
Validated: 33
EndChar

StartChar: gcircumflex
Encoding: 285 285 218
Width: 564
GlyphClass: 2
Flags: MW
HStem: -212 57<242 317.5 242 334.5> 185 57<252.5 296.5 230 342> 455 57<230.5 296> 516 20G 577 21G<167 167 360 360>
VStem: 16 144<-88.5 -47> 34 144<313.5 384.5 313.5 403> 84 113<123 130.5> 350 144<314 367.5 303.5 384> 390 139
LayerCount: 2
Fore
SplineSet
264 512 m 0xf280
 351 512 408 492 437 465 c 1
 468 499 504 523 545 536 c 1
 564 522 582 481 582 461 c 1
 569 437 l 1
 464 437 l 1
 479 418 494 388 494 347 c 0
 494 260 420 185 264 185 c 0
 241 185 223 185 210 188 c 1
 205 180 197 168 197 157 c 0xf180
 197 89 525 124 529 -44 c 0
 532 -150 409 -212 260 -212 c 0
 84 -212 16 -151 16 -84 c 0xf440
 16 -10 79 21 163 42 c 1
 124 52 84 73 84 113 c 0xf180
 84 148 132 179 171 195 c 1
 87 214 34 269 34 353 c 0
 34 453 123 512 264 512 c 0xf280
390 -76 m 0xf440
 390 -3 293 3 208 30 c 1
 173 3 160 -21 160 -58 c 0
 160 -119 204 -155 280 -155 c 0
 355 -155 390 -119 390 -76 c 0xf440
178 348 m 0xf280
 178 279 196 242 264 242 c 0
 329 242 350 280 350 348 c 0
 350 420 328 455 264 455 c 0
 197 455 178 421 178 348 c 0xf280
257 675 m 1x08
 167 577 l 1
 125 602 l 1
 235 788 l 2
 243 795 275 796 287 788 c 1
 401 603 l 1
 360 577 l 1
 257 675 l 1x08
EndSplineSet
Validated: 33
EndChar

StartChar: Gbreve
Encoding: 286 286 219
Width: 709
GlyphClass: 2
Flags: MW
HStem: -12 65<354.5 437.5 354.5 438.5> 647 65<359 428.5> 759 93<392 434 392 453>
VStem: 39 166<262.5 458 262.5 480> 517 119<80 268 44 268>
LayerCount: 2
Fore
SplineSet
636 268 m 1
 636 44 l 1
 583 17 472 -12 405 -12 c 0
 177 -12 39 109 39 350 c 0
 39 610 217 712 396 712 c 0
 484 712 567 700 612 677 c 1
 612 637 604 543 588 485 c 1
 547 485 l 1
 491 637 l 1
 476 644 443 647 414 647 c 0
 304 647 205 566 205 350 c 0
 205 175 292 53 417 53 c 0
 458 53 506 69 517 80 c 1
 517 268 l 1
 482 271 452 282 425 297 c 1
 425 335 l 1
 698 335 l 1
 698 297 l 1
 686 285 667 275 636 268 c 1
536 897 m 1
 545 898 568 887 577 874 c 1
 553 816 495 759 411 759 c 0
 322 759 264 804 239 876 c 1
 248 892 270 903 290 900 c 1
 309 870 372 852 412 852 c 0
 456 852 509 862 536 897 c 1
EndSplineSet
Validated: 33
EndChar

StartChar: gbreve
Encoding: 287 287 220
Width: 564
GlyphClass: 2
Flags: MW
HStem: -212 57<242 317.5 242 334.5> 185 57<252.5 296.5 230 342> 455 57<230.5 296> 516 20G 584 103<267 267> 728 20G<148 148>
VStem: 16 144<-88.5 -47> 34 144<313.5 384.5 313.5 403> 84 113<123 130.5> 350 144<314 367.5 303.5 384> 390 139
LayerCount: 2
Fore
SplineSet
264 512 m 0xf140
 351 512 408 492 437 465 c 1
 468 499 504 523 545 536 c 1
 564 522 582 481 582 461 c 1
 569 437 l 1
 464 437 l 1
 479 418 494 388 494 347 c 0
 494 260 420 185 264 185 c 0
 241 185 223 185 210 188 c 1
 205 180 197 168 197 157 c 0xf0c0
 197 89 525 124 529 -44 c 0
 532 -150 409 -212 260 -212 c 0
 84 -212 16 -151 16 -84 c 0xf220
 16 -10 79 21 163 42 c 1
 124 52 84 73 84 113 c 0xf0c0
 84 148 132 179 171 195 c 1
 87 214 34 269 34 353 c 0
 34 453 123 512 264 512 c 0xf140
390 -76 m 0xf220
 390 -3 293 3 208 30 c 1
 173 3 160 -21 160 -58 c 0
 160 -119 204 -155 280 -155 c 0
 355 -155 390 -119 390 -76 c 0xf220
178 348 m 0xf140
 178 279 196 242 264 242 c 0
 329 242 350 280 350 348 c 0
 350 420 328 455 264 455 c 0
 197 455 178 421 178 348 c 0xf140
386 744 m 1x0c
 419 724 l 1
 395 651 343 584 267 584 c 0
 189 584 133 648 111 726 c 1
 148 748 l 1
 175 713 220 688 268 687 c 0
 318 686 357 705 386 744 c 1x0c
EndSplineSet
Validated: 33
EndChar

StartChar: Gcommaaccent
Encoding: 290 290 221
Width: 709
GlyphClass: 2
Flags: MW
HStem: -285 21G<328 328> -44 32 -12 65<354.5 437.5 354.5 438.5> 647 65<359 428.5>
VStem: 39 166<262.5 458 262.5 480> 517 119<80 268 44 268>
LayerCount: 2
Fore
SplineSet
636 268 m 1xbc
 636 44 l 1
 583 17 472 -12 405 -12 c 0
 177 -12 39 109 39 350 c 0
 39 610 217 712 396 712 c 0
 484 712 567 700 612 677 c 1
 612 637 604 543 588 485 c 1
 547 485 l 1
 491 637 l 1
 476 644 443 647 414 647 c 0
 304 647 205 566 205 350 c 0
 205 175 292 53 417 53 c 0
 458 53 506 69 517 80 c 1
 517 268 l 1
 482 271 452 282 425 297 c 1
 425 335 l 1
 698 335 l 1
 698 297 l 1
 686 285 667 275 636 268 c 1xbc
328 -285 m 1
 315 -241 l 1
 346 -233 373 -211 372 -182 c 1
 353 -163 325 -152 296 -144 c 1
 280 -101 322 -49 361 -44 c 1xdc
 417 -47 475 -78 475 -146 c 0
 475 -212 413 -277 328 -285 c 1
EndSplineSet
Validated: 33
EndChar

StartChar: gcommaaccent
Encoding: 291 291 222
Width: 564
GlyphClass: 2
Flags: MW
HStem: -212 57<242 317.5 242 334.5> 185 57<252.5 296.5 230 342> 242 213<230.5 296 230.5 296.5> 512 54 789 20G<334 334>
VStem: 16 144<-88.5 -47> 34 144<313.5 384.5 313.5 403> 84 113<123 130.5> 350 144<314 367.5 303.5 384> 390 139
LayerCount: 2
Fore
SplineSet
264 512 m 0xda40
 351 512 408 492 437 465 c 1
 468 499 504 523 545 536 c 1
 564 522 582 481 582 461 c 1
 569 437 l 1
 464 437 l 1
 479 418 494 388 494 347 c 0
 494 260 420 185 264 185 c 0
 241 185 223 185 210 188 c 1
 205 180 197 168 197 157 c 0xd980
 197 89 525 124 529 -44 c 0
 532 -150 409 -212 260 -212 c 0
 84 -212 16 -151 16 -84 c 0xdc40
 16 -10 79 21 163 42 c 1
 124 52 84 73 84 113 c 0xd940
 84 148 132 179 171 195 c 1
 87 214 34 269 34 353 c 0
 34 453 123 512 264 512 c 0xda40
390 -76 m 0xdc40
 390 -3 293 3 208 30 c 1
 173 3 160 -21 160 -58 c 0
 160 -119 204 -155 280 -155 c 0
 355 -155 390 -119 390 -76 c 0xdc40
178 348 m 0xba80
 178 279 196 242 264 242 c 0
 329 242 350 280 350 348 c 0
 350 420 328 455 264 455 c 0
 197 455 178 421 178 348 c 0xba80
334 809 m 1
 345 764 l 1
 305 753 289 726 289 703 c 1
 305 684 332 674 359 665 c 1
 373 622 334 571 299 566 c 1
 247 567 199 600 199 668 c 0
 199 732 247 798 334 809 c 1
EndSplineSet
Validated: 33
EndChar

StartChar: Hcircumflex
Encoding: 292 292 223
Width: 769
GlyphClass: 2
Flags: MW
HStem: 0 21G<20 323 20 20 446 446 446 749> 326 65<252 517 252 517> 680 20G<20 323 323 323 446 749 749 749>
VStem: 102 150<67 326 391 633> 517 150<67 326 326 326 391 633 67 633>
LayerCount: 2
Fore
SplineSet
323 38 m 1
 323 0 l 1
 20 0 l 1
 20 38 l 1
 43 50 75 62 102 67 c 1
 102 633 l 1
 70 638 39 650 20 662 c 1
 20 700 l 1
 323 700 l 1
 323 662 l 1
 303 649 277 637 252 633 c 1
 252 391 l 1
 517 391 l 1
 517 633 l 1
 488 638 465 650 446 662 c 1
 446 700 l 1
 749 700 l 1
 749 662 l 1
 726 647 695 638 667 633 c 1
 667 67 l 1
 698 62 728 50 749 38 c 1
 749 0 l 1
 446 0 l 1
 446 38 l 1
 466 50 490 62 517 67 c 1
 517 326 l 1
 252 326 l 1
 252 67 l 1
 279 62 300 53 323 38 c 1
381 800 m 1
 255 743 l 1
 227 771 l 1
 354 888 l 2
 367 895 403 895 416 888 c 2
 541 774 l 1
 513 744 l 1
 381 800 l 1
EndSplineSet
Validated: 33
EndChar

StartChar: hcircumflex
Encoding: 293 293 224
Width: 640
GlyphClass: 2
Flags: MW
HStem: 0 21G<19 284 19 19 363 628 363 363> 432 80<358.5 369>
VStem: 9 220<677 716 716 716> 85 144<63 341 63 399 399 669 669 669> 418 144<63 265 265 302 63 322.5>
LayerCount: 2
Fore
SplineSet
628 39 m 1xe8
 628 0 l 1
 363 0 l 1
 363 39 l 1
 379 48 395 56 418 63 c 1
 418 265 l 2
 418 380 401 432 337 432 c 0
 284 432 245 389 229 341 c 1
 229 63 l 1
 250 58 265 52 284 39 c 1
 284 0 l 1
 19 0 l 1
 19 39 l 1
 40 50 62 58 85 63 c 1
 85 669 l 1xd8
 9 677 l 1
 9 716 l 1
 50 732 141 747 195 752 c 1
 229 752 l 1
 229 399 l 1
 230 399 l 1
 257 460 322 512 395 512 c 0
 503 512 562 467 562 302 c 2
 562 63 l 1
 585 58 608 52 628 39 c 1xe8
140 810 m 1
 14 753 l 1
 -14 781 l 1
 113 898 l 2
 126 905 162 905 175 898 c 2
 300 784 l 1
 272 754 l 1
 140 810 l 1
EndSplineSet
Validated: 33
EndChar

StartChar: Hbar
Encoding: 294 294 225
Width: 769
GlyphClass: 2
Flags: MW
HStem: 0 21G<20 323 20 20 446 749 446 446> 326 65<252 517 252 517> 498 63<26 102 26 102 252 517 667 743> 498 202<26 26 26 102 252 252 252 323 446 517 667 667 667 743>
VStem: 102 150<67 326 391 498 561 633> 517 150<67 326 326 326 391 498 67 498 561 633 67 633>
LayerCount: 2
Fore
SplineSet
26 498 m 1xec
 26 561 l 1
 102 561 l 1xec
 102 633 l 1
 70 638 39 650 20 662 c 1
 20 700 l 1
 323 700 l 1xdc
 323 662 l 1
 303 649 277 637 252 633 c 1
 252 561 l 1
 517 561 l 1xec
 517 633 l 1
 488 638 465 650 446 662 c 1
 446 700 l 1
 749 700 l 1xdc
 749 662 l 1
 726 647 695 638 667 633 c 1
 667 561 l 1
 743 561 l 1
 743 498 l 1
 667 498 l 1
 667 67 l 1
 698 62 728 50 749 38 c 1
 749 0 l 1
 446 0 l 1
 446 38 l 1
 466 50 490 62 517 67 c 1
 517 326 l 1
 252 326 l 1
 252 67 l 1
 279 62 300 53 323 38 c 1
 323 0 l 1
 20 0 l 1
 20 38 l 1
 43 50 75 62 102 67 c 1
 102 498 l 1
 26 498 l 1xec
252 391 m 1
 517 391 l 1
 517 498 l 1
 252 498 l 1
 252 391 l 1
EndSplineSet
Validated: 1
EndChar

StartChar: hbar
Encoding: 295 295 226
Width: 640
GlyphClass: 2
Flags: MW
HStem: 0 21G<19 284 19 19 363 628 363 363> 432 80<358.5 369> 559 61<7 85 7 85 229 384> 732 20G<195 229 229 229>
VStem: 19 210<0 341 39 341> 85 144<63 341 399 559 620 669 669 669> 418 144<63 265 265 302 63 322.5>
LayerCount: 2
Fore
SplineSet
7 559 m 1xf6
 7 620 l 1
 85 620 l 1
 85 669 l 1xf6
 9 677 l 1
 9 716 l 1
 50 732 141 747 195 752 c 1
 229 752 l 1
 229 620 l 1
 384 620 l 1
 384 559 l 1
 229 559 l 1
 229 399 l 1
 230 399 l 1
 257 460 322 512 395 512 c 0
 503 512 562 467 562 302 c 2
 562 63 l 1
 585 58 608 52 628 39 c 1
 628 0 l 1
 363 0 l 1
 363 39 l 1
 379 48 395 56 418 63 c 1
 418 265 l 2
 418 380 401 432 337 432 c 0
 284 432 245 389 229 341 c 1
 229 63 l 1
 250 58 265 52 284 39 c 1
 284 0 l 1
 19 0 l 1
 19 39 l 1xfa
 40 50 62 58 85 63 c 1
 85 559 l 1
 7 559 l 1xf6
EndSplineSet
Validated: 1
EndChar

StartChar: Imacron
Encoding: 298 298 227
Width: 372
GlyphClass: 2
Flags: MW
HStem: 0 21G<30 342 30 30> 680 20G<30 342 342 342> 779 70<25 349 25 349>
VStem: 111 150<67 633 67 633>
LayerCount: 2
Fore
SplineSet
342 38 m 1
 342 0 l 1
 30 0 l 1
 30 38 l 1
 57 53 84 62 111 67 c 1
 111 633 l 1
 84 637 53 649 30 662 c 1
 30 700 l 1
 342 700 l 1
 342 662 l 1
 318 647 288 637 261 633 c 1
 261 67 l 1
 288 62 318 53 342 38 c 1
349 779 m 1
 25 779 l 1
 25 849 l 1
 349 849 l 1
 349 779 l 1
EndSplineSet
Validated: 1
EndChar

StartChar: imacron
Encoding: 299 299 228
Width: 332
GlyphClass: 2
Flags: MW
HStem: 0 21G<31 307 31 31> 492 20G<207 241 241 241> 619 70<19 313 19 313>
VStem: 31 210<0 512 39 512 437 476 476 476> 97 144<63 429 429 429>
LayerCount: 2
Fore
SplineSet
307 39 m 1xd0
 307 0 l 1
 31 0 l 1
 31 39 l 1xd0
 51 50 72 56 97 63 c 1
 97 429 l 1xc8
 31 437 l 1
 31 476 l 1
 71 492 159 507 207 512 c 1
 241 512 l 1
 241 63 l 1
 268 56 288 50 307 39 c 1xd0
313 619 m 1x20
 19 619 l 1
 19 689 l 1
 313 689 l 1
 313 619 l 1x20
EndSplineSet
Validated: 1
EndChar

StartChar: Iogonek
Encoding: 302 302 229
Width: 372
GlyphClass: 2
Flags: MW
HStem: -255 66<182.5 286> 0 21G<30 238 30 30 306 342 306 306> 680 20G<30 342 342 342>
VStem: 97 127<-152.5 -120.5> 97 245<-184.5 38> 111 150<67 633 67 633>
LayerCount: 2
Fore
SplineSet
342 38 m 1xe8
 342 0 l 1xe8
 306 0 l 1
 254 -37 224 -92 224 -135 c 0
 224 -170 247 -189 278 -189 c 0
 294 -189 308 -188 324 -184 c 1
 324 -227 l 1
 305 -242 266 -255 223 -255 c 0
 142 -255 97 -212 97 -157 c 0xf0
 97 -84 155 -40 238 0 c 1
 30 0 l 1
 30 38 l 1
 57 53 84 62 111 67 c 1
 111 633 l 1xe4
 84 637 53 649 30 662 c 1
 30 700 l 1
 342 700 l 1
 342 662 l 1xe8
 318 647 288 637 261 633 c 1
 261 67 l 1xe4
 288 62 318 53 342 38 c 1xe8
EndSplineSet
Validated: 1
EndChar

StartChar: iogonek
Encoding: 303 303 230
Width: 357
GlyphClass: 2
Flags: MW
HStem: -226 57<177 269.5> 0 21G<41 209 41 41 282 317 282 282> 492 20G<217 251 251 251> 590 146<151.5 200.5>
VStem: 41 210<0 512 39 512 437 476 476 476> 90 124<-131.5 -104> 90 222<-206 -104> 107 144<63 429 429 429>
LayerCount: 2
Fore
SplineSet
317 39 m 1xf8
 317 0 l 1
 282 0 l 1
 239 -32 214 -78 214 -119 c 0xf4
 214 -144 230 -169 262 -169 c 0
 277 -169 294 -166 312 -160 c 1
 312 -206 l 1
 293 -217 247 -226 223 -226 c 0
 131 -226 90 -185 90 -134 c 0xf2
 90 -74 132 -33 209 0 c 1
 41 0 l 1
 41 39 l 1xf8
 61 50 82 56 107 63 c 1
 107 429 l 1xf1
 41 437 l 1
 41 476 l 1
 81 492 169 507 217 512 c 1
 251 512 l 1
 251 63 l 1
 278 56 298 50 317 39 c 1xf8
93 663 m 0
 93 708 127 736 176 736 c 0
 225 736 260 708 260 663 c 0
 260 618 225 590 176 590 c 0
 127 590 93 618 93 663 c 0
EndSplineSet
Validated: 1
EndChar

StartChar: Idotaccent
Encoding: 304 304 231
Width: 372
GlyphClass: 2
Flags: MW
HStem: 0 21G<30 342 30 30> 680 20G<30 342 342 342> 754 131<157 217>
VStem: 96 180<798.5 840.5> 111 150<67 633 67 633>
LayerCount: 2
Fore
SplineSet
342 38 m 1xe8
 342 0 l 1
 30 0 l 1
 30 38 l 1
 57 53 84 62 111 67 c 1
 111 633 l 1
 84 637 53 649 30 662 c 1
 30 700 l 1
 342 700 l 1
 342 662 l 1
 318 647 288 637 261 633 c 1
 261 67 l 1
 288 62 318 53 342 38 c 1xe8
96 819 m 0xf0
 96 862 127 885 187 885 c 0
 247 885 276 862 276 819 c 0
 276 778 247 754 187 754 c 0
 127 754 96 778 96 819 c 0xf0
EndSplineSet
Validated: 1
EndChar

StartChar: dotlessi
Encoding: 305 305 232
Width: 332
GlyphClass: 2
Flags: MW
HStem: 0 21G<31 307 31 31> 492 20G<207 241 241 241>
VStem: 31 210<0 512 39 512 437 476 476 476> 97 144<63 429 429 429>
LayerCount: 2
Fore
SplineSet
307 39 m 1xe0
 307 0 l 1
 31 0 l 1
 31 39 l 1xe0
 51 50 72 56 97 63 c 1
 97 429 l 1xd0
 31 437 l 1
 31 476 l 1
 71 492 159 507 207 512 c 1
 241 512 l 1
 241 63 l 1
 268 56 288 50 307 39 c 1xe0
EndSplineSet
Validated: 1
EndChar

StartChar: Jcircumflex
Encoding: 308 308 233
Width: 365
GlyphClass: 2
Flags: MW
HStem: -160 21G<51 51> 680 20G<27 335 335 335>
VStem: 109 150<115 121 121 633>
LayerCount: 2
Fore
SplineSet
27 662 m 1
 27 700 l 1
 335 700 l 1
 335 662 l 1
 314 649 286 637 259 633 c 1
 259 121 l 2
 259 -98 109 -147 51 -160 c 1
 32 -134 l 1
 72 -102 109 -41 109 115 c 2
 109 633 l 1
 80 640 50 647 27 662 c 1
181 800 m 1
 55 743 l 1
 27 771 l 1
 154 888 l 2
 167 895 203 895 216 888 c 2
 341 774 l 1
 313 744 l 1
 181 800 l 1
EndSplineSet
Validated: 33
EndChar

StartChar: jcircumflex
Encoding: 309 309 234
Width: 320
GlyphClass: 2
Flags: MW
HStem: -212 21G<47 47> 492 20G<207 241 241 241>
VStem: 97 144<24 43 43 429 429 429>
LayerCount: 2
Fore
SplineSet
97 24 m 2
 97 429 l 1
 31 437 l 1
 31 476 l 1
 71 494 158 507 207 512 c 1
 241 512 l 1
 241 43 l 2
 241 -147 86 -200 47 -212 c 1
 27 -182 l 1
 58 -166 97 -114 97 24 c 2
161 675 m 1
 71 577 l 1
 29 602 l 1
 139 788 l 2
 147 795 179 796 191 788 c 1
 305 603 l 1
 264 577 l 1
 161 675 l 1
EndSplineSet
Validated: 33
EndChar

StartChar: Kcommaaccent
Encoding: 310 310 235
Width: 710
GlyphClass: 2
Flags: MW
HStem: -285 21G<290 290> 0 21G<20 323 20 20 536 710 536 536> 680 20G<20 323 323 323 399 667 667 667>
VStem: 102 150<67 328 67 379 379 633>
LayerCount: 2
Fore
SplineSet
399 662 m 1
 399 700 l 1
 667 700 l 1
 667 662 l 1
 644 647 612 637 588 633 c 1
 398 392 l 1
 459 306 568 170 662 63 c 1
 710 34 l 1
 710 0 l 1
 536 0 l 1
 496 28 l 1
 432 109 353 227 295 328 c 1
 252 328 l 1
 252 67 l 1
 281 62 306 50 323 38 c 1
 323 0 l 1
 20 0 l 1
 20 38 l 1
 47 51 75 62 102 67 c 1
 102 633 l 1
 71 637 41 649 20 662 c 1
 20 700 l 1
 323 700 l 1
 323 662 l 1
 306 651 280 640 252 633 c 1
 252 379 l 1
 311 393 l 1
 472 633 l 1
 445 638 418 651 399 662 c 1
290 -285 m 1
 277 -241 l 1
 308 -233 335 -211 334 -182 c 1
 315 -163 287 -152 258 -144 c 1
 242 -101 284 -49 323 -44 c 1
 379 -47 437 -78 437 -146 c 0
 437 -212 375 -277 290 -285 c 1
EndSplineSet
Validated: 33
EndChar

StartChar: kcommaaccent
Encoding: 311 311 236
Width: 583
GlyphClass: 2
Flags: MW
HStem: -285 21G<230 230> -42 42 480 20G<322 556 556 556> 732 20G<195 229 229 229>
VStem: 9 220<677 716 716 716> 85 144<63 239 63 283 283 669 669 669>
LayerCount: 2
Fore
SplineSet
322 461 m 1xf8
 322 500 l 1
 556 500 l 1
 556 461 l 1
 531 450 511 442 484 437 c 1
 444 384 388 330 354 296 c 1
 394 243 463 140 532 63 c 1
 583 39 l 1
 583 0 l 1
 414 0 l 1
 387 24 l 1
 326 106 297 167 262 229 c 1
 229 239 l 1
 229 63 l 1
 252 59 269 51 290 39 c 1
 290 0 l 1
 19 0 l 1
 19 39 l 1
 41 50 63 58 85 63 c 1
 85 669 l 1xf4
 9 677 l 1
 9 716 l 1
 47 732 147 747 195 752 c 1
 229 752 l 1
 229 283 l 1
 255 283 l 1
 299 330 338 390 367 437 c 1
 350 442 337 450 322 461 c 1xf8
230 -285 m 1
 219 -240 l 1
 259 -229 275 -202 275 -179 c 1
 259 -160 232 -150 205 -141 c 1
 191 -98 230 -47 265 -42 c 1
 317 -43 365 -76 365 -144 c 0
 365 -208 317 -274 230 -285 c 1
EndSplineSet
Validated: 33
EndChar

StartChar: Lacute
Encoding: 313 313 237
Width: 583
GlyphClass: 2
Flags: MW
HStem: 0 65<252 445 252 569> 680 20G<20 348 348 348>
VStem: 102 150<67 633 65 633>
LayerCount: 2
Fore
SplineSet
20 662 m 1
 20 700 l 1
 348 700 l 1
 348 662 l 1
 320 647 284 637 252 633 c 1
 252 65 l 1
 445 65 l 1
 512 244 l 1
 553 244 l 1
 563 184 572 67 569 0 c 1
 20 0 l 1
 20 38 l 1
 51 54 78 63 102 67 c 1
 102 633 l 1
 69 638 42 648 20 662 c 1
150 769 m 1
 292 898 l 1
 335 901 409 880 425 861 c 1
 425 841 l 1
 178 745 l 1
 150 769 l 1
EndSplineSet
Validated: 33
EndChar

StartChar: lacute
Encoding: 314 314 238
Width: 332
GlyphClass: 2
Flags: MW
HStem: 0 21G<31 307 31 31>
VStem: 21 220<677 716 716 716> 97 144<63 669 669 669>
LayerCount: 2
Fore
SplineSet
307 39 m 1xc0
 307 0 l 1
 31 0 l 1
 31 39 l 1
 53 50 75 58 97 63 c 1
 97 669 l 1xa0
 21 677 l 1
 21 716 l 1
 57 732 151 747 207 752 c 1
 241 752 l 1
 241 63 l 1
 263 58 285 50 307 39 c 1xc0
74 779 m 1
 216 908 l 1
 259 911 333 890 349 871 c 1
 349 851 l 1
 102 755 l 1
 74 779 l 1
EndSplineSet
Validated: 33
EndChar

StartChar: Lcommaaccent
Encoding: 315 315 239
Width: 583
GlyphClass: 2
Flags: MW
HStem: -285 21G<235 235> -44 44 0 65<252 445 252 569> 680 20G<20 348 348 348>
VStem: 102 150<67 633 65 633>
LayerCount: 2
Fore
SplineSet
20 662 m 1xd8
 20 700 l 1
 348 700 l 1
 348 662 l 1
 320 647 284 637 252 633 c 1
 252 65 l 1
 445 65 l 1xb8
 512 244 l 1
 553 244 l 1
 563 184 572 67 569 0 c 1
 20 0 l 1
 20 38 l 1
 51 54 78 63 102 67 c 1
 102 633 l 1
 69 638 42 648 20 662 c 1xd8
235 -285 m 1
 222 -241 l 1
 253 -233 280 -211 279 -182 c 1
 260 -163 232 -152 203 -144 c 1
 187 -101 229 -49 268 -44 c 1xd8
 324 -47 382 -78 382 -146 c 0
 382 -212 320 -277 235 -285 c 1
EndSplineSet
Validated: 33
EndChar

StartChar: lcommaaccent
Encoding: 316 316 240
Width: 332
GlyphClass: 2
Flags: MW
HStem: -285 21G<115 115> -42 42 732 20G<207 241 241 241>
VStem: 21 220<677 716 716 716> 97 144<63 669 669 669>
LayerCount: 2
Fore
SplineSet
307 39 m 1xf0
 307 0 l 1
 31 0 l 1
 31 39 l 1
 53 50 75 58 97 63 c 1
 97 669 l 1xe8
 21 677 l 1
 21 716 l 1
 57 732 151 747 207 752 c 1
 241 752 l 1
 241 63 l 1
 263 58 285 50 307 39 c 1xf0
115 -285 m 1
 104 -240 l 1
 144 -229 160 -202 160 -179 c 1
 144 -160 117 -150 90 -141 c 1
 76 -98 115 -47 150 -42 c 1
 202 -43 250 -76 250 -144 c 0
 250 -208 202 -274 115 -285 c 1
EndSplineSet
Validated: 33
EndChar

StartChar: Lcaron
Encoding: 317 317 241
Width: 607
GlyphClass: 2
Flags: MW
HStem: 0 65<252 445 252 569> 680 20G<20 348 348 348> 697 20G<442 460.5>
VStem: 102 150<67 633 65 633>
LayerCount: 2
Fore
SplineSet
407 471 m 1xb0
 378 491 l 1
 405 551 421 639 421 692 c 1
 442 717 l 1
 479 717 550 695 570 675 c 1
 562 606 470 497 407 471 c 1xb0
20 662 m 1
 20 700 l 1
 348 700 l 1xd0
 348 662 l 1
 320 647 284 637 252 633 c 1
 252 65 l 1
 445 65 l 1
 512 244 l 1
 553 244 l 1
 563 184 572 67 569 0 c 1
 20 0 l 1
 20 38 l 1
 51 54 78 63 102 67 c 1
 102 633 l 1
 69 638 42 648 20 662 c 1
EndSplineSet
Validated: 33
EndChar

StartChar: lcaron
Encoding: 318 318 242
Width: 332
GlyphClass: 2
Flags: MW
HStem: 0 21G<31 307 31 31>
VStem: 21 220<677 716 716 716> 97 144<63 669 669 669> 241 79<703 730 703 752>
LayerCount: 2
Fore
SplineSet
307 39 m 1xc0
 307 0 l 1
 31 0 l 1
 31 39 l 1
 53 50 75 58 97 63 c 1
 97 669 l 1xa0
 21 677 l 1
 21 716 l 1
 57 732 151 747 207 752 c 1
 241 752 l 1
 241 63 l 1
 263 58 285 50 307 39 c 1xc0
306 514 m 1
 277 534 l 1
 304 594 320 676 320 730 c 1x90
 341 755 l 1
 359 758 433 741 454 723 c 1
 441 648 363 546 306 514 c 1
EndSplineSet
Validated: 33
EndChar

StartChar: Lslash
Encoding: 321 321 243
Width: 583
GlyphClass: 2
Flags: MW
HStem: 0 65<252 445 252 569> 680 20G<20 348 348 348>
VStem: 20 232<0 340 38 340 198 277 277 277> 102 150<67 248 248 248 327 340 419 633>
LayerCount: 2
Fore
SplineSet
20 662 m 1xe0
 20 700 l 1
 348 700 l 1
 348 662 l 1
 320 647 284 637 252 633 c 1
 252 419 l 1
 367 490 l 1
 367 411 l 1
 252 340 l 1
 252 65 l 1
 445 65 l 1
 512 244 l 1
 553 244 l 1
 563 184 572 67 569 0 c 1
 20 0 l 1
 20 38 l 1xe0
 51 54 78 63 102 67 c 1
 102 248 l 1xd0
 20 198 l 1
 20 277 l 1xe0
 102 327 l 1
 102 633 l 1xd0
 69 638 42 648 20 662 c 1xe0
EndSplineSet
Validated: 33
EndChar

StartChar: lslash
Encoding: 322 322 244
Width: 352
GlyphClass: 2
Flags: MW
HStem: 0 21G<41 317 41 41> 732 20G<217 251 251 251>
VStem: 23 228<216 295 295 295> 41 210<0 354 39 354> 107 144<63 267 267 267 346 354 433 669 669 669> 107 224<63 482 267 482 403 482 403 669 403 669>
LayerCount: 2
Fore
SplineSet
23 216 m 1xe0
 23 295 l 1xe0
 107 346 l 1
 107 669 l 1xc8
 31 677 l 1
 31 716 l 1
 67 732 161 747 217 752 c 1
 251 752 l 1
 251 433 l 1xe0
 331 482 l 1
 331 403 l 1xc4
 251 354 l 1
 251 63 l 1
 273 58 295 50 317 39 c 1
 317 0 l 1
 41 0 l 1
 41 39 l 1xd0
 63 50 85 58 107 63 c 1
 107 267 l 1xc8
 23 216 l 1xe0
EndSplineSet
Validated: 1
EndChar

StartChar: Nacute
Encoding: 323 323 245
Width: 758
GlyphClass: 2
Flags: MW
HStem: -12 21G<568 653 568 568> 0 21G<20 267 20 20> 680 20G<28 244 244 244 490 738 738 738>
VStem: 104 77<78 495 78 624> 576 77<284 618 -12 618>
LayerCount: 2
Fore
SplineSet
490 662 m 1x78
 490 700 l 1
 738 700 l 1
 738 662 l 1
 713 642 680 626 653 618 c 1
 653 -12 l 1
 568 -12 l 1xb8
 215 498 l 1
 175 575 l 1
 172 575 l 1
 181 495 l 1
 181 78 l 1
 208 71 244 54 267 38 c 1
 267 0 l 1
 20 0 l 1
 20 38 l 1
 44 54 73 69 104 78 c 1
 104 624 l 1
 77 635 49 648 28 663 c 1
 28 700 l 1
 244 700 l 1
 531 284 l 1
 577 198 l 1
 581 198 l 1
 576 284 l 1
 576 618 l 1
 544 629 513 645 490 662 c 1x78
315 769 m 1
 457 898 l 1
 500 901 574 880 590 861 c 1
 590 841 l 1
 343 745 l 1
 315 769 l 1
EndSplineSet
Validated: 33
EndChar

StartChar: nacute
Encoding: 324 324 246
Width: 644
GlyphClass: 2
Flags: MW
HStem: 0 21G<23 288 23 23 367 632 367 367> 432 80<359 370.5> 562 21G<307 307>
VStem: 23 210<0 341 39 341 437 476 476 476> 89 144<63 341 63 409 409 429 429 429> 422 144<63 298 298 302 63 340>
LayerCount: 2
Fore
SplineSet
632 39 m 1xd4
 632 0 l 1
 367 0 l 1
 367 39 l 1
 384 48 399 55 422 63 c 1
 422 298 l 2
 422 382 401 432 340 432 c 0
 289 432 252 397 233 341 c 1
 233 63 l 1
 254 58 269 51 288 39 c 1
 288 0 l 1
 23 0 l 1
 23 39 l 1xd4
 40 48 62 56 89 63 c 1
 89 429 l 1xcc
 23 437 l 1
 23 476 l 1
 57 492 142 507 199 512 c 1
 233 512 l 1
 233 409 l 1
 234 409 l 1
 262 465 319 512 399 512 c 0
 503 512 566 467 566 302 c 2
 566 63 l 1
 593 58 615 50 632 39 c 1xd4
267 584 m 1x20
 375 763 l 1
 398 769 484 758 498 741 c 1
 498 717 l 1
 307 562 l 1
 267 584 l 1x20
EndSplineSet
Validated: 33
EndChar

StartChar: Ncommaaccent
Encoding: 325 325 247
Width: 758
GlyphClass: 2
Flags: MW
HStem: -285 21G<319 319> -12 21G<568 653 568 568> 0 21G<20 267 20 20> 680 20G<28 244 244 244 490 738 738 738>
VStem: 104 77<78 495 78 624> 576 77<284 618 -12 618>
LayerCount: 2
Fore
SplineSet
490 662 m 1xbc
 490 700 l 1
 738 700 l 1
 738 662 l 1
 713 642 680 626 653 618 c 1
 653 -12 l 1
 568 -12 l 1xdc
 215 498 l 1
 175 575 l 1
 172 575 l 1
 181 495 l 1
 181 78 l 1
 208 71 244 54 267 38 c 1
 267 0 l 1
 20 0 l 1
 20 38 l 1
 44 54 73 69 104 78 c 1
 104 624 l 1
 77 635 49 648 28 663 c 1
 28 700 l 1
 244 700 l 1
 531 284 l 1
 577 198 l 1
 581 198 l 1
 576 284 l 1
 576 618 l 1
 544 629 513 645 490 662 c 1xbc
319 -285 m 1
 306 -241 l 1
 337 -233 364 -211 363 -182 c 1
 344 -163 316 -152 287 -144 c 1
 271 -101 313 -49 352 -44 c 1
 408 -47 466 -78 466 -146 c 0
 466 -212 404 -277 319 -285 c 1
EndSplineSet
Validated: 33
EndChar

StartChar: ncommaaccent
Encoding: 326 326 248
Width: 644
GlyphClass: 2
Flags: MW
HStem: -285 21G<270 270> -42 42 432 80<359 370.5>
VStem: 23 210<0 341 39 341 437 476 476 476> 89 144<63 341 63 409 409 429 429 429> 422 144<63 298 298 302 63 340>
LayerCount: 2
Fore
SplineSet
632 39 m 1xf4
 632 0 l 1
 367 0 l 1
 367 39 l 1
 384 48 399 55 422 63 c 1
 422 298 l 2
 422 382 401 432 340 432 c 0
 289 432 252 397 233 341 c 1
 233 63 l 1
 254 58 269 51 288 39 c 1
 288 0 l 1
 23 0 l 1
 23 39 l 1xf4
 40 48 62 56 89 63 c 1
 89 429 l 1xec
 23 437 l 1
 23 476 l 1
 57 492 142 507 199 512 c 1
 233 512 l 1
 233 409 l 1
 234 409 l 1
 262 465 319 512 399 512 c 0
 503 512 566 467 566 302 c 2
 566 63 l 1
 593 58 615 50 632 39 c 1xf4
270 -285 m 1
 259 -240 l 1
 299 -229 315 -202 315 -179 c 1
 299 -160 272 -150 245 -141 c 1
 231 -98 270 -47 305 -42 c 1
 357 -43 405 -76 405 -144 c 0
 405 -208 357 -274 270 -285 c 1
EndSplineSet
Validated: 33
EndChar

StartChar: Ncaron
Encoding: 327 327 249
Width: 758
GlyphClass: 2
Flags: MW
HStem: -12 21G<568 653 568 568> 0 21G<20 267 20 20> 680 20G<28 244 244 244 490 738 738 738> 882 20G<254.5 261 507 512.5>
VStem: 104 77<78 495 78 624> 576 77<284 618 -12 618>
LayerCount: 2
Fore
SplineSet
490 662 m 1x7c
 490 700 l 1
 738 700 l 1
 738 662 l 1
 713 642 680 626 653 618 c 1
 653 -12 l 1
 568 -12 l 1xbc
 215 498 l 1
 175 575 l 1
 172 575 l 1
 181 495 l 1
 181 78 l 1
 208 71 244 54 267 38 c 1
 267 0 l 1
 20 0 l 1
 20 38 l 1
 44 54 73 69 104 78 c 1
 104 624 l 1
 77 635 49 648 28 663 c 1
 28 700 l 1
 244 700 l 1
 531 284 l 1
 577 198 l 1
 581 198 l 1
 576 284 l 1
 576 618 l 1
 544 629 513 645 490 662 c 1x7c
387 847 m 1
 507 902 l 1
 518 902 537 884 541 871 c 1
 414 759 l 2
 403 751 367 751 352 759 c 2
 227 868 l 1
 231 883 248 902 261 902 c 1
 387 847 l 1
EndSplineSet
Validated: 33
EndChar

StartChar: ncaron
Encoding: 328 328 250
Width: 644
GlyphClass: 2
Flags: MW
HStem: 0 21G<23 288 23 23 367 632 367 367> 432 80<359 370.5> 772 20G<210 216 432 438.5>
VStem: 23 210<0 341 39 341 437 476 476 476> 89 144<63 341 63 409 409 429 429 429> 422 144<63 298 298 302 63 340>
LayerCount: 2
Fore
SplineSet
632 39 m 1xd4
 632 0 l 1
 367 0 l 1
 367 39 l 1
 384 48 399 55 422 63 c 1
 422 298 l 2
 422 382 401 432 340 432 c 0
 289 432 252 397 233 341 c 1
 233 63 l 1
 254 58 269 51 288 39 c 1
 288 0 l 1
 23 0 l 1
 23 39 l 1xd4
 40 48 62 56 89 63 c 1
 89 429 l 1xcc
 23 437 l 1
 23 476 l 1
 57 492 142 507 199 512 c 1
 233 512 l 1
 233 409 l 1
 234 409 l 1
 262 465 319 512 399 512 c 0
 503 512 566 467 566 302 c 2
 566 63 l 1
 593 58 615 50 632 39 c 1xd4
327 699 m 1x20
 432 792 l 1
 445 792 471 775 474 767 c 1
 346 586 l 1
 335 579 307 579 294 586 c 1
 168 766 l 1
 171 774 204 792 216 792 c 1
 327 699 l 1x20
EndSplineSet
Validated: 33
EndChar

StartChar: Omacron
Encoding: 332 332 251
Width: 754
GlyphClass: 2
Flags: MW
HStem: -12 65<323.5 443.5 323.5 486.5> 647 65<307 433> 779 70<215 539 215 539>
VStem: 39 170<264.5 435.5 264.5 454.5> 544 170<264.5 435.5>
LayerCount: 2
Fore
SplineSet
39 350 m 0
 39 559 158 712 377 712 c 0
 596 712 714 559 714 350 c 0
 714 141 596 -12 377 -12 c 0
 158 -12 39 141 39 350 c 0
209 350 m 0
 209 179 261 53 386 53 c 0
 501 53 544 179 544 350 c 0
 544 521 497 647 369 647 c 0
 245 647 209 521 209 350 c 0
539 779 m 1
 215 779 l 1
 215 849 l 1
 539 849 l 1
 539 779 l 1
EndSplineSet
Validated: 1
EndChar

StartChar: omacron
Encoding: 333 333 252
Width: 594
GlyphClass: 2
Flags: MW
HStem: -12 61<261 341 261 380> 451 61<255 335.5> 619 70<150 444 150 444>
VStem: 31 155<189.5 324.5 189.5 331.5> 408 155<175.5 311>
LayerCount: 2
Fore
SplineSet
31 250 m 0
 31 413 133 512 297 512 c 0
 485 512 563 403 563 250 c 0
 563 87 463 -12 297 -12 c 0
 116 -12 31 97 31 250 c 0
186 250 m 0
 186 129 211 49 311 49 c 0
 371 49 408 101 408 250 c 0
 408 372 382 451 289 451 c 0
 221 451 186 399 186 250 c 0
444 619 m 1x20
 150 619 l 1
 150 689 l 1
 444 689 l 1
 444 619 l 1x20
EndSplineSet
Validated: 1
EndChar

StartChar: Ohungarumlaut
Encoding: 336 336 253
Width: 754
GlyphClass: 2
Flags: MW
HStem: -12 65<323.5 443.5 323.5 486.5> 647 65<307 433>
VStem: 39 170<264.5 435.5 264.5 454.5> 544 170<264.5 435.5>
LayerCount: 2
Fore
SplineSet
39 350 m 0
 39 559 158 712 377 712 c 0
 596 712 714 559 714 350 c 0
 714 141 596 -12 377 -12 c 0
 158 -12 39 141 39 350 c 0
209 350 m 0
 209 179 261 53 386 53 c 0
 501 53 544 179 544 350 c 0
 544 521 497 647 369 647 c 0
 245 647 209 521 209 350 c 0
240 772 m 1
 310 888 l 1
 326 891 404 873 412 860 c 1
 412 846 l 1
 277 749 l 1
 240 772 l 1
391 770 m 1
 506 888 l 1
 524 891 600 873 613 857 c 1
 612 847 l 1
 430 747 l 1
 391 770 l 1
EndSplineSet
Validated: 33
EndChar

StartChar: ohungarumlaut
Encoding: 337 337 254
Width: 594
GlyphClass: 2
Flags: MW
HStem: -12 61<261 341 261 380> 451 61<255 335.5> 585 21G<213 213 340 340>
VStem: 31 155<189.5 324.5 189.5 331.5> 408 155<175.5 311>
LayerCount: 2
Fore
SplineSet
31 250 m 0
 31 413 133 512 297 512 c 0
 485 512 563 403 563 250 c 0
 563 87 463 -12 297 -12 c 0
 116 -12 31 97 31 250 c 0
186 250 m 0
 186 129 211 49 311 49 c 0
 371 49 408 101 408 250 c 0
 408 372 382 451 289 451 c 0
 221 451 186 399 186 250 c 0
172 605 m 1x20
 240 768 l 1
 256 773 343 762 351 747 c 1
 351 723 l 1
 213 585 l 1
 172 605 l 1x20
303 607 m 1
 436 768 l 1
 455 773 532 761 548 740 c 1
 548 718 l 1
 340 585 l 1
 303 607 l 1
EndSplineSet
Validated: 33
EndChar

StartChar: OE
Encoding: 338 338 255
Width: 983
GlyphClass: 2
Flags: MW
HStem: -12 65<323.5 391.5> 0 65<631 826 631 940> 325 65<631 753 631 753> 635 65<631 818 631 631> 647 65<307 389 265 389.5>
VStem: 39 170<264.5 435.5 264.5 454.5> 481 150<77 325 390 617 617 617>
LayerCount: 2
Fore
SplineSet
940 0 m 1x76
 482 0 l 1x76
 451 -7 408 -12 375 -12 c 0
 155 -12 39 141 39 350 c 0
 39 559 155 712 375 712 c 0xae
 403 712 449 707 481 700 c 1
 925 700 l 1
 922 640 916 573 905 517 c 1
 864 517 l 1
 818 635 l 1
 631 635 l 1
 631 390 l 1
 753 390 l 1
 797 467 l 1
 829 467 l 1
 836 402 836 315 829 246 c 1
 797 246 l 1
 753 325 l 1
 631 325 l 1
 631 65 l 1
 826 65 l 1
 879 192 l 1
 920 192 l 1
 931 141 940 60 940 0 c 1x76
386 53 m 0xae
 418 53 454 62 481 77 c 1
 481 617 l 1
 450 634 410 647 369 647 c 0
 245 647 209 521 209 350 c 0
 209 179 261 53 386 53 c 0xae
EndSplineSet
Validated: 33
EndChar

StartChar: oe
Encoding: 339 339 256
Width: 913
GlyphClass: 2
Flags: MW
HStem: -12 57<262.5 335> -12 80<668.5 714.5> 241 52<565 726 565 869 562 726> 455 57<253.5 335.5 629.5 686>
VStem: 31 155<189.5 324.5 189.5 331.5> 408 154<241 241 241 311>
LayerCount: 2
Fore
SplineSet
186 250 m 0xbc
 186 129 211 45 314 45 c 0
 377 45 408 101 408 250 c 0
 408 372 382 455 289 455 c 0
 218 455 186 399 186 250 c 0xbc
484 61 m 1
 437 9 373 -12 297 -12 c 0
 116 -12 31 97 31 250 c 0
 31 413 133 512 297 512 c 0
 380 512 448 486 483 439 c 1
 524 488 585 512 660 512 c 0
 798 512 904 442 869 241 c 1
 562 241 l 1
 563 136 618 68 719 68 c 0x7c
 764 68 816 83 843 104 c 1
 862 84 l 1
 840 38 767 -12 662 -12 c 0
 586 -12 513 18 484 61 c 1
656 455 m 0
 603 455 573 422 565 293 c 1
 726 293 l 1
 735 397 716 455 656 455 c 0
EndSplineSet
Validated: 33
EndChar

StartChar: Racute
Encoding: 340 340 257
Width: 697
GlyphClass: 2
Flags: MW
HStem: 0 21G<20 328 20 20 520 520 520 687> 303 55<252 311 252 311 311 333> 643 65<302 339.5> 680 20G<20 126 126 152.5>
VStem: 102 150<67 303 67 358 358 633 633 633> 434 156<460 552.5>
LayerCount: 2
Fore
SplineSet
252 303 m 1xec
 252 67 l 1
 283 60 305 49 328 38 c 1
 328 0 l 1
 20 0 l 1
 20 38 l 1
 49 54 75 62 102 67 c 1
 102 633 l 1
 69 640 41 650 20 662 c 1
 20 700 l 1
 126 700 l 2xdc
 179 700 266 708 338 708 c 0
 486 708 590 641 590 508 c 0
 590 412 540 352 459 321 c 1
 512 237 572 147 639 66 c 1
 687 34 l 1
 687 0 l 1
 520 0 l 1
 477 33 l 1
 416 106 369 210 333 303 c 1
 252 303 l 1xec
302 643 m 0xec
 281 643 265 641 252 637 c 1
 252 358 l 1
 311 358 l 2
 379 358 434 407 434 503 c 0
 434 602 377 643 302 643 c 0xec
240 769 m 1
 382 898 l 1
 425 901 499 880 515 861 c 1
 515 841 l 1
 268 745 l 1
 240 769 l 1
EndSplineSet
Validated: 33
EndChar

StartChar: racute
Encoding: 341 341 258
Width: 431
GlyphClass: 2
Flags: MW
HStem: 0 21G<23 313 23 23> 385 127<199 427 199 290> 562 21G<212 212>
VStem: 23 210<0 319 39 319 437 476 476 476> 89 144<63 319 63 379 379 429 429 429>
LayerCount: 2
Fore
SplineSet
427 385 m 1xd0
 290 385 l 1
 274 377 250 362 233 319 c 1
 233 63 l 1
 260 60 286 54 313 39 c 1
 313 0 l 1
 23 0 l 1
 23 39 l 1xd0
 47 52 68 58 89 63 c 1
 89 429 l 1xc8
 23 437 l 1
 23 476 l 1
 66 495 156 507 199 512 c 1
 233 512 l 1
 233 379 l 1
 237 379 l 1
 259 438 323 515 395 512 c 1
 410 493 420 455 427 424 c 1
 427 385 l 1xd0
172 584 m 1x20
 280 763 l 1
 303 769 389 758 403 741 c 1
 403 717 l 1
 212 562 l 1
 172 584 l 1x20
EndSplineSet
Validated: 33
EndChar

StartChar: Rcommaaccent
Encoding: 342 342 259
Width: 697
GlyphClass: 2
Flags: MW
HStem: -285 21G<275 275> -44 44 303 55<252 311 252 311 311 333> 643 65<302 339.5> 680 20G<20 126 126 152.5>
VStem: 102 150<67 303 67 358 358 633 633 633> 434 156<460 552.5>
LayerCount: 2
Fore
SplineSet
252 303 m 1xf6
 252 67 l 1
 283 60 305 49 328 38 c 1
 328 0 l 1
 20 0 l 1
 20 38 l 1
 49 54 75 62 102 67 c 1
 102 633 l 1
 69 640 41 650 20 662 c 1
 20 700 l 1
 126 700 l 2xee
 179 700 266 708 338 708 c 0
 486 708 590 641 590 508 c 0
 590 412 540 352 459 321 c 1
 512 237 572 147 639 66 c 1
 687 34 l 1
 687 0 l 1
 520 0 l 1
 477 33 l 1
 416 106 369 210 333 303 c 1
 252 303 l 1xf6
302 643 m 0xf6
 281 643 265 641 252 637 c 1
 252 358 l 1
 311 358 l 2
 379 358 434 407 434 503 c 0
 434 602 377 643 302 643 c 0xf6
275 -285 m 1
 262 -241 l 1
 293 -233 320 -211 319 -182 c 1
 300 -163 272 -152 243 -144 c 1
 227 -101 269 -49 308 -44 c 1
 364 -47 422 -78 422 -146 c 0
 422 -212 360 -277 275 -285 c 1
EndSplineSet
Validated: 33
EndChar

StartChar: rcommaaccent
Encoding: 343 343 260
Width: 431
GlyphClass: 2
Flags: MW
HStem: -285 21G<135 135> -42 42 385 127<199 427 199 290>
VStem: 23 210<0 319 39 319 437 476 476 476> 23 247<-176 39 -176 39> 89 144<63 319 63 379 379 429 429 429>
LayerCount: 2
Fore
SplineSet
427 385 m 1xf0
 290 385 l 1
 274 377 250 362 233 319 c 1
 233 63 l 1
 260 60 286 54 313 39 c 1
 313 0 l 1
 23 0 l 1
 23 39 l 1xf0
 47 52 68 58 89 63 c 1
 89 429 l 1xe4
 23 437 l 1
 23 476 l 1
 66 495 156 507 199 512 c 1
 233 512 l 1
 233 379 l 1
 237 379 l 1
 259 438 323 515 395 512 c 1
 410 493 420 455 427 424 c 1
 427 385 l 1xf0
135 -285 m 1
 124 -240 l 1
 164 -229 180 -202 180 -179 c 1
 164 -160 137 -150 110 -141 c 1
 96 -98 135 -47 170 -42 c 1
 222 -43 270 -76 270 -144 c 0xe8
 270 -208 222 -274 135 -285 c 1
EndSplineSet
Validated: 33
EndChar

StartChar: Rcaron
Encoding: 344 344 261
Width: 697
GlyphClass: 2
Flags: MW
HStem: 0 21G<20 328 20 20 520 520 520 687> 303 55<252 311 252 311 311 333> 643 65<302 339.5> 680 20G<20 126 126 152.5> 882 20G<174.5 181 427 432.5>
VStem: 102 150<67 303 67 358 358 633 633 633> 434 156<460 552.5>
LayerCount: 2
Fore
SplineSet
252 303 m 1xee
 252 67 l 1
 283 60 305 49 328 38 c 1
 328 0 l 1
 20 0 l 1
 20 38 l 1
 49 54 75 62 102 67 c 1
 102 633 l 1
 69 640 41 650 20 662 c 1
 20 700 l 1
 126 700 l 2xde
 179 700 266 708 338 708 c 0
 486 708 590 641 590 508 c 0
 590 412 540 352 459 321 c 1
 512 237 572 147 639 66 c 1
 687 34 l 1
 687 0 l 1
 520 0 l 1
 477 33 l 1
 416 106 369 210 333 303 c 1
 252 303 l 1xee
302 643 m 0xee
 281 643 265 641 252 637 c 1
 252 358 l 1
 311 358 l 2
 379 358 434 407 434 503 c 0
 434 602 377 643 302 643 c 0xee
307 847 m 1
 427 902 l 1
 438 902 457 884 461 871 c 1
 334 759 l 2
 323 751 287 751 272 759 c 2
 147 868 l 1
 151 883 168 902 181 902 c 1
 307 847 l 1
EndSplineSet
Validated: 33
EndChar

StartChar: rcaron
Encoding: 345 345 262
Width: 431
GlyphClass: 2
Flags: MW
HStem: 0 21G<23 313 23 23> 385 127<199 427 199 290> 772 20G<122 128 344 350.5>
VStem: 23 210<0 319 39 319 437 476 476 476> 89 144<63 319 63 379 379 429 429 429>
LayerCount: 2
Fore
SplineSet
427 385 m 1xd0
 290 385 l 1
 274 377 250 362 233 319 c 1
 233 63 l 1
 260 60 286 54 313 39 c 1
 313 0 l 1
 23 0 l 1
 23 39 l 1xd0
 47 52 68 58 89 63 c 1
 89 429 l 1xc8
 23 437 l 1
 23 476 l 1
 66 495 156 507 199 512 c 1
 233 512 l 1
 233 379 l 1
 237 379 l 1
 259 438 323 515 395 512 c 1
 410 493 420 455 427 424 c 1
 427 385 l 1xd0
239 699 m 1x20
 344 792 l 1
 357 792 383 775 386 767 c 1
 258 586 l 1
 247 579 219 579 206 586 c 1
 80 766 l 1
 83 774 116 792 128 792 c 1
 239 699 l 1x20
EndSplineSet
Validated: 33
EndChar

StartChar: Sacute
Encoding: 346 346 263
Width: 558
GlyphClass: 2
Flags: MW
HStem: -12 65<219 277.5 219 340.5> 647 65<266 310.5>
VStem: 49 145<485 586.5> 369 150<130.5 234.5>
LayerCount: 2
Fore
SplineSet
116 230 m 1
 157 83 l 1
 172 68 197 53 241 53 c 0
 314 53 369 93 369 161 c 0
 369 308 49 293 49 521 c 0
 49 652 151 712 284 712 c 0
 365 712 436 701 492 677 c 1
 489 622 476 534 465 494 c 1
 424 494 l 1
 378 631 l 1
 362 639 327 647 294 647 c 0
 238 647 194 617 194 561 c 0
 194 409 519 416 519 197 c 0
 519 64 428 -12 253 -12 c 0
 169 -12 71 12 42 35 c 1
 45 95 62 183 75 230 c 1
 116 230 l 1
233 769 m 1
 375 898 l 1
 418 901 492 880 508 861 c 1
 508 841 l 1
 261 745 l 1
 233 769 l 1
EndSplineSet
Validated: 33
EndChar

StartChar: sacute
Encoding: 347 347 264
Width: 452
GlyphClass: 2
Flags: MW
HStem: -12 57<203 230.5 203 278.5> 455 57<214 244.5> 562 21G<203 203>
VStem: 39 134<347.5 412.5 347.5 420> 288 134<90 162>
LayerCount: 2
Fore
SplineSet
288 109 m 0
 288 215 39 212 39 380 c 0
 39 460 117 512 221 512 c 0
 293 512 356 500 403 480 c 1
 398 437 379 385 364 345 c 1
 330 345 l 1
 288 447 l 1
 272 454 255 455 234 455 c 0
 194 455 173 427 173 398 c 0
 173 297 422 293 422 136 c 0
 422 44 341 -12 216 -12 c 0
 152 -12 78 2 29 26 c 1
 32 74 55 126 78 165 c 1
 112 165 l 1
 161 56 l 1
 176 45 195 45 211 45 c 0
 250 45 288 69 288 109 c 0
163 584 m 1x20
 271 763 l 1
 294 769 380 758 394 741 c 1
 394 717 l 1
 203 562 l 1
 163 584 l 1x20
EndSplineSet
Validated: 33
EndChar

StartChar: Scircumflex
Encoding: 348 348 265
Width: 558
GlyphClass: 2
Flags: MW
HStem: -12 65<219 277.5 219 340.5> 647 65<266 310.5>
VStem: 49 145<485 586.5> 369 150<130.5 234.5>
LayerCount: 2
Fore
SplineSet
116 230 m 1
 157 83 l 1
 172 68 197 53 241 53 c 0
 314 53 369 93 369 161 c 0
 369 308 49 293 49 521 c 0
 49 652 151 712 284 712 c 0
 365 712 436 701 492 677 c 1
 489 622 476 534 465 494 c 1
 424 494 l 1
 378 631 l 1
 362 639 327 647 294 647 c 0
 238 647 194 617 194 561 c 0
 194 409 519 416 519 197 c 0
 519 64 428 -12 253 -12 c 0
 169 -12 71 12 42 35 c 1
 45 95 62 183 75 230 c 1
 116 230 l 1
295 800 m 1
 169 743 l 1
 141 771 l 1
 268 888 l 2
 281 895 317 895 330 888 c 2
 455 774 l 1
 427 744 l 1
 295 800 l 1
EndSplineSet
Validated: 33
EndChar

StartChar: scircumflex
Encoding: 349 349 266
Width: 452
GlyphClass: 2
Flags: MW
HStem: -12 57<203 230.5 203 278.5> 455 57<214 244.5> 577 21G<136 136 329 329>
VStem: 39 134<347.5 412.5 347.5 420> 288 134<90 162>
LayerCount: 2
Fore
SplineSet
288 109 m 0
 288 215 39 212 39 380 c 0
 39 460 117 512 221 512 c 0
 293 512 356 500 403 480 c 1
 398 437 379 385 364 345 c 1
 330 345 l 1
 288 447 l 1
 272 454 255 455 234 455 c 0
 194 455 173 427 173 398 c 0
 173 297 422 293 422 136 c 0
 422 44 341 -12 216 -12 c 0
 152 -12 78 2 29 26 c 1
 32 74 55 126 78 165 c 1
 112 165 l 1
 161 56 l 1
 176 45 195 45 211 45 c 0
 250 45 288 69 288 109 c 0
226 675 m 1x20
 136 577 l 1
 94 602 l 1
 204 788 l 2
 212 795 244 796 256 788 c 1
 370 603 l 1
 329 577 l 1
 226 675 l 1x20
EndSplineSet
Validated: 33
EndChar

StartChar: Scedilla
Encoding: 350 350 267
Width: 558
GlyphClass: 2
Flags: MW
HStem: -285 215<187 264> -125 178<190 277.5> -10 63<219 289> 647 65<266 310.5>
VStem: 49 145<485 586.5> 266 133 369 150<135 234.5>
LayerCount: 2
Fore
SplineSet
116 230 m 1x5c
 157 83 l 1
 172 68 197 53 241 53 c 0
 314 53 369 93 369 161 c 0
 369 308 49 293 49 521 c 0
 49 652 151 712 284 712 c 0
 365 712 436 701 492 677 c 1
 489 622 476 534 465 494 c 1
 424 494 l 1
 378 631 l 1
 362 639 327 647 294 647 c 0
 238 647 194 617 194 561 c 0
 194 409 519 416 519 197 c 0x5a
 519 73 440 1 289 -10 c 1
 264 -70 l 1
 344 -73 399 -100 399 -159 c 0
 399 -248 263 -285 187 -285 c 1xbc
 187 -239 l 1
 234 -232 267 -213 266 -176 c 0
 265 -145 246 -128 190 -125 c 1
 226 -11 l 1
 148 -8 68 14 42 35 c 1
 45 95 62 183 75 230 c 1
 116 230 l 1x5c
EndSplineSet
Validated: 33
EndChar

StartChar: scedilla
Encoding: 351 351 268
Width: 462
GlyphClass: 2
Flags: MW
HStem: -257 189<141 212> -12 57<233 233> 455 57<216.5 249.5>
VStem: 39 134<344.5 412.5 344.5 420> 211 125<-176.5 -161> 298 134<92.5 167>
LayerCount: 2
Fore
SplineSet
298 109 m 0xf4
 298 225 39 202 39 380 c 0
 39 460 114 512 226 512 c 0
 298 512 366 500 413 480 c 1
 408 437 389 385 374 345 c 1
 340 345 l 1
 298 447 l 1
 282 454 260 455 239 455 c 0
 194 455 173 427 173 398 c 0
 173 291 432 303 432 138 c 0xf4
 432 47 360 -8 233 -12 c 1
 212 -68 l 1
 292 -72 335 -96 336 -144 c 0
 336 -220 235 -257 141 -257 c 1
 141 -218 l 1
 188 -211 211 -192 211 -161 c 0xf8
 210 -130 185 -119 138 -114 c 1
 175 -10 l 1
 122 -3 68 7 29 26 c 1
 32 74 55 126 78 165 c 1
 112 165 l 1
 161 56 l 1
 176 45 200 45 216 45 c 0
 259 45 298 69 298 109 c 0xf4
EndSplineSet
Validated: 1
EndChar

StartChar: Scaron
Encoding: 352 352 269
Width: 558
GlyphClass: 2
Flags: MW
HStem: -12 65<219 277.5 219 340.5> 647 65<266 310.5> 882 20G<171.5 178 424 429.5>
VStem: 49 145<485 586.5> 369 150<130.5 234.5>
LayerCount: 2
Fore
SplineSet
116 230 m 1
 157 83 l 1
 172 68 197 53 241 53 c 0
 314 53 369 93 369 161 c 0
 369 308 49 293 49 521 c 0
 49 652 151 712 284 712 c 0
 365 712 436 701 492 677 c 1
 489 622 476 534 465 494 c 1
 424 494 l 1
 378 631 l 1
 362 639 327 647 294 647 c 0
 238 647 194 617 194 561 c 0
 194 409 519 416 519 197 c 0
 519 64 428 -12 253 -12 c 0
 169 -12 71 12 42 35 c 1
 45 95 62 183 75 230 c 1
 116 230 l 1
304 847 m 1
 424 902 l 1
 435 902 454 884 458 871 c 1
 331 759 l 2
 320 751 284 751 269 759 c 2
 144 868 l 1
 148 883 165 902 178 902 c 1
 304 847 l 1
EndSplineSet
Validated: 33
EndChar

StartChar: scaron
Encoding: 353 353 270
Width: 452
GlyphClass: 2
Flags: MW
HStem: -12 57<203 230.5 203 278.5> 455 57<214 244.5> 772 20G<116 122 338 344.5>
VStem: 39 134<347.5 412.5 347.5 420> 288 134<90 162>
LayerCount: 2
Fore
SplineSet
288 109 m 0
 288 215 39 212 39 380 c 0
 39 460 117 512 221 512 c 0
 293 512 356 500 403 480 c 1
 398 437 379 385 364 345 c 1
 330 345 l 1
 288 447 l 1
 272 454 255 455 234 455 c 0
 194 455 173 427 173 398 c 0
 173 297 422 293 422 136 c 0
 422 44 341 -12 216 -12 c 0
 152 -12 78 2 29 26 c 1
 32 74 55 126 78 165 c 1
 112 165 l 1
 161 56 l 1
 176 45 195 45 211 45 c 0
 250 45 288 69 288 109 c 0
233 699 m 1x20
 338 792 l 1
 351 792 377 775 380 767 c 1
 252 586 l 1
 241 579 213 579 200 586 c 1
 74 766 l 1
 77 774 110 792 122 792 c 1
 233 699 l 1x20
EndSplineSet
Validated: 33
EndChar

StartChar: Tcedilla
Encoding: 65537 -1 271
Width: 667
GlyphClass: 2
Flags: MW
HStem: -285 215<256 333> 0 21G<161 298 161 161 362 505 362 362> 464 236<37 78 37 37 588 588 588 630> 635 65<142 258 142 142 408 408 408 524>
VStem: 258 150<67 635 67 635> 335 133
LayerCount: 2
Fore
SplineSet
505 38 m 1xd8
 505 0 l 1
 362 0 l 1
 333 -70 l 1
 413 -73 468 -100 468 -159 c 0
 468 -248 332 -285 256 -285 c 1
 256 -239 l 1
 303 -232 336 -213 335 -176 c 0xe4
 334 -145 315 -128 259 -125 c 1
 298 0 l 1
 161 0 l 1
 161 38 l 1
 188 49 223 62 258 67 c 1
 258 635 l 1
 142 635 l 1xd8
 78 464 l 1
 37 464 l 1
 26 518 15 638 15 700 c 1
 652 700 l 1
 652 636 641 520 630 464 c 1
 588 464 l 1xe8
 524 635 l 1
 408 635 l 1
 408 67 l 1
 443 60 478 51 505 38 c 1xd8
EndSplineSet
Validated: 33
EndChar

StartChar: tcedilla
Encoding: 65538 -1 272
Width: 399
GlyphClass: 2
Flags: MW
HStem: -257 189<135 206> -11 21G<227 232.5> 437 63<232 364 232 364> 607 20G<204 232 232 232>
VStem: 88 144<136.5 178 178 437 510 591 591 591> 205 125<-176.5 -161>
LayerCount: 2
Fore
SplineSet
8 437 m 1xf8
 8 476 l 1
 33 492 60 503 88 510 c 1
 88 591 l 1
 103 606 176 627 204 627 c 2
 232 627 l 1
 232 500 l 1
 364 500 l 1
 364 437 l 1
 232 437 l 1
 232 178 l 2xf8
 232 95 251 68 299 68 c 0
 324 68 356 71 381 80 c 1
 388 47 l 1
 367 27 316 -1 256 -8 c 0
 245 -9 238 -11 227 -11 c 1
 206 -68 l 1
 286 -72 329 -96 330 -144 c 0
 330 -220 229 -257 135 -257 c 1
 135 -218 l 1
 182 -211 205 -192 205 -161 c 0xf4
 204 -130 179 -119 132 -114 c 1
 170 -6 l 1
 115 7 88 53 88 132 c 2
 88 437 l 1
 8 437 l 1xf8
EndSplineSet
Validated: 1
EndChar

StartChar: Tcaron
Encoding: 356 356 273
Width: 667
GlyphClass: 2
Flags: MW
HStem: 0 21G<161 505 161 161> 464 236<37 78 37 37 588 588 588 630> 635 65<142 258 142 142 408 408 408 524> 882 20G<207.5 214 460 465.5>
VStem: 258 150<67 635 67 635>
LayerCount: 2
Fore
SplineSet
505 38 m 1xb8
 505 0 l 1
 161 0 l 1
 161 38 l 1
 188 49 223 62 258 67 c 1
 258 635 l 1
 142 635 l 1xb8
 78 464 l 1
 37 464 l 1
 26 518 15 638 15 700 c 1
 652 700 l 1
 652 636 641 520 630 464 c 1
 588 464 l 1xd8
 524 635 l 1
 408 635 l 1
 408 67 l 1
 443 60 478 51 505 38 c 1xb8
340 847 m 1
 460 902 l 1
 471 902 490 884 494 871 c 1
 367 759 l 2
 356 751 320 751 305 759 c 2
 180 868 l 1
 184 883 201 902 214 902 c 1
 340 847 l 1
EndSplineSet
Validated: 33
EndChar

StartChar: tcaron
Encoding: 357 357 274
Width: 389
GlyphClass: 2
Flags: MW
HStem: -12 80<173.5 311> 437 63<232 364 232 364>
VStem: 88 144<136.5 178 178 437 510 591 591 591>
LayerCount: 2
Fore
SplineSet
8 437 m 1
 8 476 l 1
 33 492 60 503 88 510 c 1
 88 591 l 1
 104 607 172 622 198 627 c 1
 232 627 l 1
 232 500 l 1
 364 500 l 1
 364 437 l 1
 232 437 l 1
 232 178 l 2
 232 95 251 68 299 68 c 0
 323 68 356 71 381 80 c 1
 388 47 l 1
 364 23 292 -12 217 -12 c 0
 130 -12 88 31 88 132 c 2
 88 437 l 1
 8 437 l 1
294 529 m 1
 265 549 l 1
 292 609 308 691 308 745 c 1
 329 770 l 1
 347 773 421 756 442 738 c 1
 429 663 351 561 294 529 c 1
EndSplineSet
Validated: 33
EndChar

StartChar: Umacron
Encoding: 362 362 275
Width: 715
GlyphClass: 2
Flags: MW
HStem: -9 83<349.5 443 349.5 451> 680 20G<7 315 315 315 462 710 710 710> 779 70<229 553 229 553>
VStem: 89 150<243 248 248 633> 550 77<253 628>
LayerCount: 2
Fore
SplineSet
7 662 m 1
 7 700 l 1
 315 700 l 1
 315 662 l 1
 293 648 268 638 239 633 c 1
 239 248 l 2
 239 118 300 74 399 74 c 0
 487 74 550 121 550 253 c 2
 550 628 l 1
 519 635 483 647 462 662 c 1
 462 700 l 1
 710 700 l 1
 710 662 l 1
 686 645 655 635 627 628 c 1
 627 252 l 2
 627 81 533 -9 369 -9 c 0
 190 -9 89 67 89 243 c 2
 89 633 l 1
 62 637 31 647 7 662 c 1
553 779 m 1
 229 779 l 1
 229 849 l 1
 553 849 l 1
 553 779 l 1
EndSplineSet
Validated: 1
EndChar

StartChar: umacron
Encoding: 363 363 276
Width: 622
GlyphClass: 2
Flags: MW
HStem: -12 80<263 278> -10 21G<405 439 405 405> 492 20G<187 221 221 221 504 538 538 538> 619 70<161 455 161 455>
VStem: 71 144<167.5 240> 394 144<109 109 167 429 429 429>
LayerCount: 2
Fore
SplineSet
71 198 m 0xac
 71 282 77 349 77 429 c 1
 11 437 l 1
 11 476 l 1
 54 492 144 507 187 512 c 1
 221 512 l 1
 221 412 215 315 215 222 c 0
 215 113 233 68 293 68 c 0xac
 334 68 371 98 394 167 c 1
 394 429 l 1
 329 437 l 1
 329 476 l 1
 370 492 455 507 504 512 c 1
 538 512 l 1
 538 71 l 1
 604 63 l 1
 604 28 l 1
 566 12 486 -5 439 -10 c 1
 405 -10 l 1x6c
 398 109 l 1
 394 109 l 1
 381 53 324 -12 232 -12 c 0
 132 -12 71 33 71 198 c 0xac
455 619 m 1x10
 161 619 l 1
 161 689 l 1
 455 689 l 1
 455 619 l 1x10
EndSplineSet
Validated: 1
EndChar

StartChar: Ubreve
Encoding: 364 364 277
Width: 715
GlyphClass: 2
Flags: MW
HStem: -9 83<349.5 443 349.5 451> 680 20G<7 315 315 315 462 710 710 710> 759 93<371 413 371 432>
VStem: 89 150<243 248 248 633> 550 77<253 628>
LayerCount: 2
Fore
SplineSet
7 662 m 1
 7 700 l 1
 315 700 l 1
 315 662 l 1
 293 648 268 638 239 633 c 1
 239 248 l 2
 239 118 300 74 399 74 c 0
 487 74 550 121 550 253 c 2
 550 628 l 1
 519 635 483 647 462 662 c 1
 462 700 l 1
 710 700 l 1
 710 662 l 1
 686 645 655 635 627 628 c 1
 627 252 l 2
 627 81 533 -9 369 -9 c 0
 190 -9 89 67 89 243 c 2
 89 633 l 1
 62 637 31 647 7 662 c 1
515 897 m 1
 524 898 547 887 556 874 c 1
 532 816 474 759 390 759 c 0
 301 759 243 804 218 876 c 1
 227 892 249 903 269 900 c 1
 288 870 351 852 391 852 c 0
 435 852 488 862 515 897 c 1
EndSplineSet
Validated: 33
EndChar

StartChar: ubreve
Encoding: 365 365 278
Width: 622
GlyphClass: 2
Flags: MW
HStem: -12 80<263 278> -10 21G<405 439 405 405> 492 20G<187 221 221 221 504 538 538 538> 584 103<306 306> 728 20G<187 187>
VStem: 71 144<167.5 240> 394 144<109 109 167 429 429 429>
LayerCount: 2
Fore
SplineSet
71 198 m 0xa6
 71 282 77 349 77 429 c 1
 11 437 l 1
 11 476 l 1
 54 492 144 507 187 512 c 1
 221 512 l 1
 221 412 215 315 215 222 c 0
 215 113 233 68 293 68 c 0xa6
 334 68 371 98 394 167 c 1
 394 429 l 1
 329 437 l 1
 329 476 l 1
 370 492 455 507 504 512 c 1
 538 512 l 1
 538 71 l 1
 604 63 l 1
 604 28 l 1
 566 12 486 -5 439 -10 c 1
 405 -10 l 1x66
 398 109 l 1
 394 109 l 1
 381 53 324 -12 232 -12 c 0
 132 -12 71 33 71 198 c 0xa6
425 744 m 1x18
 458 724 l 1
 434 651 382 584 306 584 c 0
 228 584 172 648 150 726 c 1
 187 748 l 1
 214 713 259 688 307 687 c 0
 357 686 396 705 425 744 c 1x18
EndSplineSet
Validated: 33
EndChar

StartChar: Uring
Encoding: 366 366 279
Width: 715
GlyphClass: 2
Flags: MW
HStem: -9 83<349.5 443 349.5 451> 680 20G<7 315 315 315 462 710 710 710> 704 50<380 405.5 380 432> 828 50<379 405.5>
VStem: 89 150<243 248 248 633> 262 83<776.5 802.5 776.5 815.5> 439 83<776.5 802.5> 550 77<253 628>
LayerCount: 2
Fore
SplineSet
7 662 m 1
 7 700 l 1
 315 700 l 1
 315 662 l 1
 293 648 268 638 239 633 c 1
 239 248 l 2
 239 118 300 74 399 74 c 0
 487 74 550 121 550 253 c 2
 550 628 l 1
 519 635 483 647 462 662 c 1
 462 700 l 1
 710 700 l 1
 710 662 l 1
 686 645 655 635 627 628 c 1
 627 252 l 2
 627 81 533 -9 369 -9 c 0
 190 -9 89 67 89 243 c 2
 89 633 l 1
 62 637 31 647 7 662 c 1
262 788 m 0
 262 843 314 878 395 878 c 0
 464 878 522 849 522 791 c 0
 522 739 470 704 394 704 c 0
 309 704 262 737 262 788 c 0
345 788 m 0
 345 765 370 754 390 754 c 0
 421 754 439 766 439 787 c 0
 439 818 418 828 393 828 c 0
 365 828 345 817 345 788 c 0
EndSplineSet
Validated: 1
EndChar

StartChar: uring
Encoding: 367 367 280
Width: 622
GlyphClass: 2
Flags: MW
HStem: -12 80<263 278> -10 21G<405 439 405 405> 492 20G<187 221 221 221 504 538 538 538> 584 50<297.5 322.5 297.5 346> 730 50<296.5 321.5>
VStem: 71 144<167.5 240> 195 75<665.5 697.5 665.5 706.5> 350 75<663.5 696> 394 144<109 109 167 429 429 429>
LayerCount: 2
Fore
SplineSet
71 198 m 0xa480
 71 282 77 349 77 429 c 1
 11 437 l 1
 11 476 l 1
 54 492 144 507 187 512 c 1
 221 512 l 1
 221 412 215 315 215 222 c 0
 215 113 233 68 293 68 c 0xa480
 334 68 371 98 394 167 c 1
 394 429 l 1
 329 437 l 1
 329 476 l 1
 370 492 455 507 504 512 c 1
 538 512 l 1
 538 71 l 1
 604 63 l 1
 604 28 l 1
 566 12 486 -5 439 -10 c 1
 405 -10 l 1x6480
 398 109 l 1
 394 109 l 1
 381 53 324 -12 232 -12 c 0
 132 -12 71 33 71 198 c 0xa480
195 679 m 0x1b
 195 734 237 780 313 780 c 0
 384 780 425 741 425 682 c 0
 425 626 380 584 312 584 c 0
 235 584 195 623 195 679 c 0x1b
270 681 m 0
 270 650 286 634 309 634 c 0
 336 634 350 649 350 678 c 0
 350 714 333 730 310 730 c 0
 283 730 270 714 270 681 c 0
EndSplineSet
Validated: 1
EndChar

StartChar: Uhungarumlaut
Encoding: 368 368 281
Width: 715
GlyphClass: 2
Flags: MW
HStem: -9 83<349.5 443 349.5 451> 680 20G<7 315 315 315 462 710 710 710>
VStem: 89 150<243 248 248 633> 550 77<253 628>
LayerCount: 2
Fore
SplineSet
7 662 m 1
 7 700 l 1
 315 700 l 1
 315 662 l 1
 293 648 268 638 239 633 c 1
 239 248 l 2
 239 118 300 74 399 74 c 0
 487 74 550 121 550 253 c 2
 550 628 l 1
 519 635 483 647 462 662 c 1
 462 700 l 1
 710 700 l 1
 710 662 l 1
 686 645 655 635 627 628 c 1
 627 252 l 2
 627 81 533 -9 369 -9 c 0
 190 -9 89 67 89 243 c 2
 89 633 l 1
 62 637 31 647 7 662 c 1
264 772 m 1
 334 888 l 1
 350 891 428 873 436 860 c 1
 436 846 l 1
 301 749 l 1
 264 772 l 1
415 770 m 1
 530 888 l 1
 548 891 624 873 637 857 c 1
 636 847 l 1
 454 747 l 1
 415 770 l 1
EndSplineSet
Validated: 33
EndChar

StartChar: uhungarumlaut
Encoding: 369 369 282
Width: 622
GlyphClass: 2
Flags: MW
HStem: -12 80<263 278> -10 21G<405 439 405 405> 492 20G<187 221 221 221 504 538 538 538> 585 21G<206 206 333 333>
VStem: 71 144<167.5 240> 394 144<109 109 167 429 429 429>
LayerCount: 2
Fore
SplineSet
71 198 m 0xac
 71 282 77 349 77 429 c 1
 11 437 l 1
 11 476 l 1
 54 492 144 507 187 512 c 1
 221 512 l 1
 221 412 215 315 215 222 c 0
 215 113 233 68 293 68 c 0xac
 334 68 371 98 394 167 c 1
 394 429 l 1
 329 437 l 1
 329 476 l 1
 370 492 455 507 504 512 c 1
 538 512 l 1
 538 71 l 1
 604 63 l 1
 604 28 l 1
 566 12 486 -5 439 -10 c 1
 405 -10 l 1x6c
 398 109 l 1
 394 109 l 1
 381 53 324 -12 232 -12 c 0
 132 -12 71 33 71 198 c 0xac
165 605 m 1x10
 233 768 l 1
 249 773 336 762 344 747 c 1
 344 723 l 1
 206 585 l 1
 165 605 l 1x10
296 607 m 1
 429 768 l 1
 448 773 525 761 541 740 c 1
 541 718 l 1
 333 585 l 1
 296 607 l 1
EndSplineSet
Validated: 33
EndChar

StartChar: Uogonek
Encoding: 370 370 283
Width: 715
GlyphClass: 2
Flags: MW
HStem: -255 66<347.5 450> -9 83<349.5 369 369 385> 680 20G<7 315 315 315 462 710 710 710>
VStem: 89 150<243 248 248 633> 261 127<-152.5 -123> 550 77<253 628>
LayerCount: 2
Fore
SplineSet
7 662 m 1
 7 700 l 1
 315 700 l 1
 315 662 l 1
 293 648 268 638 239 633 c 1
 239 248 l 2
 239 118 300 74 399 74 c 0
 487 74 550 121 550 253 c 2
 550 628 l 1
 519 635 483 647 462 662 c 1
 462 700 l 1
 710 700 l 1
 710 662 l 1
 686 645 655 635 627 628 c 1
 627 252 l 2
 627 128 578 48 489 12 c 1
 425 -23 388 -86 388 -135 c 0
 388 -170 413 -189 442 -189 c 0
 458 -189 472 -188 488 -184 c 1
 488 -227 l 1
 469 -242 431 -255 388 -255 c 0
 307 -255 261 -212 261 -157 c 0
 261 -89 312 -46 385 -9 c 1
 369 -9 l 2
 190 -9 89 67 89 243 c 2
 89 633 l 1
 62 637 31 647 7 662 c 1
EndSplineSet
Validated: 1
EndChar

